<mxfile host="Electron" modified="2025-02-12T10:17:46.438Z" agent="Mozilla/5.0 (Windows NT 10.0; Win64; x64) AppleWebKit/537.36 (KHTML, like Gecko) draw.io/24.4.8 Chrome/124.0.6367.207 Electron/30.0.6 Safari/537.36" etag="Enad3DtR3b0jEQSrQoxd" version="24.4.8" type="device">
  <diagram name="Page-1" id="YpRjpjFNsj3qjc1k7l66">
    <mxGraphModel dx="3791" dy="2282" grid="1" gridSize="10" guides="1" tooltips="1" connect="1" arrows="1" fold="1" page="1" pageScale="1" pageWidth="1169" pageHeight="827" math="0" shadow="0">
      <root>
        <mxCell id="0" />
        <mxCell id="1" parent="0" />
        <mxCell id="s1kYgqIjggECkqIjnE60-21" value="GenAI Layer" style="sketch=0;points=[[0,0,0],[0.25,0,0],[0.5,0,0],[0.75,0,0],[1,0,0],[1,0.25,0],[1,0.5,0],[1,0.75,0],[1,1,0],[0.75,1,0],[0.5,1,0],[0.25,1,0],[0,1,0],[0,0.75,0],[0,0.5,0],[0,0.25,0]];rounded=1;absoluteArcSize=1;arcSize=2;html=1;strokeColor=#d6b656;shadow=0;dashed=0;fontSize=12;align=left;verticalAlign=top;spacing=10;spacingTop=-4;whiteSpace=wrap;fillColor=#fff2cc;" parent="1" vertex="1">
          <mxGeometry x="430" y="108.91" width="500" height="631.09" as="geometry" />
        </mxCell>
        <mxCell id="s1kYgqIjggECkqIjnE60-12" value="Streamlit Application" style="sketch=0;points=[[0,0,0],[0.25,0,0],[0.5,0,0],[0.75,0,0],[1,0,0],[1,0.25,0],[1,0.5,0],[1,0.75,0],[1,1,0],[0.75,1,0],[0.5,1,0],[0.25,1,0],[0,1,0],[0,0.75,0],[0,0.5,0],[0,0.25,0]];rounded=1;absoluteArcSize=1;arcSize=2;html=1;strokeColor=none;gradientColor=none;shadow=0;dashed=0;fontSize=12;fontColor=#9E9E9E;align=left;verticalAlign=top;spacing=10;spacingTop=-4;whiteSpace=wrap;fillColor=#FFEBEE;" parent="1" vertex="1">
          <mxGeometry x="-30" y="339" width="200" height="470" as="geometry" />
        </mxCell>
        <mxCell id="s1kYgqIjggECkqIjnE60-8" style="edgeStyle=orthogonalEdgeStyle;rounded=0;orthogonalLoop=1;jettySize=auto;html=1;entryX=1;entryY=0.5;entryDx=0;entryDy=0;" parent="1" source="s1kYgqIjggECkqIjnE60-1" target="s1kYgqIjggECkqIjnE60-7" edge="1">
          <mxGeometry relative="1" as="geometry">
            <Array as="points">
              <mxPoint x="539" y="20" />
              <mxPoint x="540" y="20" />
            </Array>
          </mxGeometry>
        </mxCell>
        <mxCell id="Rb3-9KN84XsQcw-WzDa4-11" style="edgeStyle=orthogonalEdgeStyle;rounded=0;orthogonalLoop=1;jettySize=auto;html=1;entryX=0.002;entryY=0.472;entryDx=0;entryDy=0;entryPerimeter=0;" edge="1" parent="1">
          <mxGeometry relative="1" as="geometry">
            <mxPoint x="538.86" y="172" as="sourcePoint" />
            <mxPoint x="588.9979999999999" y="19.027999999999906" as="targetPoint" />
            <Array as="points">
              <mxPoint x="539" y="20" />
              <mxPoint x="589" y="20" />
            </Array>
          </mxGeometry>
        </mxCell>
        <mxCell id="s1kYgqIjggECkqIjnE60-1" value="Multi-Modal for Image&lt;div&gt;description&lt;/div&gt;" style="sketch=0;points=[[0,0,0],[0.25,0,0],[0.5,0,0],[0.75,0,0],[1,0,0],[0,1,0],[0.25,1,0],[0.5,1,0],[0.75,1,0],[1,1,0],[0,0.25,0],[0,0.5,0],[0,0.75,0],[1,0.25,0],[1,0.5,0],[1,0.75,0]];outlineConnect=0;fontColor=#232F3E;fillColor=#01A88D;strokeColor=#ffffff;dashed=0;verticalLabelPosition=bottom;verticalAlign=top;align=center;html=1;fontSize=12;fontStyle=0;aspect=fixed;shape=mxgraph.aws4.resourceIcon;resIcon=mxgraph.aws4.bedrock;" parent="1" vertex="1">
          <mxGeometry x="500" y="172" width="78" height="78" as="geometry" />
        </mxCell>
        <mxCell id="s1kYgqIjggECkqIjnE60-32" style="edgeStyle=orthogonalEdgeStyle;rounded=0;orthogonalLoop=1;jettySize=auto;html=1;" parent="1" source="s1kYgqIjggECkqIjnE60-3" target="s1kYgqIjggECkqIjnE60-28" edge="1">
          <mxGeometry relative="1" as="geometry" />
        </mxCell>
        <mxCell id="s1kYgqIjggECkqIjnE60-33" value="Call Lambda Function Tool" style="edgeLabel;html=1;align=center;verticalAlign=middle;resizable=0;points=[];" parent="s1kYgqIjggECkqIjnE60-32" vertex="1" connectable="0">
          <mxGeometry x="-0.1421" y="2" relative="1" as="geometry">
            <mxPoint as="offset" />
          </mxGeometry>
        </mxCell>
        <mxCell id="s1kYgqIjggECkqIjnE60-3" value="AIConsistencyAgent" style="sketch=0;points=[[0,0,0],[0.25,0,0],[0.5,0,0],[0.75,0,0],[1,0,0],[0,1,0],[0.25,1,0],[0.5,1,0],[0.75,1,0],[1,1,0],[0,0.25,0],[0,0.5,0],[0,0.75,0],[1,0.25,0],[1,0.5,0],[1,0.75,0]];outlineConnect=0;fontColor=#232F3E;fillColor=#01A88D;strokeColor=#ffffff;dashed=0;verticalLabelPosition=bottom;verticalAlign=top;align=center;html=1;fontSize=12;fontStyle=0;aspect=fixed;shape=mxgraph.aws4.resourceIcon;resIcon=mxgraph.aws4.bedrock;" parent="1" vertex="1">
          <mxGeometry x="650" y="240" width="78" height="78" as="geometry" />
        </mxCell>
        <mxCell id="s1kYgqIjggECkqIjnE60-4" value="AWSArchitectureValidationAgent" style="sketch=0;points=[[0,0,0],[0.25,0,0],[0.5,0,0],[0.75,0,0],[1,0,0],[0,1,0],[0.25,1,0],[0.5,1,0],[0.75,1,0],[1,1,0],[0,0.25,0],[0,0.5,0],[0,0.75,0],[1,0.25,0],[1,0.5,0],[1,0.75,0]];outlineConnect=0;fontColor=#232F3E;fillColor=#01A88D;strokeColor=#ffffff;dashed=0;verticalLabelPosition=bottom;verticalAlign=top;align=center;html=1;fontSize=12;fontStyle=0;aspect=fixed;shape=mxgraph.aws4.resourceIcon;resIcon=mxgraph.aws4.bedrock;" parent="1" vertex="1">
          <mxGeometry x="780" y="310" width="78" height="78" as="geometry" />
        </mxCell>
        <mxCell id="s1kYgqIjggECkqIjnE60-5" value="DeliveryMilestonesValidationAgent" style="sketch=0;points=[[0,0,0],[0.25,0,0],[0.5,0,0],[0.75,0,0],[1,0,0],[0,1,0],[0.25,1,0],[0.5,1,0],[0.75,1,0],[1,1,0],[0,0.25,0],[0,0.5,0],[0,0.75,0],[1,0.25,0],[1,0.5,0],[1,0.75,0]];outlineConnect=0;fontColor=#232F3E;fillColor=#01A88D;strokeColor=#ffffff;dashed=0;verticalLabelPosition=bottom;verticalAlign=top;align=center;html=1;fontSize=12;fontStyle=0;aspect=fixed;shape=mxgraph.aws4.resourceIcon;resIcon=mxgraph.aws4.bedrock;" parent="1" vertex="1">
          <mxGeometry x="650" y="599.9999999999999" width="78" height="78" as="geometry" />
        </mxCell>
        <mxCell id="s1kYgqIjggECkqIjnE60-30" style="edgeStyle=orthogonalEdgeStyle;rounded=0;orthogonalLoop=1;jettySize=auto;html=1;" parent="1" source="s1kYgqIjggECkqIjnE60-6" target="s1kYgqIjggECkqIjnE60-28" edge="1">
          <mxGeometry relative="1" as="geometry" />
        </mxCell>
        <mxCell id="s1kYgqIjggECkqIjnE60-35" value="Call Lambda&amp;nbsp;&lt;div&gt;Function Tool&lt;/div&gt;" style="edgeLabel;html=1;align=center;verticalAlign=middle;resizable=0;points=[];" parent="s1kYgqIjggECkqIjnE60-30" vertex="1" connectable="0">
          <mxGeometry x="-0.5371" y="3" relative="1" as="geometry">
            <mxPoint x="9" y="3" as="offset" />
          </mxGeometry>
        </mxCell>
        <mxCell id="s1kYgqIjggECkqIjnE60-6" value="RiskComplianceAgent" style="sketch=0;points=[[0,0,0],[0.25,0,0],[0.5,0,0],[0.75,0,0],[1,0,0],[0,1,0],[0.25,1,0],[0.5,1,0],[0.75,1,0],[1,1,0],[0,0.25,0],[0,0.5,0],[0,0.75,0],[1,0.25,0],[1,0.5,0],[1,0.75,0]];outlineConnect=0;fontColor=#232F3E;fillColor=#01A88D;strokeColor=#ffffff;dashed=0;verticalLabelPosition=bottom;verticalAlign=top;align=center;html=1;fontSize=12;fontStyle=0;aspect=fixed;shape=mxgraph.aws4.resourceIcon;resIcon=mxgraph.aws4.bedrock;" parent="1" vertex="1">
          <mxGeometry x="780" y="501" width="78" height="78" as="geometry" />
        </mxCell>
        <mxCell id="s1kYgqIjggECkqIjnE60-7" value="" style="shape=image;verticalLabelPosition=bottom;labelBackgroundColor=default;verticalAlign=top;aspect=fixed;imageAspect=0;image=data:image/png,iVBORw0KGgoAAAANSUhEUgAAB9AAAAWFCAYAAABR5EwUAAAAGXRFWHRTb2Z0d2FyZQBBZG9iZSBJbWFnZVJlYWR5ccllPAAAoApJREFUeNrswQEBAAAAgJD+r+4ICgAAAAAAAAAAAAAAAAAAAAAAAAAAAAAAAAAAAAAAAAAAAAAAAAAAAAAAAAAAAAAAAAAAAAAAAAAAAAAAAAAAAAAAAAAAAAAAAAAAAAAAAAAAAAAAAAAAAAAAAAAAAAAAAAAAAAAAAAAAAAAAAAAAAAAAAAAAAAAAAAAAAAAAAAAAAAAAAAAAAAAAAAAAAAAAAAAAAAAAAAAAAAAAAAAAAAAAAAAAAAAAAAAAAAAAAAAAAAAAAAAAAAAAAAAAAAAAAAAAAAAAAAAAAAAAAAAAAAAAAAAAAAAAAAAAAAAAAAAAAAAAAAAAAAAAAAAAAAAAAAAAAAAAAAAAAAAAAAAAAAAAAAAAAAAAAAAAAAAAAAAAAAAAAAAAAAAAAAAAAAAAAAAAAAAAAAAAAAAAAAAAAAAAAAAAAAAAAAAAAAAAAAAAAAAAAAAAAAAAAAAAAAAAAAAAAAAAAAAAAAAAAAAAAAAAAAAAAAAAAAAAAAAAAAAAAAAAAAAAAAAAAAAAAAAAAAAAAAAAAAAAAAAAAAAAAAAAAAAAAAAAAAAAAAAAAAAAAAAAAAAAAAAAAAAAAAAAAAAAAAAAAAAAAAAAAAAAAAAAAAAAAAAAAAAAAAAAAAAAAAAAAAAAAAAAAAAAAAAAAAAAAAAAAAAAAAAAAAAAAAAAAAAAAAAAAAAAAAAAAAAAAAAAAAAAAAAAAAAAAAAAAAAAAAAAAAAAAAAAAAAAAAAAAAAAAAAAAAAAAAAAAAAAAAAAAAAAAAAAAAAAAAAAAAAAAAAAAAAAAAAAAAAAAAAAAAAAAAAAAAAAAAAAAAAAAAAAAAAAAAAAAAAAAAAAAAAAAAAAAAAAAAAAAAAAAAAAAAAAAAAAAAAAAAAAAAAAAAAAAAAAAAAAAAAAAAAAAAAAAAAAAAAAAAAAAAAAAAAAAAAAAAAAAAAAAAAAAAAAAAAAAAAAAAAAAAAAAAAAAAAAAAAAAAAAAAAAAAAAAAAAAAAAAAAAAAAAAAAAAAAAAAAAAAAAAAAAAAAAAAAAAAAAAAAAAAAAAAAAAAAAAAAAAAAAAAAAAAAAAAAAAAAAAAAAAAAAAAAAAAAAAAAAAAAAAAAAAAAAAAAAAAAAAAAAAAAAAAAAAAAAAAAAAAAAAAAAAAAAAAAAAAAAAAAAAAAAAAAAAAAAAAAAAAAAAAAAAAAAAAAAAAAAAAAAAAAAAAAAAAAAAAAAAAAAAAAAAAAAAAAAAAAAAAAAAAAAAAAAAAAAAAAAAAAAAAAAAAAAAAAAAAAAAAAAAAAAAAAAAAAAAAAAAAAAAAAAAAAAAAAAAAAAAAAAAAAAAAAAAAAAAAAAAAAAAAAAAAAAAAAAAAAAAAAAAAAAAAAAAAAAAAAAAAAAAAAAAAAAAAAAAAAAAAAAAAAAAAAAAAAAAAAAAAAAAAAAAAAAAAAAAAAAAAAAAAAAAAAAAAAAAAAAAAAAAAAAAAAAAAAAAAAAAAAAAAAAAAAAAAAAAAAAAAAAAAAAAAAAAAAAAAAAAAAAAAAAAAAAAAAAAAAAAAAAAAAAAAAAAAAAAAAAAAAAAAAAAAAAAAAAAAAAAAAAAAAAAAAAAAAAAAAAAAAAAAAAAAAAAAAAAAAAAAAAAAAAAAAAAAAAAAAAAAAAAAAAAAAAAAAAAAAAAAAAAAAAAAAAAAAAAAAAAAAAAAAAAAAAAAAAAAAAAAAAAAAAAAAAAAAAAAAAAAAAAAAAAAAAAAAAAAAAAAAAAAAAAAAAAAAAAAAAAAAAAAAAAAAAAAAAAAAAAAAAAAAAAAAAAAAAAAAAAAAAAAAAAAAAAAAAAAAAAAAAAAAAAAAAAAAAAAAAAAAAAAAAAAAAAAAAAAAAAAAAAAAAAAAAAAAAAAAAAAAAAAAAAAAAAAAAAAAAAAAAAAAAAAAAAAAAAAAAAAAAAAAAAAAAAAAAAAAAAAAAAAAAAAAAAAAAAAAAAAAAAAAAAAAAAAAAAAAAAAAAAAAAAAAAAAAAAAAAAAAAAAAAAAAAAAAAAAAAAAAAAAAAAAAAAAAAAAAAAAAAAAAAAAAAAAAAAAAAAAAAAAAAAAAAAAAAAAAAAAAAAAAAAAAAAAAAAAAAAAAAAAAAAAAAAAAAAAAAAAAAAAAAAAAAAAAAAAAAAAAAAAAAAAAAAAAAAAAAAAAAAAAAAAAAAAAAAAAAAAAAAAAAAAAAAAAAAAAAAAAAAAAAAAAAAAAAAAAAAAAAAAAAAAAAAAAAAAAAAAAAAAAAAAAAAAAAAAAAAAAAAAAAAAAAAAAAAAAAAAAAAAAAAAAAAAAAAAAAAAAAAAAAAAAAAAAAAAAAAAAAAAAAAAAAAAAAAAAAAAAAAAAAAAAAAAAAAAAAAAAAAAAAAAAAAAAAAAAAAAAAAAAAAAAAAAAAAAAAAAAAAAAAAAAAAAAAAAAAAAAAAAAAAAAAAAAAAAAAAAAAAAAAAAAAAAAAAAAAAAAAAAAAAAAAAAAAAAAAAAAAAAAAAAAAAAAAAAAAAAAAAAAAAAAAAAAAAAAAAAAAAAAAAAAAAAAAAAAAAAAAAAAAAAAAAAAAAAAAAAAAAAAAAAAAAAAAAAAAAAAAAAAAAAAAAAAAAAAAAAAAAAAAAAAAAAAAAAAAAAAAAAAAAAAAAAAAAAAAAAAAAAAAAAAAAAAAAAAAAAAAAAAAAAAAAAAAAAAAAAAAAAAAAAAAAAAAAAAAAAAAAAAAAAAAAAAAAAAAAAAAAAAAAAAAAAAAAAAAAAAAAAAAAAAAAAAAAAAAAAAAAAAAAAAAAAAAAAAAAAAAAAAAAAAAAAAAAAAAAAAAAAAAAAAAAAAAAAAAAAAAAAAAAAAAAAAAAAAAAAAAAAAAAAAAAAAAAAAAAAAAAAAAAAAAAAAAAAAAAAAAAAAAAAAAAAAAAAAAAAAAAAAAAAAAAAAAAAAAAAAAAAAAAAAAAAAAAAAAAAAAAAAAAAAAAAAAAAAAAAAAAAAAAAAAAAAAAAAAAAAAAAAAAAAAAAAAAAAAAAAAAAAAAAAAAAAAAAAAAAAAAAAAAAAAAAAAAAAAAAAAAAAAAAAAAAAAAAAAAAAAAAAAAAAAAAAAAAAAAAAAAAAAAAAAAAAAAAAAAAAAAAAAAAAAAAAAAAAAAAAAAAAAAAAAAAAAAAAAAAAAAAAAAAAAAAAAAAAAAAAAAAAAAAAAAAAAAAAAAAAAAAAAAAAAAAAAAAAAAAAAAAAAAAAAAAAAAAAAAAAAAAAAAAAAAAAAAAAAAAAAAAAAAAAAAAAAAAAAAAAAAAAAAAAAAAAAAAAAAAAAAAAAAAAAAAAAAAAAAAAAAAAAAAAAAAAAAAAAAAAAAAAAAAAAAAAAAAAAAAAAAAAAAAAAAAAAAAAAAAAAAAAAAAAAAAAAAAAAAAAAAAAAAAAAAAAAAAAAAAAAAAAAAAAAAAAAAAAAAAAAAAAAAAAAAAAAAAAAAAAAAAAAAAAAAAAAAAAAAAAAAAAAAAAAAAAAAAAAAAAAAAAAAAAAAAAAAAAAAAAAAAAAAAAAAAAAAAAAAAAAAAAAAAAAAAAAAAAAAAAAAAAAAAAAAAAAAAAAAAAAAAAAAAAAAAAAAAAAAAAAAAAAAAAAAAAAAAAAAAAAAAAAAAAAAAAAAAAAAAAAAAAAAAAAAAAAAAAAAAAAAAAAAAAAAAAAAAAAAAAAAAAAAAAAAAAAAAAAAAAAAAAAAAAAAAAAAAAAAAAAAAAAAAAAAAAAAAAAAAAAAAAAAAAAAAAAAAAAAAAAAAAAAAAAAAAAAAAAAAAAAAAAAAAAAAAAAAAAAAAAAAAAAAAAAAAAAAAAAAAAAAAAAAAAAAAAAAAAAAAAAAAAAAAAAAAAAAAAAAAAAAAAAAAAAAAAAAAAAAAAAAAAAAAAAAAAAAAAAAAAAAAAAAAAAAAAAAAAAAAAAAAAAAAAAAAAAAAAAAAAAAAAAAAAAAAAAAAAAAAAAAAAAAAAAAAAAAAAAAAAAAAAAAAAAAAAAAAAAAAAAAAAAAAAAAAAAAAAAAAAAAAAAAAAAAAAAAAAAAAAAAAAAAAAAAAAAAAAAAAAAAAAAAAAAAAAAAAAAAAAAAAAAAAAAAAAAAAAAAAAAAAAAAAAAAAAAAAAAAAAAAAAAAAAAAAAAAAAAAAAAAAAAAAAAAAAAAAAAAAAAAAAAAAAAAAAAAAAAAAAAAAAAAAAAAAAAAAAAAAAAAAAAAAAAAAAAAAAAAAAAAAAAAAAAAAAAAAAAAAAAAAAAAAAAAAAAAAAAAAAAAAAAAAAAAAAAAAAAAAAAAAAAAAAAAAAAAAAAAAAAAAAAAAAAAAAAAAAAAAAAAAAAAAAAAAAAAAAAAAAAAAAAAAAAAAAAAAAAAAAAAAAAAAAAAAAAAAAAAAAAAAAAAAAAAAAAAAAAAAAAAAAAAAAAAAAAAAAAAAAAAAAAAAAAAAAAAAAAAAAAAAAAAAAAAAAAAAAAAAAAAAAAAAAAAAAAAAAAAAAAAAAAAAAAAAAAAAAAAAAAAAAAAAAAAAAAAAAAAAAAAAAAAAAAAAAAAAAAAAAAAAAAAAAAAAAAAAAAAAAAAAAAAAAAAAAAAAAAAAAAAAAAAAAAAAAAAAAAAAAAAAAAAAAAAAAAAAAAAAAAAAAAAAAAAAAAAAAAAAAAAAAAAAAAAAAAAAAAAAAAAAAAAAAAAAAAAAAAAAAAAAAAAAAAAAAAAAAAAAAAAAAAAAAAAAAAAAAAAAAAAAAAAAAAAAAAAAAAAAAAAAAAAAAAAAAAAAAAAAAAAAAAAAAAAAAAAAAAAAAAAAAAAAAAAAAAAAAAAAAAAAAAAAAAAAAAAAAAAAAAAAAAAAAAAAAAAAAAAAAAAAAAAAAAAAAAAAAAAAAAAAAAAAAAAAAAAAAAAAAAAAAAAAAAAAAAAAAAAAAAAAAAAAAAAAAAAAAAAAAAAAAAAAAAAAAAAAAAAAAAAAAAAAAAAAAAAAAAAAAAAAAAAAAAAAAAAAAAAAAAAAAAAAAAAAAAAAAAAAAAAAAAAAAAAAAAAAAAAAAAAAAAAAAAAAAAAAAAAAAAAAAAAAAAAAAAAAAAAAAAAAAAAAAAAAAAAAAAAAAAAAAAAAAAAAAAAAAAAAAAAAAAAAAAAAAAAAAAAAAAAAAAAAAAAAAAAAAAAAAAAAAAAAAAAAAAAAAAAAAAAAAAAAAAAAAAAAAAAAAAAAAAAAAAAAAAAAAAAAAAAAAAAAAAAAAAAAAAAAAAAAAAAAAAAAAAAAAAAAAAAAAAAAAAAAAAAAAAAAAAAAAAAAAAAAAAAAAAAAAAAAAAAAAAAAAAAAAAAAAAAAAAAAAAAAAAAAAAAAAAAAAAAAAAAAAAAAAAAAAAAAAAAAAAAAAAAAAAAAAAAAAAAAAAAAAAAAAAAAAAAAAAAAAAAAAAAAAAAAAAAAAAAAAAAAAAAAAAAAAAAAAAAAAAAAAAAAAAAAAAAAAAAAAAAAAAAAAAAAAAAAAAAAAAAAAAAAAAAAAAAAAAAAAgNm7e6w4km1hoHnvei6r9EZwqy1MoRGoNIKLLEwVI5CwMIVMLOgRQJtYokeg0ghEm1hdPYInlgbwfXlEVKtEI0FBVWVE5N5r5UN9X7fIjMifyDxxTgAAAAAAAAAAAAAAAAAAAJ253N/Z0goAAAAAAACU5l+aAFiGFDR/1W7b7TZM//Pndrtot2m7/ZV+xnaxeXj2WasBAAAAAACQEwF04MF+EDRfRATXI5D+Mf3zpBFcBwAAAAAAoCMC6MCDpOD5h3Z7suS/OoLnLzYPzy60MgAAAAAAAOv0b00ALOpyfyeC5ifN8oPnTfo7P7S/Y6SlAQAAAAAAWCcBdOAhjtpta4V//yyIPtbUAAAAAAAArIsS7sBCUlD7ZI2/8njz8GxPy6+kL2eVBGIyxLu2nU+1CgAAAAAA0GcC6MC9Xe7vDNsfn5rVlG7/mdPNw7NdPbDUvtxu/lmGf9puv6b2/qyVAAAAAACAvhFAB+7tcn8ngudbHf16QfTl9OEs63z7J/9aBM8jkH4skA4AAAAAAPSJADpwL5f7O7Hu+ZsOdyECub8I6D6qD2/LOr+rzQXSAQAAAACA3hBAB+6UAq/vM9iVvc3Ds2M9snD/3Sfr/GcieP6sbfup1gQAAAAAAGr2b00A/Exa9/wkk915rUcW7r+oGvBn8/DgeYgA/HutCQAAAAAA1E4AHbjLIiW/V214ub8z1iV3i4kP7fah/ePRkvpvq/37DrQsAAAAAABQMwF04IdSwHSU2W690jN39lsEzD+toO/etn/3lhYGAAAAAABqJYAO3Opyf2fU/nib4a6NBHHvNG5WVzXgJAXoAQAAAAAAqiOADvxDCpDmvOa1tdC7a5+YvPBWEwMAAAAAADUSQAduE8HznLOMx7HGt276p7Zdttsfq26bN6lCAQAAAAAAQFUE0IHvXO7vjJv81j2/zVhv3Wpda8S/V8odAAAAAACojQA6cNOwkP1Uxv2GlJW/vaZfF8HzE60OAAAAAADURAAdKNWTlC3PN+ueVLCtDwAAAAAAgJoIoAMle6sJvjPu4He+0uwAAAAAAEAtBNCBmz4XtK/Dy/2dkS77e+16a5IDAAAAAAA8ggA6cNNFYftrLfRrXWWCf9T0AAAAAABALQTQgZumhe1vrMM97HOHtce/1f4YOV8AAAAAAAAeRwAd+M7m4dm0wN3u+1roXWbhT101AAAAAABALQTQgdtMCtvfyELv5frf6bi3O9yFC5cLAAAAAABQCwF04DalBUUjiDzuaV9tp+PvxObh2WeXCwAAAAAAUAsBdOA2Hwvc59c97athh7974lIBAAAAAABqIoAO3KbEstzDy/2dcQ/76mmHv3vqUgEAAAAAAGoigA78w+bh2bQpM4j+qofd1eXa73+5WgAAAAAAgJoIoAM/Milwn0eX+zujnvXTsMPffeEyAQAAAAAAaiKADvzIx0L3u29Z6MMOf/fUZQIAAAAAANREAB241ebh2Xmhuz6+3N8Z6sG1nCMy0AEAAAAAgKoIoAM/Myl0v9/2oXM6Llc/dXkAAAAAAAC1+R9NAPzE7+02KnC/ty/3d/Y2D88+68KVmWoCAGBZBoONJzGGa7fnzeJL1Px2dfXlVCsCAPRmzPjfdntizAjAqgigAz8zKXS/YwD9pt0OKu+frQ5/90eXBwDwGIPBxrD59gF09Ii/6netCQBQ7ZhxK40VXzWP+xb2q9YE4L4E0IEfijWuL/d3Iov7SYG7H4Pqg8q7qMt+kd0PACxsMNgYNdcB8wicD5f0115oWQCAqsaMs8pEyxwz+pYFwL0JoAN3OW+3cYH7Pbzc3xlvHp6d1vw+0eHv9qEaALh7sPJ9afb4+USrAADwgzHjrDKRMSMAnRJAB+7yrin3Y+fbdjutuG+6LOEugA4A3GqJpdkBAKh3zLis0uwAsHT/1gTAz2wenk2bctcIiiz0kV5cyXmh7BUA8Lf4ANpuR+32Z/uPsR01gucAAHw/ZtyeGzN+SmPGdQXPp3oAgPuSgQ7cafPw7OByf+e/TZmzQSMLfVJp13RVFWDSp/O/PfejnU8e0d4x2WDXpAMAapLKbI6ab+uZd1at6Orqy0SPAABkO2bMojR7O2ac6hEA7ksAHbivvXb7UOB+jy73d4Ypk742XU1o6M0LR3vubKXz/skS2mzPbQSYSR+Stm65ry/jfvOP+7QAI0s6b4fN9+uZAwDAzTGj0uwAFE8AHbiXzcOzyeX+znH7xzcF7n5koe/qxaX5qw8H2Z7v4+Y683wZ3rR/3+9xHTl9oG4pwBjbfID8efo5+/91sV/z/xgVMS7m/vxH+vM0bQLuzJ87cR7Hx89R4wMoAAC3jxnnJ1kOtQgApfuXJgDuK5WyjjWKnhS4+7/UlIWe+uL/Ovr1L9u2PK/8XI/A+XjJf22cf8+Ucoc6DAYbo+ZbQPx5833AvCaT9PPj3D9PlT+s+tzOpjT7fbXno/daAID1jxmzKM1+T5/bMeP/6jkA7ksGOnBvEfi73N+JTO73Be7+uN0OKuqOLoM001rP8Sj3n87vVbRv/N1RDUEpdyhIyijfStvT9HPYoyYY3fj5NrVL/LhIz4Q/Zn++uvpy4awp9jwvtTS7cw4AYD1jxpJLsxszArAQM/WBhV3u73xovn1IL0Vk/f5SS/Zv2wfR/p2sSd+24b8qPa+jTSN4vupZ09Vn8EPJUmZ5fAx63vQvWL4sk+b6A9XXwLqgerbnei2l2SftOfZCjwIArOz9aFaZqOR3I2NGABYiAx14iMhC/9SUVcp9VlrqtJI+6OqlZVrjCb3k9c7vctL+volS7pCH9EEotudNeZPDcjWab8uUrT5prsvARzA9Pl65B67/XC+uNDsAAJ2MGecrExkzAtBLAujAwmIt8cv9nV+bVMa1ILG/p5V0w7Cj3zut7Xxec/C8SS+f8fteupvA+hVeqrpko+b7oPrXQHpzHVQXUHe+AwDQ/Zjxv41JxQDw1b81AfAQm4dnB0156wcNU7CUh/tY08F0EDyf2W5/t0AGrEmUqm63o3b7s/3H2I4awcSuRcnwN8310hn/1/bNp3Y7SBUBWM75/qkn5/tUrwMALDxmHN3yjlTzWPyjXgdgETLQgcfYazpah/sRYq3P0wra/j8d/d5qMgQ7DJ7PKOUOKzQYbMwyKJQdLMNW2t62fRf3xfPm+iPXuez0O8/1vpdm/8tZAABwrzGj0uwAcE8y0IEH2zw8m7Q/jgvb7dHl/s6oguYfdvR7L2o4d9M5cNLxbjzJYB+gKnOZt//XXGc2jxsfhkr0JPVd3CMjO/19u43TRz+uz/Vhu72Jtok2cr4DAPCTMeOHNGY8MWYEgPsRQAce611TXlbyK932YMUH0C/3dyLD8X0mu6OUOzzS3EehKDsYJaujLLgPQnWJ+6Rg+rdzPtrCUgQAAPxszPi+6UdpdgBYCQF04FFS+em9wnZ7fLm/Myy86bvY/8+llxtPwfOYeZ1T4CVKuQv2wYKiRPuNj0JDrdILN4PpfQwgO9dvjE80AQDAP/jO8L0LTQDAIgTQgUfbPDw7bX9MCtvt14U3+9DLxmIyDZ7PXmqVcod7SNnmBynbPILnsm/7Lfo/guj/l0r3DzVJL/kYCgDAXUy6BGAhAujAspSYhW427mKmpe546uscg+czSrnDT6S1zWdlq982MnD5Xtzbo3T/n7G+Y5R41yQAAAAAPJQAOrAUm4dnkf1zWtAuzz62FydlUnfhj0LbK/fg+YxS7nDDYLAxioBoc722+ViLcA+juJ+mrPQDWekAAAAALEoAHVimyEIvqSTSq0Lbuasga3ElUueC51uF9KtS7tB8DZyPU5n2uH5HWoQH3lOjWkFkpZ8IpAMAQK9NNQEAixBAB5Zm8/AsgufvCtrl4eX+zljP3bt/JyXtb2HB87/PSWcafTYXOD9xPbBE8ayflXcfaY66XF19mWgFAADuGDNOtQIAixBAB5Zq8/DsuClrVufrApu5i4DwRYHtVFrwPEzcRegjgXPWZBTPBoF0AAAAAH5GAB1Yhd2C9nXrcn9nVFj7dlHCvagAetunEYTbKvDa+d3tgz6ZW+Nc4Jx1iue+QDoAAAAAtxJAB5YulfqeFLTLb/Xanf4qZUdT8HxcYBt/Lq1MPjxUrEedAufWOKdLce6VGEif6joAAO7wWRNoCwAeTgAdWJWSstBHl/s7w4L292kHv3NSQsO0/XjQlBk8D+duG9RuMNh40m5H7R+jXPtIi5DLOKC5DqSfxOSO3Hf26upLjLFeNJb9CBeaAADg1jHjy+b625wxozEjAA8ggA6sxObh2bT98a6gXS4pC10J91tc7u+Mm7KrCXx056Bmsc55cx04f6M1yNTXc7Q9Vw9iskfOO3p19WXSbhFEf9Zupz3uM9lEAAA/HjOepjGjyZcAsCABdGCVjptyPmyOL/d3tnTZraabh2dZ92Pbd9vN9RrKJZOBTpUGg42tuXXOn2gRChCTsf5Mkz6ydnX15SJlpP/SXAfSBZQBALg5ZpxNvpyNGQGAOwigAyuTgq57Be3yUSH7OVrz78s6+zxNfCg9eH6R+yQFWFQq137Q/vFTo1z7Q0yb6ywR5Qa7EZM9TtL66NlPsLu6+jKdC6RHBSDPFAAAfjZmPDVmBIAf+x9NAKzS5uHZ6eX+zqumjOBJrIU+avd5oue+80euO5aC55HZWnpW6+9OM2oyGGzEPT8mtgy1xt+lEmfLNEzTFj5HBvES2npmK90PB3N/Vl3lkWODdvvUtnNU1XnX9lfWHxnT/h2k/R2322vXIQAAN8aM8T6y244ZI+nlTRozqhYGAHME0GGFLvd3Zh+uP28envU5gywyoUaF7GuUbZ04e78zyfj6qqUktPLtVCGtGx330b6tcx5By3jOR5B8mraLdQRboxzjXffrtl+GzXUQNcYkT9OfR87YhcQ5HcuF/FLCzqZzL4Lox6kU/dtGIB0AgH+OGWeTL7eNGQHgm39pAliNFNyLzNjbMr/iI/v8R/WPc3+eNtflnC8qa48IdI4L2d0XuWahR4Z8Oq/W6Ze2PaYFXV+liTXmf2mgcKnM9fumHx9c4hk9Sc/vi5TBUWKfjdJ99Hn6OXQm/1zb1/8q+BqN/o6PoqOKumS2nicAAMsZM46b+gLpxowALEwGOqzAPYJ7N//30S1/RwTYJ+32ayUlxSMLPWazlpAtLAv9m8+5Bc+Tk6aessTONYqX1jp/W/Ehxn0wKkVEwHySexnv+0rZ67Edp37cSmOS5+mZTUVm/Z0C6a/1MQAAt4wZT9sfp5VOvgSAe/u3JoCVOGoeH9yLQHN82Pxwub9zUHqDpCDsr4Xs7ihlenOdZZmVVM2gpo/+1j+nWFEavN1iwliNwfO4/8WagL9cXX2Jba/dzmsJnt8m1mNvt+N2e9n+4/+2W/w8bb6vmtP3c35UQT9PUh//kvoXAABuGzNG1vYLY0YA+kgAHZZsRaXK37Z/74eU2V6szcOzg+Y6i68EuQaDRmv+fR8zu74OmnKWAriviTsnJRoMNmIiy6emroyE+aD5sxRMnvaxf2OiQJowsNtcB1rj57kzv6o+ns71b1QKMlECAICbY8bJ3JjxVIsA0BcC6LBEl/s7kXk+XtFfP2q3T+3vKL1s9V4h+ykL/dpFRtdXXFu1ZblONg/PBCwozmCwEc+7WO/8SQWHE9dglDB/1veg+Y+kYPrpXNayYGtd/RuB9AN9CwDAHWNGky8B6A0BdFiSFNx7s+JfM2yug+hvSm2nzcOzyF6bFLK7OQZrB2v+fReZXF+j5nrd89oo305RBoONJ6lk+5sKDmfaXGdVz8qzX+jhu82Cre32v6n9plqlmr79PNe3rgcAAH74PtBcB9IBoFoC6LAEKXi+zuDeUZSKL7ik+24h+xlZ6Lmttb3WCgRp7fqur69hc53pWiPlkCnGYLAR958aSrZP2u1FWtf8tOY1zVcttd+svPtUi1TFdQEAwM/eBYwXAaiaADo8UoeZseN2+1BiSfcUlD0uZHePenx6TzK4vmKSSC1lov/RvjlMUID7GAw2vj5zmutKKCXf0yJwHttEry6PQDoAAAAANRFAh0dIwesuM2Pj939IGfClKWW9pGFm7bvOQHIO5VuPmjVn3a/JtN1euotSgsFg46C5nihW6kSWuJcJnK/BXCC95jURt/Q0AAAAQN0E0OGBUvA8svG6DijE749y7kVlSm8ensWH9XeF7G5Oa6Gv88P9Hx1fY7HG8rjC20ec+y/TNQBZGww2TjK7By56re1eXX15JnC+XnNrIp5WeHhP9DAAAABA3QTQ4eEioJDTR9Q3l/s7n9J60UXYPDyLMu4XBezqsNAs/8fqrG/S0gi1ls/fa8/9iwYyNhhsPGm3mCRW6r0vni9f1zjXm92INRHbLUq6v2iUdQcAAACgIALo8HA5ZiBFdvKnFHwsxV4h+9l5Bua617vvKsibJoG8b+p03LbrqdsnOYvgeXNdYWVU4O7HfSsyzvcigKs3u5ey/58115MaAAAAACB7AujwcB8z3a+vgY/L/Z2DEhpx8/Bs0v44L2BXc8hCX+ekjUkXB9i2cRzj+6bOErkX7fm+10DGBoONYXMdPC9xned3qVy7Cg+ZSdnocf972dS7NjoAAAAAlRBAh4ebZr5/by/3dz6kgGTu4qN6CR/Uu85CH/bg/I6y7VtNfeL8fuG2Sc4Gg42vVUwKvAZnWecHejFvbR/FhLlnTRnLtwAAAADQUwLo8HDTAvZx1FyXdM86GLJ5eBZt+WsB7dl1Fvpwjb/rj3UfXNu2b5py11u+y4v2PJd1SbZS8Dwyz0ur/nAa15es83K0fTWNSgGp70r0VC8CAAAA1E0AHR6ulI/1w+Y6iD7OfD9jbdRpAe3ZZRb6oNbzuz0/R8119nmN9rpaTx7udWMpN3i+e3X1Zdda52WKvos+LHDXn+g9AAAAgLoJoMMDpWzSkj7an1zu75zkWtI9tee7Atpx2OH68ltr7I/Jun5X257D5nrd8xqdtm157I5JrgoNnsfzIkq2n+rBsqU+tC46AAAAAFkRQIfHKS2rdNxuH1LAMjubh2en7Y9JAe34upC15bM/r1M7RvD8SaXtuOc2Sa4KDZ7HdfWLku31SOuiv2gE0QEAAADIhAA6PE6JH/AjYBIl3bcz3b8SAo4RbHrTwe8dVXheHzVrzKxfowgEvbTuObkqNHg+aa7XO3ddVSZNiBBEBwAAACALAujwOFeF7vfXrN/L/Z3s1pxOa0WfFtCGNWeh/7WOX9K2X0xCGFfahhE8n7pFkqPBYCPuXSdNWcHz06urL4LnNQ+oBNEBAAAAyIQAOjzOpPD9f3O5v/Mhw0BwZKHn/gF9rVnobR9t1XRet8czaq6zz2v0bp1ryMMiUvA8Ms9LqvwQwfNdvVe/QoLoQz0FAAAAUDcBdHicaQXHMGq3P9ccoP2pVPb6XQFtt84s9HVOclhpCfe2zYbN9brnNTpvz98Dt0YyJnhO1goIog/1EgAAAEDdBNDhESoq0RzB2U+ppHYubXvc5D9BYZ1Z6MM1/Z7pKtftThMO3jdllY6+rwj6CPSRrcFgI8q2C56TvbkgOgAAAACsnQA6PN6komM5utzfOcmopPteAW22riz04ZqO52LV51hTVgDvvmLSwe4qJx/AYwwGG3HtjQvaZcHznktBdOcAAAAAAGsngA6PV1vAbNxuH3Io6b55eHbe5D9BYV1Z6P9Z0/H8saq/OFU4GFd6H4jg+UUDGRoMNsbN+qplLMOF4DmhPQ9OmzKWdAEAAACgIgLo8Hi/V3hMETyPIPo4g30pZS304Yp/x3BNxzJZxV/ats+ouc4+r9FxmuwB2RkMNuJ+flLQLivdzXeurr4ctD9OtQQAAAAA6yKADo+0eXh22tT5YTcyq6Oc+1HH7TspoH2jrd6u4Xesw3TZf2GaXPC+0lvApD1H9xrI0GCwEfeNDwXtclR0eXl19cVSCNwU99mLzK4tAAAAAColgA7LkdWH3SV7c7m/86njddFLyEIfrzgLfR0l9T9vHp5Nl/kXpvMmguc1BhuirV66/ZGxD4Vdey+urr5MdRs3pUkVUdY/l8kVW3oFAAAAoF4C6LAEm4dnX7PmmvrWQ5+JD8V/pjLcXbTvtCkjiP628H5exSSQo6beQMPLdO1DdgaDjZPCrr3dq6svF3qOH0nnh4ofAAAAAKycADosSQry1pyN+rUU8OX+zpuOfv9xk/8EhZVkoa9x4sLHJe93nCvjSq+HvfaaF+wjS4PBxriwa+/06urLqZ7jLuk8ca4AAAAAsFIC6LBEab3ud5Uf5tHl/s77dZd0T5m+stBXa2kB4RT0P6r0Gjhtz8djdzxyNBhsbBV27ckqZlFxvkw1AwAAAACrIoAOS7Z5eHbQ/jiv/DC32y3WRd9ac9tG0HKaedusIgt9Xe28lLZNx/++0nNfsI9sDQYbMbEpSreXtO75blrfGu5lbj10AAAAAFgJAXRYjfiwe1r5MQ6b65Lu4zX/3j5moa8lGLaMkuSpMsH7pqwA3n19DdpY95zM7z0lrXv+zrrnPER73kya66VdAAAAAGDpBNBhBSLA1m4RRI810WsOtn3Ndrzc3zlZV0n3tl1P2x+TzNtl2Vno/1nDPi+rTaN09Fal57t1z8nWYLARlUHeFLTLk6urLwd6jkeICXXTjn73SPMDAAAA1EsAHVZo8/AsSrn/0tRf0n3cXGejrytw2rcs9OEa9ncZ2edv0rlQo+M0eQOyM1e6vSRKcPMoqZS7JTUAAAAAWDoBdFixlI0emei1Z6NH8HwtJd3b9pw0+U9KiCz00ZL+rnVk9//1mP84TZ44qvTcvmjPOUEaclbauudRun2q23is9jw6b+qfpAgAAADAmgmgw5r0JBt9VtL9/RpKupcQ0FxWFvo6MvsfnIE+t+55jWLSy0t3MHKVSrdvF7TLU6XbWcF44LNmAAAAAGBZBNBhjeay0Wv/2BvBnE+rLOnetuO0/XGceTuMlpiFvupzc/KI/zyC58NKz+WX6VyD7CjdDl+z0OMe/auWAAAAAGBZBNChA5uHZxH4fdZuk4oPc9hcB9HfrPB3xFrouU9EeFQW+poC8I/JPj9of4wqPYffPXJiAaxaaaXbz6+uvrimWIXjRhY6AAAAAEsigA4diazWdnvRlFGK/DGOVlXSPTL6m/yzzkrIQp8+5D9Kx/W20vP2vD2/DtypyFWBpdubHjzv6MjV1ZfPaz6/nmt1AAAAgHoJoEPH5rLRLyo+zAjy/LmKQHIKck4zP/7HBJlHa9i/Pxb9Dypf9zzOJ2WmyVYq3X5U2G4fp1LbsBLt+XVawHgAAAAAgAIIoEMGNg/PInge2einFR9mBHw+pJLfy/Yu82PPPQt98oD/5n1TVunoRbxM1Q0gVzEpZ1jQ/n4u4D5NHZxnAAAAADyaADpkIgJ27RZZry+butfxfHu5vxOB9OES2+60yX89+ZxLnS9U/aDydc9304QWyNJgsLHV/nhT2G7/mkpsw0rJQgcAAABgGQTQITObh2fnTf0l3Uft9ulyf2eZ6/fWmoW+6nVWPy+SbV35uuenaTIG5Ky00u1xfznWbayRLHQAAAAAHkUAHTK0eXg2bbcIotf8EfjrGtqX+ztHS2qzSSML/SHuPVGj8nXPox323H3I2WCwEZOORoXttuxz1koWOgAAAACPJYAOGds8PDtortdGrzn48OZyf+fTkkq672Z+rDmuhf5xgX+31nXP4/rate45BZB9Dvez6gmIW5oYAAAAoF4C6JC5lFn9S7udV3yY8SE6gujjR7bVtP1xmvmxvn1A26zSvTLQK1/3fM+65+RuMNiI++OwsN0+l31OF9aQhf5EKwMAAADUSwAdChCZse32sqm7xHR8jD653N85SaXCHyraKOeAzaJZ6Kv+SD+961+w7jl0azDYiPvAUYG7bi1qnH8AAAAAFEcAHQqyeXgWpXBjbfSas2XH7fbhcn9n64FtFMHzXzM/xrcZnVM/PZcqX/d82lj3nDK8acrLeI3s86muo8tzsKl7CRwAAAAAVkQAHQqTAp6xLvppxYcZwfMIor954H8fEw2mGR/fvbLQH5mJfx+Te/w7ta57Hl5a95zcpezz1wXu+q96jy6l5QNOtQQAAAAAixJAhwKlku677R+jrHutAcCvJYsv93feLxpITkHR3Eu3ntzj3+l0/XPrnkMWSsw+n15dfZnoOjJgIgcAAAAACxNAh4JtHp5FedLaS7pvt9unRUu6p3Wtc26XYXtM44734a8f/T8qX/f8PC2HAFmTfQ6Pk5YROF/R9TnUwgAAAAB1EkCHwm0enk3bLYLo7yo+zGFzHURftKR77utbdx0Yu3WCQQ/WPd9156AQJWafh1NdR0Z+W+HYBAAAAIAKCaBDJTYPzw6a67XRpxUfZpR0/3Dfku5tm0ya+63z3ZWtO45ltOJz5kdtY91z6FjB2efnae1pyEJ7Pp5XPjYCAAAAYMkE0KEiKSAa2eg1l6cetdufqcT4feSebbzd0e/9Ufb5SWPdc8jBuClzIstvug7nJQAAAAAlE0CHykR2bbtF6fKas9EjqBSZ6Af3aI9og9OMj+V5R7/3H+dGCp6PKz1nrHtOaUrMPv+csn0hN6eaAAAAAID7EkCHSvUkG/1tKuk+vOPfiwkFuZYU/lkG+tMV/t4/5v+h8uD5tLHuOQUZDDbiWhwWuOuC52Tp6upLPAcmWgIAAACA+xBAh4r1JBt91G6fLvd3tn/WDu2PXzPd/yftvm/96P+3wt87mf2h8uB52LXuOYV5Xeh+/67ryNiyy7gPNSkAAABAnQTQoQd6kI0egeb3l/s7Rz/5d+LYp5nu/6sOfmdk7v+/2Jq6g+fv0vkPRRgMNkbtj60Cd135dnK37PNzqEkBAAAA6iSADj3Rk2z0N5f7O59uK+meMpD3Mt3v0Q/+9yfO3EeZtP1+oBkozKtC91vwnKxdXX357DwFAAAA4D4E0KFnepCNHpmbt5Z0b489PpxPctznH6zjvuWMfbAIlLzUDJRkMNiI+8C40N3/qAcpwG+aAAAAAIC7/I8mgP6ZZWNf7u/EerWx/vWwskOclXTfa4/15kSB3Xb7M8N9HrXbqbNzaV5a95wCjQved5m9ZC+WGRgMNl4s6a+balF4uPZajPH6bLLoVvOt8tLzW8bID3XRXE+qnP/nqxv/v2l7b3A9s+j5O0rnbJy7/0nv0/Pn8V0m7Xn3QksW0dezfo0+H6R+HjaLfUN50fb3RGv24r4w/0z7z43zZPTIXzE7h+LZ9Uf6Gc+yi1RpCfp+n579HDTfJyQt8nyevedNb1xvf1+D7ufQL//SBNBvl/s7MYh4225vKj3E083Ds90bx/ypyS+7+7zdz5c39vP/OUMf5J3S7RT64heTe4YF7rqPwFDf/ehD8/gPve4/zAIKw7RFcPxJk2eVpWnaIhjxVyMo4dz9PnD6kCD5T99R23NrVytn2dcPDZL/jAB6fc+12eSZrSXeFx5jFkz/OPf8mq6pPUr5bmXMWMe9evYsfr7k+/RDx41rv+aA9ZKBDj3Xg2z0cXtsMbh6Ecfa/vmgyfOj3Wj+H9r9HDk7H/ZSJHhOoS+D2wXff5VvB2A+qDD7qFnSckTDtI1uHNN8UGLSCKrXds6uOnD6I39p/bX39bD5fhLE2oIvgufFnzdxf3iafub6XJvdx0Zz+z5Nz614fp17dlHYtTebcDlK9+tR7uPGdM1dzF1zUz0J5ZOBDnwnBZjfVnhoMXD53OT9Ie9lWqd9FkD/4IxcSPTvL0q3U+gL4vv2x3ahu/+sfTm80ItQ1T1JBjr3OU9GTb4fNlcpnnmTdvtdYKyI87SrIPnPvGvPnQO9s/S+nvXrfJC886oXbV/79lrOOfQkvZPNnmvDig4vnl2/NUsO7MlAZ8nP67j+/tuUNQnzR+I6i2+8H2MpMT0MZZKBDnwnsncv93fiwX5SyYBlpoQXn/821hF+DOueU+qL4uxDTYk+C54D9OZ5NWy+BRa2e9wUs5K9b1KG+qTdopqXDL/uzs0cg+Ss7j40bDILklPFs+1V5efR7Nl11B7zSoLp8IDrbxYw3266Xwph2eLe8mZuvBjfe38XTIeyCKAD/7B5eBaD6WcVZ6Pnartt8z1B4Ac5btttohko1LjgfXfdAVSsR4GFh5pNgovtpG2v+Cj6m4+jKzkXBcn7dd8ZNoLkeLatynww3XOLdV9/NQfNfzZeHMeWSr3HBJZTE1ggfwLowA9VnI2e84AqBpCnmmIhF+25uqcZKNirgvfd+ucAlZmrjPLaO8DCvgbTU6ZRjOl/9XF0oXNv2HS0TvWaTfX13+vbzvr36VzfwyqfbfHuNdIi/3huxX0pgnrHqqmwoud7jCvHTX+C5j8SbRHJam/TBJZfLQkE+bIOD3AvstHXZpo2M+zvJ17snm0enk01BQW/SP5Z8CG88LIHVd6brIHez36PsWd83OxTRtA6+Dj6z7HPsOl3dnEvxk8/CJI/afoVvLxo+/qZK7/ze85bz7Z7W2gCmDXQueP8GDcmrdzrWZGuuVNNAXkRQAfu7XJ/J15+ZaOTkyh5f6wZKPiFMtbEOip1/9sXPGNJqPPeJIDer/6eZZuPtMZqz9d2e9ezwKkS3LerKoCeApRx/4iffQySe07leV7GOfjWufgop+2297OMdAF0fjAGGKex5VCLLGSarjlLKkAmlHAH7s3a6OQ2sBQ8pwIll2+f6D6AcqWsoBjTD7XGWoxia9s9np+7lZd2j0D5B13eG2PfB/Bsq/bajvLuvzZKu3P3tReB80gQiMC5ag8PE/et92ms+E71IujevzUBsKhYG739EWXILrQGHdrVBBT+ghkvRyVnYnkGAJT5/ImP4bF8SFSWGmqRtRu1259tHxylj80APP7ZNvZsW4l4Tr1Nz62x5uCWa+9Jux0010vTvW0Ez5c1VvzQtutJ+m4EdEQGOvAgstHp2KQ9Byea4eHaa3e+tOZ/mm/rE/7Wbsdt+5pdvnrbhe//H7oQoBxpjfNYNmSkNbIQWVoR8NlVqrN3ppoAlvZs207PtqHWWKn4fhDBvKigFiWmTaZmtiSdoPnqjJvrKhCRja4CJ3RAAB14lMhGv9zfiQ8+1kZnnWSfL6C9RkfNtzUJ59ejvE28/Lxt/5vT9ue79hqfasGVeVX4/vtoAlCAlOUcz/c3WiM70TdRqjPep3aVx+2Hysv3Y7y8rmfbqLHGeReivT+17R/BvHeao9fXn2oP6xsrRtWi/zb1LwEE2RFABx5NNjprJqj7A3OB8tiez/35IcaxCaSv7IUz+qXoSUeyDgCKeN7E2MAHzvxFBuVW218vPV+hKleaYOnPta/BpPS+SnfeNOVXVGPx62+YxpUjrbF20eafZKPDegmgA0uTstFPDaZYocjK6f1Asb3OZuXW4+fTuT+vwri5DqRPmutA+sRpuLSXn5I5DwAyJuu8SDGe+5RKup9qDoB/PNuUi87vuUV/rr+D9sdr11+nZtnokTCjchGsgQA6sFQpS/XF5f6OFxtWYa9Pa3O319EwvZSOmm/rlHeVtRz7MEqB9F/bfrBW5+P8t/D9n+pCgDyltc4tr1SuWGP2+dXVF0sWATSyXsG4khtULoI1EUAHVmLz8Ox4bm10Lzksw6Q9r05rPbhUfj1eSOYD5TlOQIn9jED6tLme0CCQ/vB2LNlfuhAgP4PBxnYaf5vEWrZxqiIgu6g++hMWe65FcsaRloBOrr+DxlKduRq224e2j/ZULoLVEUAHVkY2Okv2roaDSFnlswD50/RzWOhg/X27/cupufBL6KiC++FETwJk93wZN9fBc+oQkyGGbb++EESvikwx/c39nmnDRkIGuP74mfiuFJWLnrZjxT3NAcsngA6s3Fw2egTblPzhIU5LXHv7lqzy6l4+4hiti76wGs6DqW4EyMdgsBEfOcdaojoxfvwgiA7Fct0+7Jmmmgq4/ri/N1G5yPI/sHwC6MBapGz0Z5f7OweN8j8sJj46ZJ19XlFW+UOMGtnIi3pe+gG0L2ZT3QiQh4qC5xfN98GmeNb8lcZW8x9xhz0aZzVpXPkh3qWc7YBnGrDC6++g8c22VONUOeClSZewPALowFptHp4dzK2NLhud+/g1TcDIQnv+Pmm+ZZM/TT/7PDP3qVN0YaPC918pSoBMFBpoiI96k3b7I/28eMiHvvSRcNiTMdlW9LXMIqDi51ncz1UthG6uvyfp+htpjaJF/6lcBEskgA6s3ebhWQRfZKNzH9OYdNHlDsyVYZ99mB3qln8M0Ln/i2kN7eVFDCCPZ0qMkcYFPTtiEu1vV1dfJsv4C1M1lNgmc20ym+T4qqkvCBOZRZ+tcWkcBZW+I0XwrtZJULPn1Me5/232DLtpa64dBnPPMu/drOr6i3NMklM9LP8DSySADnRGNjr3sNYPhKkUe7yYzsqwe0m925O23bbSxBjuVsM5pa8BOjYYbIybMiaiTpvrpXjO1/ERr/0dF+k5dZyyGV8315MMagnKxBqXf7THeeoqKNYfmqBXpprgXs+zk4r6e5Ku86/Powc8+yY/aat4rg0b1fBY3vU3WybGeVQXQXRYEgF0oFOy0fnZi2N7fpyv6i9PpdhHaWD5vPl+pjcLfCQQPF/I8wqO4Uo3AnRnLlModxE4P+7qw13KUN9r2yv2Yzu9awwrOAWO2mOapOMDch40u07vep4dtT/eFHwIsyVJfo+fq+7vOyqvPE/POrjv9TeOMUXjO1itZu8LLzUFPJwAOpCFlI0+SQ/3oRahtdQ1HudKsc+C5c6z5fhNEyxkVMExmDAB0JG5NSpzf07spmzwzqUA/mlsqex9ZKWX/LF4dg48y3gfZ0ElE1T7Ifr6qXcsFnyexbefcaG7H8+U39vny3nXO3Kj8krcbyOI/qpRTY+fX39x7dVS+eFz8+0bxbTd/vrBvzdLZhj26Fm1Hffa9j6x66yHhxFAB7KxeXg2udzfiQ9BkR3yRov02nF7Pkwf+h9HSfHm+3XLLRGw2o8H3O8ltZbzUAkwgO7kPtl00m4vcy0X2e7XQfs8jrFLZFyVnKm3FZMB4ngybef4kP0ijX+epLF4bP+Z+7PAeiXa/p4032fEjm7097ARWOfb+TGbBDQqbNen7fZrvP9m/IybnzAW11xty5iwnGtw3JQbPI9nzcfmOmA+fcxkzfR9ZpZkM6r4OTVuj/WvXMeMkLt/aQIgRylbWDZ6P8VL3y+bh2ef73muDJtvH+KeN2Zar9N520/KQfXjRXXeL8pRQvX3qw+FPE+jXOqLHvVLBHxzzj6Pdc5fFtSeMWE3Ju6WHFh4lkum/wPa/8mNMXxfspf32j477uFzZdbf8WzpzdrNbV/77vrP8+BDU9YE90m7/ZpDtvkj2jyed6+bfgfSezVmrOibRIxxfk9jzIsVt02MQWYVHGpMwonqUKeeRLAYAzkgW2mNatno/XO6eXi2+5PzYtR8+/CiTGC3Xq5ynfoKX1ZLX+PvKx8CoRf3KwH0/PokxsV/Nvl+/P6acZxrVt5P2jXGku8LHk9WdQ2kj9dx7/lvU+9avi9SxrZnzbe1m2sNVkR25C96+rvnWEnB83iu7dVyvQqkC6AXFDyPay+WCjzvauJ+ej7NKjjU4nMag1iSDxbgAyiQvRQwfd8oO9UXMah7lvp7lqkwC5YrxZ6P6ebhmQ9Ci72ElRKQ+ikBdHC/ykifAugHzfXE0mzHbqVWJyk0I3JelRlFc2v5vq7sHUAA/fb+HjbXgYqagnsyXsu8z8Yzba/WTM10rZW+jInrcfF+j/tr7sHzuOZ+zSnAm66Xt009gfRpGrNblg/u6d+aAMhdrI3e/ohAnUzXfphlWH1KL9lHabAqeJ6XXzXBwkYVHIPZygBrNvfxLlfvSl7aI31EfFHwM+5tCk5VJfolAljt9qzw/uF+/R3Z2gft9r/tP+4110FM6niGlRQ8P22ul6s6rfxai+VWXrrOenMNjpt8g+dxDr5rt/9tz8vd3LKj0/USFTLjm/SkgtNh2NSxrCCsjQA6UIRYDzuttWyQD3k41QQLvbTWMgHE/Rdg/XIOnk9qWM+58CD6sKl8yavI2E6B9D23g/qle4oJ9PWIaoK5vwvNShvv9iUzM63p/qwxOalq6TtErgHTr/f6NHnqc+bXyzRVMKjhm/R2e15YKhXuSQAdKEpab9nLNHQr1qkXSF3MUBMAsKiUuTfOeBff1dLWhQfRX9eYhX5LH8XH9gj4GIfW39efU5bsO61R9DMsAnejzHdz0lwH8SY9vM6maXLSqbO1yusvgucfMr7m9kqbsJImntSQjf42VbgC7iCADhRHNjp07jdNsLBaMtCnuhJgrXLOEJnWFnBIH3J3C3zHeNJUnoU+10cxweFFqe+B1j9fuL0OmnKD6L0eN6fg+Tjz3YwlSF70fT3gVKJ61x2nqusvxgXv0/ggF3GdvUzX3LTg6+VzykYvuQJTnBdKucM9CKADxZKNDp2YttfeRDMs7Gklx/GXrgRYq1cZ79uvNTZ4CtDuOlf0Edn090Gh7/y9HTenNZfHme/mbjq3uL7OTt1XqxLB82FG+zNprrPOzyu6ZvYKv2ZGSrnD3QTQgaLNZaPHwEU2OqzWtFFG8aGGmgCARaTSmzk/P6qdxJo+8J6WNtZIQateSH1kInV/eN8v59k1avLObIzz6FkKGPP9fTXaRBC9/GvwqMlr6YRqKz1UcM0o5Q53EECnVy73d7a0Qp02D89m6+FNtAYszbS5/ngcLwS/tNdZbKea5UE8fwBYVM4ZxRcll9+8p72mvBLMr3t2jey5TfRDut94D8lcmvj1PuNdjADei1TFgtuvtdn7P2Veg+MmnyVdZtfbgWsmW0q5wx3+RxPQB5f7O8P0QBi1f579z9Pm2weRGDxfzf15NisuShVPtWAZUl+9aPs4Botvm7zW+oESxDU0abeP8dP9b2kvsUOtAMADbGe8b5PaGz8ypdpneARo3xe021sRwOpLcCiCqu3xnmd+rbA8sWyEcrP5vvPMAjG5focRPL//vfU0vcO+1RpFXYMxgeXI9dbZNdM0ZQajo5T7dk3l9WGZBNCp3k+CqcPmW0nE0U/++/l/nA+ux88/5v5/0+b7DIWLKC+uB9YvstHbfjtPA5eRFoEfinvWpBEwX7VhRccy0Z0Aq5c+XOf8/PjYh36Ij4ltX0wKe6d4ld5b++L3RgC96cn1GBMm4txW2SlPRxn3jeD54tfbQXu9PXV/LUouE1gu0vX2uWfXzGmaSHRU4O7HPgugwy0E0KnWfNb5Ev/amy8D23fsw/w/Tub+PG23v24MLv4OzG8enhnUP5JsdPjhi0zci2YBc5N81mOoCQBY0Cjz/Zv2qC/eNWUF0OMdtU+lzSduF70S/S2AnplUNnqc8S6+FDx/kN10vXmfzf8azGUCSy+D5zPtcR+niSfjwnZ92O73Qe3l9uEhBNCpUqZB09EC+39z8DE/8JjP9pg2st5/KmWjx0v2iRdtekjAPJOXEU0AwIKe5rxzfQpEtMc6KSwLfdjDMu6fGxOm++IPTZCXzMpG32Y37uN66kH311jKJILoH7RG1tdgjE9yWN6i18HzOTGJcasp7xv06/ZcOtZ/8D0BdKpzub8TA7tRRYd084E7uuP4Z3/83Hxfum9+nffZP88/FKtd7z1l9D9r2+agsYYTdRMwz/SdVhMA8Mh3ALpVWhZ638q4XzSW7uqLqSbITs7rnkcw6FQXPVyaRHbc5BGg5YZUMjyHdbfj29Ou4Ot3E08+FbbrT9J1fuDKgm8E0KnK5f7OEy/O3z345ttidI/2uzn4ufnR5eZah0UF4dt9O2iPcZrJ4BKWYZKuQwHzvAmCAFDTs2PSt84oMAu9b2Xc6Y+pJshHlPzN+Hl10d673QeXIyaRjRuVPnIUSULDjvchvkO9sEzCd+PGi/b++K4pL4lLFjrcIIBObQQplue2yQiju/6juSD8dO7l9uON/62zdd7b33va7mP87veNssqUZdJcB8ujbOFFV9cQALC2sTh5+a1Rxj1XMtB7IpXs1xAZSGWjcw0ORfDnpV5a2nUXGbUxGUEySn7XYA6VAfYEz2+9bg7aPvpvU1asQhY63CCATm2GmiCrvpj1x+jm/3Mu0D7LYp+221/pf5uknyvJaI/AY/v7nzXX6ziZdEGOJo1geU3cZwC4t8FgwztNhqIMcNs3sc5vKZMbRk1/yrhfOUNh7XIOpkYp6akuWvozMIdsZ745ymAfLJPwczHx5ENh+ywLHeYIoFMbA7ny3BZY+nsWcwq0z5eTn63lPk1bBMQni/7SKHWdSv5D1yaNYHnt3GsA8E5Th/PmuoxtCZ6327EuA5YtlW7P9Vl1fnX15VwvrUSUpJaFnsc1GFnCXU/Ut0zCHdISQHE/2i5ot2WhwxwBdGrzXBNUab6c/Ojm//OWsvERcP9jNqBrvl+nfWar8XGS9Zs0guUAAKX6tSkngD7SXcCypSopOZdu39VLqyELPZtr8Ekm16Br7X5iksF2Yfv8uhFAh68E0KnNrz4U9NpwbiC/rTno2KQRLPdyqwwvAFQj1vhsn+0RoCmhusyTnq2DDqxHzhnIe8oOr1x8dz3SDJ16m8E45J3xxb3HjtN2PHbalDMBczaGHCvPDwLoVGbz8Oz8cn8nytS90RrAGk0awXJuN9QEAFRm1PPjL6mM+1bTn3XQgRUbDDa2M34GTAR71iLaWAC9u2tw2HT/zXvaXmsHemMh75qyAujhdbreodcE0KnO5uHZ3uX+zqjpfi0YoE4XafvYCJYDAPRNjAHHhezrU90FLEMqG51z4PSdXlq9yPAvMJu2Jkq3l3ndTAtcC32r3edRrOOuB+kzAXRq9bLdPjVllNYD8haDxVnAfLJ5eKYkHADQa5EBFR8De3r48QH0pJB9NakcWJbIeh3mel8W5Fmr3xsB9E7GXhm0+8S19mCx/EFpy42+aq6/iUJvCaBTpc3Ds+nl/k7MiHuvNYBFXwiab8FyA0UAYK3iw+RgsJH7bg7bbdrT/onsu5hcWUJweuSKAh4rZZ+/zngX9/TSWp+D5wWMU2ok+7z88f20KWuZv+12n/di7KsH6SsBdKplPXTgHmIQOGm+BcyVY2fZRpoAgAr1vdJXKQH0vlcLAJbjbcb3/VP3uE6UVo66aJlkn7vWHi+y0I8K2t8n6To/1XX0lQA6VbMeOnBDDPYnzbeAucE/AJCjGK+MMt6/eL8673H//FHQvg6bnlYLAB4vBe5yTkyx9nk34puKAPr6vHWtVeG0KSuAHl41Auj0mAA6ffCi3f5sZElAH0V20CS93F0ImAMAhch9zDIwxizGqLF+JfBwbzPet4mM2O7aXhOsacCVz9rnrrVHSssAlVa9YaSaEX0mgE71Ng/PPl/u77xs//hBa0AvXuI+pp8RMLdODwBQohjPjDPev15X+CpknXqAR8kkcPczMmK7ew5eeA6uzesM9uFX3bA0vzflVW+I/T3WdfSRADq9sHl4Nrnc34mB9VutAdWYrV8eJTSjHPtEkwAAlch9XDPURV+rBJTQDs91FfBArzPet2lMZtJFnY9VRpphdQaDjaimOs7gWjvXG0sTbXlS2D5HGXcBdHpJAJ3e2Dw8O7jc35k21x8QthrrokNpps33AfMLTQJrN9QEAKsXZRIHg42LjN9ZPA/KCaADLCyTwN3PyIjN4znIakXmb9dLkv6mG5Y6xv+c+Rj/NlvKuNNXAuj0yubh2Wn743T2z5f7O6Pmerbk0/TgGmolyMZF2r6WZLd+OWTBcxJgfSI4kG2Gig9pxQQOTBwHHuJN033g7mdOdVHn/tIEK/fatVal3wscn42cC/SRADq9lko+T+b/txRUn/fklofaf5p/BhFGWhQeJa7F+YC59csBgN66uvpyOhhsHDX5BjDifWja4y4qJXDwxNUEPMCrjPftPLI4dVHnVAVcoXYMmEP11AtZxysxacpbZva/jQA6PSSADjf8YB3lhdd6udzfuS3wPmz+GXi/uSbdk0aWAP0ZMM6C5RPNAQDwD5GFnusHtq0m/7XaV0nwBqjSYLAxbvKuPPW7XvIc7IEcss+Vb1+Bq6svk/Y+W9pub+s5+kgAHVYkZc9OlvX3/SAgH370vw8W/PdhHS9X7xrrl0PJ/qMJANbn6urLwWCwEVmAwwx3r++ZzcWMZ9tzaBQfa11RwD29ynz/znVRFqaaYKW2XWtVi3HZqKQdNp6kjwTQoRB3BOQfPaD5SYA+3Dfo/vwe/85W42NbXz2ZbWmphKl1zaE4Q00AsHa77fYhw/16rmsA6jIYbMR4f5TxLirfnoko7V1gFm0p12EEz7v+djpVvn0lfbuV7rElJrdFGfeJXqRPBNCBr+6RMb+2WYeX+zvxwja841+7GdS/mXEv0z5Pb5u5MqRtX8/+ODv34jz8YzZYT1ujxDsA0FepzONx+8c3me2aAAZAfV5nvn/Kt9MHOVSBmOiG5YjM7eY6+BwTI4YFH8pIb9I3AuhAdlJW8vQe/+qDgvop+/mDls52ELZ9S5/N/hgfamflMuPn1S0D+89KxMPKDDUBwPpdXX3ZS1mB6yznORt3zSY4zsboMpKaYtevBLjLOPP9U1KaqrVjiydNHuXbP+qNR/Vj9OEsaF5LJdatOD9VAaFPBNCB3ols5sv9ndMCXgz5pxh0jtKfR3P/+9v5f2ku4D4zbda7Ptd8cH/+dwvu909tLxZDXQrQmd10H15mlaVZgHz2kXQS/8f6htXZamSSAXfIpGz0T59ZAjf0wCiT/TBuWOz+OZv4MAuaG1NCBQTQAeiDYbPewN8PX3huBPdnH63DtN3++sHLykVaZoHymDABwFJE0GAw2HjR/vGkuf+HuVkW+WycMU2bIES/PNEEwD38N/P9U74d1+F6fFZt6G5z1aGi5H5flhEdNQLo9IgAOtBX25qADPxsgP2jrPr5MvZhvqzWfEBetjurekncal+mnVsAHUhB75ftvfio+bYm+mRuTPB32XX3agAWGOPHRJtx5rs50VP0QA7fK40hf3yvjO94ETAfNf0Jms/7j7OAPhFAB3rncn+npvVn6J/5MvZNc/9s98ncn6fNt2z3Y9ntPOAcBKBDsSZ6+2NPSwCwJNknGVhehNoNBhujTN63rX/+fb/MSrNH/wx72ATn6Zw4V5mAvhFAB3rlcn9n3NzI7IWeGP3gf3/dXhe7m4dn55qIe7LmFQAA1CX38u0yYumDUSb7Me1zJ8ytZ/48/exbEkEk2cQ3wlg2Y2LZJ/pMAB3ohcv9nRiEvs1oMAq5iBeB9+01EoPjXdnoK3nxqPGcAQAA6jHKfP8muogeyGUiy7RvDT+3nvksaN430edfg+aqfcA3AuhA1S73d2IAdNRY8xzuEtfISDb6csX6s+2LWG2H9VTPAgBAHVJ54twnyf6hp6j8OoxrMJc1tS960ubR3qPmek3zPq5nHv38W3OdZa7KB9xCAB2o0uX+Tgw83zTKtcMiZKNz3/MEAACow/MC9lFwh9plE8CtuWR3Wmc+Mv1j4tCwh+fZfGn2qcsOfk4AHajO5f7OLHAuyAMPIxudIl7sAQCApbz/ZU12JD0wymQ/qrvWUpWNWdDceubAvQmgA9VI65yfNP2cQQjLJht9uS+gW5WdGwAAQOHSur/DzHdzoqfogVwqQRT/7SeVw58PmvfNtLGeOSyFADpQvMv9nQhMxTrnI60BSzfLRn+3eXh2rDn6+QJ6ywvpyIsYAABU8b6Xu6luogdGmuDh0mSguJ9Zz1zFDlgaAXSgWJf7OzE4ilLtY60BKxWzd4/aa+7p5uHZruZYWI3Z+0PdCgAAxSth/fO/dBM1Gww2cgr4fi6s3SJgPmr6GTSflWY/V5odVkMAHSjO5f5OBPNinfPXjVLCsE7j9vr7uHl4dqopFvJHU1/ZsKFuBQCA4o0K2EfZlNQup+DvHzk31Nx65nHvGvbsPPl7PfOrqy/nLhtYPQF0oCiX+zvj5jrrfKg1irI399Ibffe8p4PdGkQm+mTz8GyqKRZ6yanNc90KQJ+lUqEApd/HSkhKkFlJ7Ywpfnyfml/PfNT0L5Fq2lwHzX9Tmh3WTwAdKMLl/k4MkmKd8y2tUabNw7PJ3D+epn4dpgGwgHo54mXlfbs90xT3VuNLjmsVgN4ZDDZivBofcLc9C4EKjErYyaurLxNdReVMUP9+vDVMY63nTX3V/O5jtp55lGafOiOgOwLoQNZSgPWopwOmmkTW8uebpb9TFvNpI6Bemq22r47a/tvTFPdS5RroMRPcOlsA1Gwu62n2AdfyUUBNnmoCyOP92pjr63rms0xz65kDWRBAB7KU1jmPUu1vtEY1Ttp+bX62fraAelHepPXQrbt0hyiz1b4M1nho8VI70cMA1GQu62lWKhSgViXc45Qspg+GPR1zjZr+VvaxnjkUQAAdyM7l/s5B++N1I8OjRncG0ecJqBfRnxfWQ7+XaYXna1yDE10LQOmUZgd6qoQsT5mY9GEM0pdjje+882Ouvn33jQlBk8Z65lAMAXQgG5f7OzF4inLtQ61RtYWC6PNuCajPBt+zgPqW5l0r66Hf37TCe5uSjwAUSWl2wH2wmKCdADrUMeaaBc37ZtJ8K80+dUZAWQTQgc5d7u/Ei1uUax9pjd54cBB9Xvvfz0oenadzKQbmW833QXVWy3ro93NR4flowgoAxVCaHeA7w0L28w9dReWqG5PMjbleNf37bhDfKSeN9cyhCgLoQGdSOe4InI+1Ri8tJYg+LwXUJ81cWek0QSO2p+mnDKPli/XQf2vbXwmqH/urwmMaxmxyL4QA5EppdoAfj+U1AXCL5w8cc0Wg/FVPx1zTJgXNrWcOdRFAB9YuZQm/acpb5zyCRLvp5wc9uRRLD6Lf1P7dk+b7gPp8hvqWDwdLY2LCz9U6uSCuJS+IAGRBaXaAe3uuCcC1+Mhx13xln2HP+s165tADAujAWl3u74yb63XOS/uYFQGi3chwThnNLM/Kg+jzUpZ0bMfpnBw235d8H+qSB7880L/2ed4IoAPQIaXZAR6klPfeqa6CbMZcT26Mufo2UXHSWM8cekUAHViLFHSOwHlpa998zTrfPDybDxC90qNLF0H0J207H6/7F7e/Mwa9p2mbVUiI83UWULfO8z2uk1Q+nx+IMufty2aca8PKDs31AcDaKc0O8Gil3DunugrXYqdjrmHzfXWfPrGeOfScADqwUim796QpMxskgrnv5gOD7fHEJICxnl2Jo7Z9n7btvdvlTqT+Pk/bLKA+X/Z9pKv+Qfb5/dtpWNkxuR4AWDml2QGWek81CRbyMcxtf9I9YpZp3rf7xbS5/h740XrmgAA6sBIp6FhqsDkGS7tp7ez5Y4pjeaN3V2qcyrnv5rJDKaA+ab5fR33UXAcOnzb9LFt1kwD6/fzRVDhjO7IA2xfLie4FYMnPl2GjNDvAKpiEBPxIjL8+9eyY45vWLMvc9y3gbwLowNJd7u8ctD9eF/pS9o+s83RMMePyRO+uRXZB9JvS5IrJjfNj1FxnRW01/Ssl+pfT9l7inHlb4XGN5q8HAHgopdkB1kIGOtB3X7PMG+uZAz8hgA4sTcrQjuDQsMDdjxmGezezztNxxcvlBz28VtkH0ee1+3mRzqHjdM7ENTBqvpV8H1beX2bo9rudnutaAB5CaXaATrjXQh7joJFWWJvZco2zoLn1zIE7CaADj5bKWUfgvNSBX2ScH/zg2OLF8sQLZieKCqLPa/d52v44TdvsPIrrYxZQr2XG/yRdPxOn693iBa19Qb5o6sv4GEUAxAsoAPehNDtA555qAqAHpo31zIFHEEAHHixl2UbgfFzoIUQgazdlD/9IZJ4rb9adYoPo89KSAOdpmwXU58u+jwp8CdkVOH/wfafGe8podn4DwE1KswNkRYIAUCvrmQNLI4AOLCwF/9405a7lG8HMyJo9vuM4I/Nc8Lx7VQTR56WA+qT5fh31UXMdhHyafub4UWOarp1Tp+WDRbmwcYXHFRNBBNAB+EppdgAA1sR65sBKCKADC7nc35kFzkv9CDZprjNnp3cc50FTZ5CrVONU8eBlCj5XJ2VzT+bOwfkM9fjzsMPdi+tF4Hx596AaRXBkT/cC9JfS7ADFcI8GSjar8hiZ5hPLyQGrIoAO3EvKjo2M7GHBg6s7s87TsY6bcrPra3/J/9D2z4tag+jz0tICsR2n83LYfF/yfR3X4rQROF+qmA09GGxMm/rK1w7b49pSIg2gX3pamv3v0qDt9slZAACwctM09vr96urLRHMA6yCADvxUyoI9asqeoRwDrL27ss7njvdkjfsWwdGrdnvdKG15H9E/EUS/a+366qTz9zRts6UU4rqcBdSXudxA/C6B89Xek95UeFxxHgqgA1Ssx6XZ4/n2W3OjNGjbHk4KAIDVjr8mJusDXRBAB26VgnMROB8XfBiRpRyB1vN7HvPX4Owa9++43be99LtlvN/fLIj+om9B9HkpC/+8mVt3em4d9VlQfVHTRuB8HWJtrhoD6K+aVDEBgHpEhZHmW2n2rR4d+nxp0KkzAajknj7UCoDxF8DdBNCB76TAeQR2Ss+IjgHX7n1LfafjPlnjMUfg91363dvOvIVFP0UQ/WVaO5zm1nXUR831h+5ZQP1H53e8lAicr0+t5+xWZCZafwygbD3OMp+9Q3wtz+55BlRqWOC7P1Av65kD2RJAB/42t/b3sODDmDbX5drPF/zvIvN8XRk1s8z42aDwubPvwS/Ss3Lup5rjn+YC6rN11LeafwbUf22uqyF4SVmTeCEcDDYmTdlLY/xIBFpcjwCFSRmJcQ9/1fQry/zvj7bt8/ncmQCQna1mruoaUIVpYz1zoAAC6MAsS/WoKf9jWQQJ3y0aCGyP/2TNx/7uRunxkbPwUU7aPmwE0e+WzrvYtFX3fq/02v+v8wugDKk0+6v0POpT0HzaXH+0/ShoDgCwFtYzB4ojgA49drm/M2yuA+ellxCfNtcZ3ZMHtMFBs9513s/b/Tye+/2RAbzlbHy0CKI/na0pDwU4T/ff2mwr4w6Qr7lM81iuadijQ5+mZ+9vPtoCAKyFpXGAogmgQw+loG2Uan9TweE8KOs8tcN2aod1mbbb7o3/zfrny/Mmzu32XNjVFOSufXmcDgYb8QG/xgk0yrgDZGRuTfPXTb8mbsp0AijfU00AxbA0DlAVAXTomcv9nQiaR9D4SeGHEh/Bdm+UQl+kHYbtj5M17/PuLYF+658v1zhNENm1pjcFmDR1BjKiHPCp7qV0KVN3uKS/bhoTZ7Qqaz6H4xkTQfPtCsb+i7wjRND83DUHUIUnmgCyFuMtVX6AKgmgQ0+kbOsoFzys4HAi4/zgkX/H+zW/iL37QYn5kbNz6eJcH7bn/AtBdDIXH/jfVHhcowg8ClxQgRgrLGuSSywxcqxJWYf2HjzLNu/LOFN5UACgRBcF77cJi0D1BNChcpf7O6PmOuN8VMnA8sFZ53NtEpnn68z6nNwW8G/3I/Zh6CxdiWjbD20bv2zb3mCeLMXs7MFgY1rpfSCCN4KFFCtlny9zrCAbg3Wct+M07q99fDkrD/qxETQHqN1IE1DxN4HP7fitlN01YRHoHQF0qFRl65zHwCwyuI+X0C7j9sd4zfv+ozW5t5ypKxXt+yllogtckKtfm+vqILWJMu4C6JRs2WMFH5lYmZ4Ezq2pCQCwfi+NvYC++rcmgPqkzOYPTR3B80m7PVtS8DzaZd2Bqt2fZEAPV/D7YlD7zlXwt5hI8iH1PeSo1hfRrbT2LpTq1TL/MusBsgrtfTaWzIgx/0lTZ/A8xtDxDvCivYb+t912fcAF6OfzTitQsdwn2k51EdBXAuhQmcv9nYP2x6em/OzmGEDubR6evVhGCe6UkR8fF9e57vlxu+8/+8j3dAW/72UqF+9D/TezIPpYU5CbtF7YpNLDe62HKVFaP3qoJcj4HH3SbjGujeD5qLLDi+diBM2ftc/IX9ptr90meh2g9+/0UKvcv99t6yKgrwTQoRKRYdtuETh/W8HhRND5l2Vknc+JzPN1TiqIAfBdmeDDJf/Oq7k/72XUn9PUFl1mDH2dQCGITqZ+q/S4vGhTqv8u+e+baFKWJU3w+LNZ75JE6xg3x9j1l7mgucmgAMyobAX1vBsBFEMAHSpwub8Tpdo/NHVknb9MWdSfl9w+4zUfx+49jmHZ/TWZ/aH93fHn00z6dRpZ8dGvTffl5U9SlQbIyXlT5/rIT9K6vFCMyOxt6gpMUtG5mbLO3zd1ZOLFs28WNI9s8+NUlQUAbnqqCahY7pMGY3m2oW4C+kgAHQp2ub8zbLcInEd2dekf0mZZ5+dLbqMu1j2P0vMXd/XdOvajySwol8rL73a8X2/b9j9xByEXV1dfPjf1roWujDulGa/g75RJy6Okj5YfmvInd5yncWCsZ/5S0ByAexpqAmr+JFDAPo50E9BHAuhQqFSK+lMFg5hpu71YdtZ5aqOYVPB+zcdz3h7HaUcvgN+1X2rPX3MYaLd9MZrbr2ifF023QfRxBNHTOQI5+LXS44rZ6kouUpJVTPq40qw8VLqHxpi/1HvpzaD5aZo4BkA3SrwHe5+gZtMC9lEZd6CXBNChMBHwa7cICkcGbenBv1jj/FkqN74K0UbDNQ96d7t6Abwt6z1lfOcwGP8uWJ329VnTbVbeuN0+CKKTg7TWa61ZqrLQKcJgsDFa0bhhqnV54Dn5daxS4Jg/gjOxbM8vguYAWb53lPhMFESnViW8K2wr4w70kQA6FORyf2e7/fFnDFwqGBxG1vnesrPO59rqoIN2WiSL/j9r3K/dDPo8Btpv5/+Htq2+ngdNt6Wr4yVcEJ1c1JqFPvayTSFWNdljqmlZVAqelzZhdj5wfqA8OwBLfneHGpUyqWVbVwF9I4AOBUhZ5/EBLTLPSw/0xUe1VWadN6lc+Nt1H9dd656v+OVv+qP/R2rrHNZXfjNfyj3t2+co399cVyPo8kX8U7tvXsjpVGToNWWWVLyPsR4mZ2mSx6o+Ck21MAuej3HPPClwjD8LnMs2B2DZnmsCKv0OUMq46ZXeAvpGAB0ylwKOse7huPBD+VqyO0qKryrrPLVXF+ueT1Kp9EUMl7wP0zv+/3uZnAfvb8v2jmoETbeZ8tEfHwTRyUCtWeivB4MNlR7I+hxd1V8sC5dFpBK1R6WN8QXOAYpSYhn3kW6jYpMC9nHLUgpA3wigQ8Yu93fi41msezgs/FAiO/vZghnaD7XuLP34UPjyAf/dWvs0lUt/l8G5EH1z8oN9PG2uS7p/7nDfPqSlEqArx02dWehxfb3RveQoTe4Yr3CcAPc9F4dNWWuex9rmz0pdTxegx0ocnwxNyKVi00L287WuAvpEAB0yFFmw7RZZ56UHGyZNyjpfU7vF7xmt+Rh3F82oX1GW830+XB5nMijf/lGQOpWbf9F0NyP+awWDdv/G7kR0IWXvnVd6eLLQydW4WV3AUmCRRZS0XNNu+8za1WUARSp1gt9I11GpvwrZz23v9P3S9vf7djtqN/dfekkAHTKTgsARPC+5LE68jO1tHp69WFPWeZMCsute9/y4Pb6HBLqGK9iXq7v+hRToz6WU+8ltpdzTfsY5E0H0Scf7J1uWrryr9LhkoZMrmRR0Lj5MFTT+j+D5qV4DKNYfhe73f3UdlZp4pyfD95OD9sd26vMP7T//vxRQf6OcP30hgA6ZuNzfGaas87eFH0oM+iLr/Hidbdf8oCz4Cl2kdbsfYhWDjHvNIE8B/xwG5k9+1mcR7I8JGO0fTzvcx6P23DppYM3SesmnlR6eLHRy+ygwbla7rMpHrcw9zsNRU87HyHeC5wB0ZKQJqFRJVate6a5evJ/EO/JtE80joB4Tfz+1/87/tdtJvFOnfx+qI4AOGUiZrjVkne+mrPPpmn93F+ueP6Zk5X86HmznkoW+fVep9PZc2u14f8eC6HREFjqsx1tNQAaOCtnP86urLwe6C6B4k0L3eyjrkRqlpdymBV2HY73Wi/eTu761x/8/zoX4bvpne17Etq3pqIkAOnQoZZ1/uOdDKWeR1fzL5uHZaQdt2EW5y71HlqYfdtlZad+PMzl3jn5Uyn1uf2NfXzbdrdMmiE4XL9Dx8nxa6eG9NjuZHKSs31Wfi9ZA567zcNyUMYn2sRNIAcjrnl6qke6jUiW9N5iEXPf7SQTBHxIIj3drFQepigA6dCSt2f2p8MF/vHS93Dw8e5nW1153G46b9Wcyni9hosAqPpJOF/z332Xy0vzTUu4zqfT8i6a7GbkRRP90V7AflqzmLHQv3ORgHefhZ81MBufhUp5JKTsKgMK19/OSJ/gpH02tSlr6SRZ6pdKSe49JIppqRWoigA5rFgG4douS4+suO75sp8111vl5R+0YQeh1l7uMQcDuY/t/Ff2+aNn8NOEhl+DcdppQctc+x0v+s6a7Wblxzn0QRGddUhZ6rUH0sfKLdPxhYNSsZxKjDwj87DwcNx1XJrrvedw+k471GEBVSh2jbKlmRaUmhe2vSfF1iuD5g797tu8ME01ITQTQYY1S4C2yzkteDyResmKd890uss7n2vFRD/QHWkamfTYBo1QaPZeZ5yf3CUyn9o9M9NOuXtYbQXTWK67TWjP+jnQvHVrLB580EQZ+5HUh+/lOVwFUp+Qxylj3UZtUGaKkd//IQj/Qc/Vo+zOqvD4mZuHdl+oIoMOapIBbrHc+LPgwIpDzbPPwbNLxfpS47vnfA8wV7Ntj9msvk3Pr3iWCIogeEzia7j7mzoLosmdZx0t0vED/WunhjZR9o6MPA3Hejdbwq3xA4Gfn4VZTztrn53oMoDofC953Zdyp1aSw/X2dSn5Tx7vJY5McLrQktRFAhzWYC56XGnCbNtdZ53tdZZ3PteW4Wf9s40nK1l6G4Qr278F9kiZDnGZynt2rlPvcvh801yX1uzgnBdFZm6urLwdNvYG4Iy/cdGBd5QanmpqfKCX7/Nza5wBVKjnQMUzL8UBtSpvYEu/yKssVLn2Teb+Ev+oPrUltBNBhPUoOnr/bPDz7JYOs89m65ydr/rXxwfDlEv++pzn2cZNPmaiTRcqjt+flaXNd0r2L/f86MUYQnTXZq/S44jqydhrr/DgwbtZXDUjQkZ8pZUmnj7oKoEqlZwrKQqdGkwL3eWxCS/FOlvSOPNGU1EYAHdajxABbvEw9S1m+nUtB1fcd/OqXS866H65gHx/1YbM9vmmTT4noe5dyn9v/r+dqRx8AZkF0Lwus1NXVl/OKX0beeOFmHdLM+nVmSJiBz4/Oxe00hijBRI8BVPl+Ed8BSp7sN1bJigqvy/iuNS1w109cj8W+l8T78bIm9irhTnUE0GHFLvd3hgXudmSdP1vSmt9LG4w1618//t0KMu+znEyRJkrkMkhfqJR72v/Y98hE72KNzlkQfeyOx4rtVnxsXrhZhzdNOUFL6vbfQvbzcwqwAFCn0oMdb3QhFTovcJ+HjcpyxUnV2ZZ1H72w7BM1EkCH9QwiSjFpt19yyTqfudzfif1Zd5nLybLbYYWTKZY1QMkpOLdQKfcQlQLaLcrtH3e4z2O3PFYlBTHeVfys9MLNKj8OdHGOTbQ8PzAqZD9lkQDUrfRlOl6bhIvrMhsqy5X1fhzf2Ze5TKp3X6okgA6ECMDubR6evUiZvNlImchvO2iPlyv4e4cr2t+lfNxM2fa5DHgWLuU+dxyxVnRXkwEE0Vmpq6svB02ZJd28cNO1E01ADtr73FZTzgTbqR4DqNqk8P2P7wbev6ntnT8y0EvN5FVZrpz3kWW/H3/UstRIAB3WM6DP/YUpyrUf57Zjl/s7q3ig38ey1z2f2SrgfM0pC33hUu4zbf+dNtcl3bt46YggukANfblOl+29F25W8IEgniWjDn617F1KHQ/O/KW7AOp1dfVlUsFhyEKnRueF7vewMXE593fjeBf50Cw5XpEmfkB1BNBh9XL9SBaBxd0cs85DKt990qx/AsLxCtY9n3m6or93aR/o07mQU4nohUu5zx1L9GNXQfSxIDqrkj50HVd6eHG9v9fLLPEDQZxTRx1dq9aA4zbPNQEAGZkUvv/Dxlro1Of3gvd9u30HO9CFWb4bryR43pQ74QPuJIAO/RQPtl9Slm6u4mP3uicfXKTy36uykuNZQbZ8BOammZwHDy7lntomJhf80nSTBSiIziq9a+otrTvyws0SxTIwww5+r+xzfmSoCaC/0sdryEkNZXdloVOVwsu4f30Ha6/JsZ7MbvyxiuB5+F0LUysBdFjDMyqjffm6tvfm4dmqSpQvxeX+TsweHnfRNiv+HUV8LEnnxl5Gu/TgUu5zxxOZ6JMO9j2C6B8emkUPP3mh/lpFpOJDfGs9dJbwkSDOoa4ykmSf8yPubdBv3gvIzXkl19VbXUllTgvf/yOTxrJ5L15l8LyW5wjcSgAdVi+XwUJkFUfWedYPtcv9nVHTTanV3VWWsk/HtQqTVfyl6TzJ6Vw5eUwQOoLosVxBRy8g0feC6Cxd5aXcQ6yHPtTTPPAjwaMqmCzBVC/wg/MS6DdjG3J7p7ioZNzyRrCOyvxW+P7HuPeD67Lz949xs+LguaXLqJkAOtQvXoRinfO9nLPOQwowdrH27fEaJhaUOGCM7NZczpmlBELafo5j6mKN96+zPQXRWbb2RSWqRdRaKvrrM0HAiQfqqnT7zF+6gErGg8ByDTUBGZpUchxHupKK3vUvKnjX907fobbdoxrbSbPa6jfKt1M1AXT+P3v3kh1Fji4AWHXPnd5T1Ao6GTHEXgHpFTQeedj2CgqPPMQMGQErcNaQEfQKyFqB3UOPyF5BUacX0Dd+WwFZxoAfGQ8pvu+cPK4nzlCEFJJ+6Rd1i52J249evi1lMNTlirhv6frc89bjjv7czgLcecHFmFJE3yuV+9p1HQ90XW0QfaZpYsPGtNili3pz4hZzy4mCeFc8G/hrWIUPwHWeKAJGqJYAyDwHjKAWbyq4hlm63IkuiN7vmDjmUbpeVBRjXunbqZoAOnTvMPU/iRorFIvYdd46P9qLF3vfu3L6OPe81dW1/avLL11bKve161qky3PR+64f8RycNtdgBxobk1emH1Z8iU/z4A9uMlEwS+NYdHHmbnCNWWHf929uGRQzLoT7jCfep3oW/z13DBQVqaVuXmwoUTd7GQ8/aD6nzV/u9/F8St9O7QTQoWOPXr69CGb32OF50fzOknadR/B8v6cX+1WHXZ57vnZ9D1LZEyXVpXLPdXOZhgmiX5wDJYjOJjWDlkXzY1HxJe7bTcINvUv9Z7OBm5r5vjB5DwQQGKladhEOdTQgdDHO/1TROP9iQ4kz0bvTlO28+fEx9TcH/UapUzsBdOjBWhB91eGvid+xndNTFyMHEYc4p2qRdyH31UnsyqqH5zc67GPa3bqRVO5rdXM79b9TUBCdLtR8Hnp41QwI991mvjNhMEQ2m2v9+ed/lu4IFZgpAgqxKuz7zt0yRui3iq5lq+kXHrulVKKmIOXFXFgO9LLZsXC0eX0ejbrM2RChagLo0JMOA3UR3Gx3nRf14so7s4fYKdZ3uuMuO4arnp7fRXSORvT4bCSVe762KMOdNEwQ/TRnYIB7y6vTd1PdZy+fCKLzjQmDeC48G7BZM0VAIVaFfV/noN/9fa9d6m4ssSywLn1PpHJ/6s5SQd2Mermo6JLaILqx24beizll+/Oef/VvSp8pEECHHuWdvPcN1MX/GwOb183nRSpw1/maCJ73PQCOe3DQ89nwjyt5hKtM5d7WzViEMtCg5EQQnQ0Prncrv0xBdK5OGszTOM49by3dFSqrX8BmCerdvT06VRKdqi0gciJddKd1Utn2p8ZU2VE/4+P4rbvXweP8Xuy7Lq7yMYJQPQF06NkNguirdDnxGi+iCJAf5P/+l+b//SnvNN9pPnF+93EfZ3h34fxoL17y8wF+9eEAO/W3Onyelj0+u6v8TI7FxlK5r13jQRpmoYAgOhuTd48cVH6Zgui0kwbxjnXOJXRnrggoQGlj4gd2xt76fR/zB32mpp2qRWXXc5H1UICukzr5NNdJ+hnjt5upahNj+g8WY9x+DLy263yI9u2Fu8BU/KQIYBg5/fSzdBmoi47QqtRg+B2uPTraQ0x2v2/KeHeA+/xHV39+LKoY4P7FIGk+kscp6s/DTWcUyGeTD3GW7utYHKOFZEODqpNUf0rrAyufJ/2Mxzv2YxrfZPrr5rk8LLxsx/Su/544e2+noHI9Tv2nV5xUGQ/QBv1RyNctvl26wf34b2FfedHckwM16Yf3dZbnDkoMrrxo7vFxgWUe5V3bAo+Yc9vJR15x/2ckxpgnhX3t4vszOQtHrYsWPuU287Ua9sO+56s07DxP7D5/6G4wFXagw0ByyujYQR4Bs+WEgudbA3W0o3yHmKDocqA/1OCv2lTua/XzYoCd+l+B/6ypIycJNiBPyr6v/DLtRJ/25MFYd6L96Q7xnf5oaeZ27l3bBm2lsiaxp7Czq7TA2L7zvH9YzyKIezqR53dMakwVfdFme59tpF4ep/KC57WM75cVj+8vAsOxiNdu9OvHvrnuxeLx/YG/jt3nTIoAOtCbvBv7JA0z2b3b87nnrXmHf/bZEPcxL/YY06B646nc83V+Giil+74gOht0MFRb0aOTvNueCU0gpMvA1VgnV1buEpU9G1JN/7UNejbyNmiqSuzv7Ltt17/nc9/uXZKyvXc5SFdjX0YQfTP18rnSGFTtGQvnzec0gsXq6ue6F32FIdO1/2UsIwMgUyOADvTpVRpmommIc89bT2q8kZE9IY1rkuokL9Do4lqjc7jT8/VGEP1dV9fEdOQ0hTup/iB67OI6MciexATC2IPnFxML7hSV+VURfA4evMtjmtLeN1MI9pfY9v5qF/pX9WyeLgMF+0pjULXuMBREv1u9nOX+t3o5/Pg+3nWLCVxqBIs/TjXbXO5zxhxH7DiPhStj6SvYfc7kCKADvTg/2ns2UGc7zj0f8gydLierVgPf1jGd2ddJKvfWQCndY7fXB0F0NjDIjiD6biovteltxTvGhFjlEwmpjF2fztekNls5qDXl9ifandNU7m78Kbwb/13ofbGbM30OFrzK7/mZEhl8/LBI9S4IbIPosojcrG46SmF8Dicy3riY54sg8lQC6bFYZS1V+5gC52Fp9zlTJIAOdO78aG+eLndq9C0GfAcDXvcsdTtZNegkUQ4qj2n1YSep3Neud4iU7heDe0F07iuvVN+ZwEA76sxHE2JVTia0wautAurbmTvGN5T8bEw2yJcnMqP9mRV+HfPKb9Wy0O+9b4HK5wDdM6+JUal5p2EbRJ+7zd+sl45SGO9YI8b0byZ0ydH/agPpVaZ2j7Yo17ePaRyp2qf2ToBvEkAHOpUDf+8G+vVDnXu+Piir2pRSua9d8yL1mxJbEJ1NDbTbTAq1B9GjrpzmM2qpY0Lhoh1MZQSv7D7ne+1wyc/HfGqBhrwLKNqeWhYPzCq/ZauCv/skj6HJdexdni+o8fl8XPg7a5HqPpbmIrORMcO1dTPe97UdpVBVG9vUz+M0vWOjZrlP9kc+vm1eeD2LDE+vcpr2sR+RsGieuaXWkSkSQAe69mGgjuqLAc89b3UdQB9L4HoyqdxbA6R0v9hVe360Z1ct9x1oTyWIHmIw+k5K97LldH2nqZxJL7vP+ZFVwd/9ZCo3KQdUou2ZV3RZTyrv46wKrl+zKdWvXMeOU9nHItx0bFq6Kew4jDGDY6DSX3ad13iUQo1zKQcTflxjjPgh70p/VUoGurWg+Wn6knll7HUt5o4ODeGYKgF0oDPnR3snA3VSl3ln9NC6nqQaRQAsB5Nfj+jR6zSV+9p1953SPQb0v2pZuK+JBdGjLfgoPWOZ8gTeiZKgMquCv3t7LmPN7U676/xVqi9l7RTehSUvYnqa33u1v9v3826756n+tNDF17kJ7EJfv1eTOWf5G3Uz3u9RN/crvsZZZeP6ZepvU8do+6bpMgh9moPpsTP96VgWxOR+5X7+Xn+kL0HzkhZ0HBSeRQvuRQAd6MT50d7+QB3veKnvjqQYtnq41rF4MbKB9UlfKc97Tuk+17qwocH2lILobXrGV3aWlCFPNJSaNvJ3d5DKn5HntS5KqnTX+bpZbcGDCuvXfq0BvHy+ayxOiUUCtT+H69ddw67Xqew8vMhml3ejT+kZtail/PopuJn7OXn8GMeCRJr30xy43u+j75rHsPN8Tvu7HDD/mN97+4XWr/d//vmf9x4tpuwnRQBsWk4zPVTq9p1HL98uR1AGs9xR6kxznT+N7L7P830fTUevKaPdHq8/nvdXqfuAzy+x+11Lw4YGeUO210NYpcsV1Et3f7TP5NM8yVDqM/kin0lY+n2IdmFewFddNuW9U1jZ7qfyMytEP2QnL8aqod2Z5XsyT/Wroo36Qb/mtIJLibNGDyq5J1GvnqfpLgR+3dzLwwru44cJ3sNF8zmsdedl7o9E3ZxN6J5GMHC3wnsZ46d3RpI3ng+IT/Rh/1z7+9bZdXU+9y/a8Wn8bBdHPc5/X2P7GOXw0O5zpk4AHdioHEQ8HagT/mIkqdtTTiHeaQd2bAH0fN0RQH42oq+025TT+57LIAaiXab97P2aqFseDL5LE5s8SVKRje05vNj1k8o/C3W3hlX6ecdECYsYYpJru8A2t4YAX/FB9NzuRL/1+YSa21Vzzx5W/j4ppf2quq+Sg3P/SDJoVVHn8kKjjxO8f1H/Fs3nTXMfV5X0t6Nu/jqxsd+6hzXcy2vu7djm4ijfrt3nIIU7sHlDBWHGcu55q+vzz8fa4Z9sKvdWDyndtxJsUA5+bKeyzw29rfZs9GNPwPDyJPvHVH7wPNSyKKOU4FNx78Tc5n6q5Bn5UGp64rV2Z0rB8zCbwBm/tUz2xjvxtKQjEyI4F0ch5HTQU8nqcJM6V3xQKwccX0zw/rULrdqzlUt9523F98/vvQi0ziZcJ2t9749tLo6yvRY8h0sC6MDGnB/tHQ80SI5JyLGluOt6YDXKjnFOLT6me9HuaOy7HNrzpRcd/PFPEmxY3t0Uz+xyQpcd7UOc5ftxAsGEUcqTee15qLUcI7Cq4L7MCvu+JT47tbS1bRB9v6DnZX8tuDeV40uuqn3RwO8VXcss17F3Y26bI31wDs7F7v+pB+eurXOVnIX+Ok07QBfvutN8rvKzsfeXcj/7OL/zTlO5ZzBv/D7mlOc1jud33V424KyGo0dgUwTQgY3IKcuHmow5ePTy7dgGcvOpPgv5DPoxrVR8mp/PvsvhU/OJxQTx2eROMzvQ6WzQnc8SXkzs0mfN5yRPhs09Cd3LO9Riov20tvdlJSkht3zfzv2zosf+QW5DT8a8mOFK4Hw28WZ4VnkGlhp3TLWZc07GErTLwblXuV5FFrp99/e77eSH0oPoOUB3kIj7+CrXyTaYvjWSevl0rV5GP3tqZ5zf1EmN476c5Ugd5T4sxIArnIEO3Nv50V4MFj6kYVazvn708u3hCMvjdGrXfaUM4ln4mMazwjk6gQ/zDvmhnomTtLlJ/u28yx06kVNNvpro5S+bz29//vmfhSdh489Vmwbz11TnDphazjkt7QzFF025HxdWxrNU51my0c86HEv76azXH/cnSz7D/gf3PgK6Tyu+d3Hf3jSf932dkZ7brXm6zIb1dKD3eJvl64+C28h4Z73WT6jSpzyOiCwYsYNz2UOd3Mp1cisNlw2y5D59cX3IGz4bJ6m/RU3UZafrtgtKI4AO3EsOlH5Iw+z+OXv08u32CMskOqpdpw1/MbIz368rh5hYeTeir/S+KbPdgevKqw0NZHaba3EeEV0PvJ+maae4XaXLSZWFp+Hez9IsfQli1fw8LXMWh9Lv12kqa1d3TFJvK2ft55X3199Tf5PHpQYQLo5vqTGInp+Bd2ka4v4t05eg3WpD7+34zJvP49xWzUbwvD6MBQPN9/uvNtI7rKB7vcr19M+1v1/vw3z6Th1szfPPx/l9Mx/J9UW/90MN9TH1uCCph/o55Dwt5Tow9wFfE0AH7uX8aG+olY3Rsd0eYer2KJM+VmSPPoCey2Jsuz8GDzxvYIHFsrmGnQT9DL43nT2hRPG+iYHkm0rSc/f9/PyaprMDIibediu4Z6cFfvWHpdXPiWT6iPbzfW4/zzosyzaY8PfU/87YSJX6pOB27iIlc3N/qluYmVMYzyb6Cl7mn79/45/PrxbXWl9vPtLn9GKxR067/KGS+9S2kXGfliW9x3J/YagshIzDxe7tCha0FF8fv9M3+qiOckOvnXsO1xNAB+7s/GhvyIm/0e7AbcolBpLzjn/NTj5rfOzPiFTu15dLTDjE4oLZHb7/KBeOUK88+I4g+lOlcZnePVW0Q6Gj5yWelX+kys43v4Hi00AWnPJx0ZT9QWFlPUt1pnH/Xh8m2tCLXbLpG7vubtjGbOXP47W/HsLFTp2CF578pQ7lNmy1gWe7TSX8JP8cZJd7Puf9uTdzFW3H52eosgD6Vav8+T1fd1zzp7FmiWjuxX7qPvMe43SxaLTyvkxbB4uoj995H1voQnXjKOiTADpwJ+dHe0MOXMd+/ncfK3CLCKDn8pDK/fpyuUtQUup2hhyAT/lc9KvaHQr/rHHX3h2fjzZl8lDnoo5B0QH0CoKAJe5Cr/2c5ptY789e3S37ZO2v28D5KOt7RbudL95t6XKBw9l3nt31+xHjwr+lLym/rzoc4sznCS5SqdXuel+r8gD6j5zlPmiI992/1/ql8e9Wfb8HnbU82edwJx+nMOX6uEpf0vFHHfzXlfo4imD7xI404Q798BqOIIMuCaADtzbwruKLzvrQO4i/UzZ9TT4/LGkXck+78m9jNIHoW2RyGEXgn2nLAba7ZE+oWburMgIOk9mZPnDK5LGKycRlwfez9LMSizsLfeITzyX7aqdOcy/7OMJpsLqV3/t3becHm5wV3CveV+exaje/a5CFfM5Dn9y4Z7tdqKE+jvPdd00djfegbBFc17/bkVkPvu9/FAFwB0OlALo4o2+swfOsl4FjgSm8D9KX1fJjcJIXggyuuZexIycm/L93T1e5DGFQeRV9PK92XX/RpiyPSYk/YhIxAimx2j8HJasQ1xKTZJESN0+U/pEuF1PsJ8HzGpyk8ie/t3KwrKQ2dZkuJ68ox7fSXL6p+Jq37tnOzwd8H77wyBbrq+A5o7Xzg7EsdWiPU3CvyxvDR1tqPol1gudwQwLowK2cH+0NOcF6+Ojl27FPMj72lHwtB/zH1GFv06ePpXzaoGQMbJbp68UGY184wrQG4JGObjeNb2HMWMQ7MnYhRnB5PaC+n3fwFyEHy59FQHItYB4L6J4nu4y+NxFRlLwwIu5rLWnE9/MzW9KijjeqTjG+eUZkDigsFdE3zQfqs6xy/5qyfC94Plc84xsbND92jQsmUS8t+iu3ni6SIDpfxqyC53BDUrgDN3Z+tLefhgs6RgBxUUAZ9ZGq/Kwpi+1Cn6GxpVEc9ZniTXnFs/SpgIUjTFQ+X/Qkmcy8y6B1lS7Pylvlz1nfg9icdjHl+/dzugyMz5IU/XfS3L+fCqu/81x/Z5XWscNSUupLf1uEH+6GlSL1u765+KCnvkrUMdlSKqhrkQknXS7m42uDpHBfuzfxHvugrk2nXqqP3zXKs6X1VTyXzWdX8Bxu7n8VAXAT+WzvVwP9+kUJwfNs3sPvKLmjc5jLaDaS7xOp3Jdj3d3dfK+l1ocxyzu7dmKncrqcPDFhdjNb+fOXXb9NOcaPVfqSBjN+/vvK/7v+76+afaN9fbx2b7bcp04Us9ApB86fp7oXvlxM4jfXGv3HFwWkG43+kTNEx+tGqaTjv8lnoWtjvxbvu0EC6FH/m/vyJgnyjF2Mxw6lbS96XHDW1LWo5++UxvTegRRTTxd5zCmIPj2DLWaEkgmgAz+Uz4qOQdAQk0ERPD8opJzsHPqBCFQ35RTp3U5H8pXaVO677g7cayD+uhmIRzaHCBw8VSL3Mkt2gJdo1IvbckrzqJv/SNPKGLGfLtO6L5ufvzWf92PccRE75XMbqv0cn9sGDgRqv9Hnjt2pQ6X/jV25ze//h/frqN+hO9JDVzEmeJ+D6IJz03wHUkY9FUSfHsFzuCNnoAM3EcHz2RAv+FKC51lfAfTfS36YcjryFyP6Sk/Pj/ZMWMP9B+KrfDZ6fFZKhIlY5Xfa6BZiRbAqn2Mf/bg4w37Kxy3M8/X/EeWRy2VsCx9jF7p0iuMR92L7DoGD1+7jt/vcA/9+E8fjrWu3CZ7/rMhGPyZYqG9VEDyvv57u6LNMpi5rk+GOBNCB7zo/2jtOw0y2vi8seB4ee2Juprm38VwtR/SVfnVXYGOD8dhFuZ0ugwhQq1W6nIx4GDsbh97VnIPlT+MsyuYTqcsjYB7ZXmSF+NrTXC6nUU65vI5z+c0GbDvjmXrh9oymft9pN2xuC94rwmv9feD+yVLfZHSijj28ZV2T9a2M8cAiCc6V6lO6efDcgpay6+ky19OV0qi2Lu9YCAP3I4U78E3nR3vzNEwKwhhAl7g6rq/BfC2D0LjHMbnvnEiobzB+cY5lPnN0yrteqc8yXZ6pvez7F+fg7ix9Ocf+Sf4pmHB3D3L7NF8r57Yvumo+/8r9rou/7/os9XwcRtxXix6GE/d6556LYl7ke6iPe2WsFMdJDLngqPnd0TeZazdHIRaaHIzxWA02Vt/ieJIIzn3QHhbjthkhtKXl19Ozpp5u53rqftbVn93teuwCU2AHOnCtfO75EOfhXExaxVnZBRbbvMcyKl5zj6MjdzCxewdTG5BHwCkmzqxsp2TRJ1mky11yO0MEz7P9dDm5Fbunn+d3l4mubkS5Ps3l/CqX+35Pv/tAezmYOB9y+74BvTxZ+UZxXmsMi0N2k12xQ3sdx/4Ink9iLHCWxwHOtx+/dgGZezW9evop+j95vEMF/dlcl40nYAME0IFvicnC2RAd9hKD5+dHeyaw76C51+910mESg/JlpLpOAkOUZZWf2QicH5iEoKf2MvrBAnz9atPVbnJhp7PQr/dgBHVslesYw9W1Q0UxqfdaG0RfKo3RinsjeK6uHuSxj/5L4f1ZC9RgcwTQga+cH+3FzoD9AV70pe48D30G0FeVPXKHY7gmiyCgl0H5QiCdAizS5STiw/zMmoCg77byLPeP6KdfvfHzIXO74Uz7K21rHFMwkjq2TGUeGVaysw3VtZmiLPK99ilnpXqtNEbndc6wpL9Lym20rBHliX7NtvPOYfME0IG/GCh1e+nB8/C4r1+UU59XI9/3MewCcS4b9DgwF0hnZNqA5S951f5SkTB0O5kE+LoWZbzd1Y67HCw2AX3pxYZ3+Ktj5dW1Te1unSnOot9th0mWlbG4mIe5Z0YI9bHOenqWU7pb8FJOH0vKduiIADpwVQTP+wwktsHz0ieX7F6+h3z/h96lY/AH/Q/OBdIZUvRBYmJoO597/NruG8bWRiYBvq7q/m5PKS7dv8t0oscjrmMCBHXUNcp5t8UxbhGcs8BoOMvc/31/zz9npiirrquxuGLHOH3U9fjhWPtYUAsBdOCznLr9ac8D6hqC52HeYwepSs1zcDzwINrgD4YbnLeBdOcj0kffY5EuJ/Rjt/mh8x4Ze/uYBGE33ZfeRNDgpvdvDItEh2xvd8aeTjQHCNSxburaw77qGsW921Z5h6ujLvpntyq3qasX/SZ1dXT9qwP1GPohgA5cGCh1+0ENwXNnZ2/UkOncflb8MPwAPZ+PGIP0hRJhg2ICPwIkD/NOOBP6lNQ2LpIA330NNtmYdwYtJ1be7XnXS3Vs0nXNrnNu0j5uJwto+xBlvG23Kneop5/yc/NQXR3c6zyeXSgK6IcAOtB6l/pN3R7B81omr/sMoFc9CZHPdz+cwH0Evj9IP8tnpf6S24SVUuEO78s2aB47zXdzpgOT+ZTaLi7SZZYOz/DtRdkNPdk4pTN/o+3dKS27R34+ttWx8da1n3/+v5ki/uws17UX+d3wS6mB0dzv38l9fvWvmz7xYV7UIutSN1Zr9XE3t4M7FfZFV/m6do3Pe7fMz9Wh8Sz0638VAZDNe/xdETxfVFR2j3v8Xf+q/UGMZ+P8aO/vqd/jBIBxDtLbM6pf//zz/8V76h/NZ1/J8A1t0PyfdphTaZu4bNrCCPDFwlcL/35smS5T1S7H8D5r7l1MOn9I/S5a7rsNjvJ+XXAdO2vu08Ncx+aq0I1FUO6wh7o2m3BbtspzAWelZHa4Q/2L/v6i+cvnzeeZarURi1w3Nx5wy2OzqbZ38fl3rptnUwto5nHW++YZeJbr6wNVrf6+LEyVADrQt9qC52Hutm7+OUmXE8Mz9xHIA/UYNEbwKHanxAKbX5MAEpcTWP9sPu/tqmEibeGq+bHdtIWvkgDDt0QZvRhbesscnI0+7rtK2+KDGtrhHAjZae7VcboMDPBt7c7WhaLYWHlGHfo9t2NnU+vb5Pp32NS/N83PV8mi+rta5rqpb3z/cowyjMUrK0HMr+pru+jlWR6bC6Rv9tkTOIcREEAH4gzveU+/alFh8Dz0GcBZTeGZbJ6TT81zGROMH9RQ4MpAPSbW4l2yyKk899PlzvSZ0pmEeA8u0+Xk8nsp7JhwWxgBhlg8cqL9+2z0O6Bj11YOop9UVOZvajxTN66puVexyy6CeHPV6+v73nxeew/fqz/TBuYudrTmBVKkz4vFdvMu5+fq4I0tk6DbXdu0dvFK/FxZfHCrsXm8L6Pv9cy4/N4Wzec3dRjG4ydFAOQAeteBygieHyi7e9tpynE5oWfzOPW782O7KV8DJShQM2jfygP2pwbtVYlJmXjvtQHz1YSf8b7fifzVi7EGCfOzMeWdP9EuRDBvUUowr7ln8a46KfyeRXD5cArtcnO/9tNlIH3qu+sGDZznYGqJC6wnn/J5A/d+lvtA+0rjWsvUc+C84Pq4Sl8Wr0R5rSxe6eSdKVvc7d6ti3S5INGzCCNjBzoQZh3/+VUGzzMdwg41z81xPg+9r3KWcgoKlXcJXJzBmSfZIjgR7cdc6RQlJg2WKe8AsfsDbtT+Ha+dG7s/oUuP9uFNiemj8070aO/epfIWffV13vWY7tci70afapraeFbHsEilhLH3Mkn53EUdjGfwoKmHL/J7TrroS/H+G2q3agnlf5a+zvRg8UoP78x0mS1uK9fVp+rrN98XvyVZ1WDUBNCBMOuyQ19x8Dw8GWAAMDW7zee0pw73THMAVQzaV82PSCMX57I9yIP2aK/n6vmoXE2XuDR5APdq99rgQu2B9EWqIL1lPhN9O13uRC/hnN94xl5M9bzriaapXea6NpZ7PqYAjJTPw73rjnNdfJq+ZJ+akiiDCLotBt6tOrYFLcu0FixXH8fRz8l908NcT/+RLG6POhsL8uw2h0IIoANdutidUPk19jpoiLPBp/YQNde8Oj/ai+eoj7MidWChvoH75zPT4+/zSvgYuLcBdavh+3F1otlZn9BNmxf1an2XXi1Bvmg32oDBp4ruV1zL7shThC/TuIKoY7hnx+kygNfWsXlFlxhtiMn9r8tEyufx1cV4Tt+vLZatOTj3KdfLf+brNqYwpihyPD7RTHHte/U3CzugPM5AB+Kc6Q8ddFyiU7BTc8C3Kbfo+H3sc6DQlOcvE35O36VuV5cvm/Ld0SLAtORBfLwDI6C+lRzNce93VfrrWZ/SJW7uWZ0nuzaGtCx1x3PepRcTlfuFffU2aP5+IudsRxAodjY/H0lb3gZRTfberC/RBvBK7EesUgGT+005H/dQP6R8Lr8dXQ/OlbxQdtRB857q4yr9dfGK+lhnfX2S6kvzHnX296n0YaFmdqADXQ06dyawW3prgHKdsoNc5rOO/vwXqi5MTx7QLvKnHczPc3vzOLc5cyX1F22QPH5enPGZPya1un1Wl+ly8hBu++y0u/QOc3vWBhZmI/uqbbAgJhyXU5twXEsRHu+j/TTMGb9tsGah5ty6L9EeHRP1aj0gMFbL9GVyf6rjzGWS8rnGdvRzvz5nnnqa+/TzNP4A3ZTr5TKPJ9r6qM87rfp6cCVTXJdzf12Njdv+q2cXKmIHOhA7e0/T5oLB0eHdnkKq8abcIs3isz4HFFPfId2UeXSmPyhboG95QnyWB/U/rw3qZ5VdajsBkPLPP9f+2SeTy1BVu9ZOVD5Ow2TgWKa1nWV26Fx7j9qdlF3tzDrL9+F3aYE7u4fzK/VsiH5DFZP7TVneNXOelM+sv/faetgG6YYKqsezuGqfy9LqZVOWd80QuJ6tyuIVbjr+bhe2D53lZbVeb71PoH52oAMhAocRCL7vLoeLM/wmdE533x23yXfKmmdreX60FzvFN50qzO5z4LvywDg+y+8M7h+svRser71T23/fp3aH+Lrfr7yzz9aub+kuw+TatbN0JcNRDva1bdbfrmnbbjs2uLogJ9oai3Fufo8usgekv+7MWp9EvunYrX0n/N7eF+1+b/dwebXvcKWetf2Fu9azdcu19/3nINXEssOskpTP3OK9t1Yn1+vgk/zzPvXyundguyC1hvb3wQ3r4yoJNrLB8XfuDz1Y6wf9bW2sfd9FMetj6N/X3636TTBNdqADn50f7bXn7t0lkB4djEjbfjah8vpvz7/yRVO+x57UjWZNiOf1TVOuC6UK9Glt4H8Xgk/A0G3Y/Jp/vDIxPpp3ivdEnXVs0v2BH/WdBDfo6TmcpesXxk7qHXiDsYzFK4z9farfCvyQADrwlTsE0qcYPI/BwmnPv1YA/Uv5x4A1UujfJQ1iPKe/NZ/3TXnqLAMAAAAAAJ8JoAPflAPpkSr7W+d8L5vPb1PcvduUTZTJq55/baTHdzbh9fdjni6D6X/LP+dX/pNVukx/+UbQHAAAAAAA+BYBdOCH8m7fCKTvp8vd5os08UBkUyYnuTz6FLv8l57IWz23EUxfTSk7AgAAAAAAcHcC6MCNRUDS7t3PZfEx3T51+H0JoAMAAAAAAHRIAB3glnJq+z/6/r2PXr7VZgMAAAAAAHTofxQBwK1tKQIAAAAAAID6CKAD3N58gN+5UuwAAAAAAADdEkAHuL0nA/zOlWIHAAAAAADolgA6wO1J4Q4AAAAAAFAhAXSAWzg/2ovg+YMBfvWZ0gcAAAAAAOiWADrA7Qy1+/xPRQ8AAAAAANAtAXSA23mgCAAAAAAAAOokgA5wO+8H+r1LRQ8AAAAAANAtAXSAW3j08u2q+bFQEgAAAAAAAPURQAe4vd8G+J2fFDsAAAAAAEC3flIEALd3frR32vzY6uv3PXr5VnsNAAAAAADQMTvQAe7mjSIAAAAAAACoiwA6wB08evl2kfpLq75S4gAAAAAAAN0TQAe4u752oa8UNQAAAAAAQPcE0AHu7nVPv+eTogYAAAAAAOieADrAHT16+TYC24uOf81Z8zlQ2gAAAAAAAN0TQAe4ny7TuEeA/iAH6gEAAAAAAOiYADrAPTx6+TZ2iC86+uN3858PAAAAAABADwTQAe7p0cu3kWL9cMN/bOw8XypdAAAAAACA/vykCAA24/xob6v58a75zO75R71+9PLtoRIFAAAAAADolwA6wAadH+09aH6cNJ+nd/jf3zef3x69fPteSQIAAAAAAPRPAB2gA+dHe8+aH69u8J/GGee/NZ/Fo5dvPyk5AAAAAACA4QigA3Qkp3T/0HweXPlXESiPXeZvHr18e6akAAAAAAAAxkEAHaBDOaV7nIs+bz7LdJmifaFkAAAAAAAAAJik86O9mVIAAAAAAAAAAAAAAAAAAAAAAAAAAAAAAAAAAAAAAAAAAAAAAAAAAAAAAAAAAAAAAAAAAAAAAAAAAAAAAAAAAAAAAAAAAAAAAAAAAAAAAAAAAAAAAAAAAAAAAAAAAAAAAAAAAAAAAAAAAAAAAAAAAAAAAAAAAAAAAAAAAAAAAAAAAAAAAAAAAAAAAAAAAAAAAAAAAAAAAAAAAAAAAAAAAAAAAAAAAAAAAAAAAAAAAAAAAAAAAAAAAAAAAAAAAAAAAAAAAAAAAAAAAAAAAAAAAAAAAAAAAAAAAAAAAAAAAAAAAAAAAAAAAAAAAAAAAAAAAAAAAAAAAAAAAAAAAAAAAAAAAAAAAAAAAAAAAAAAAAAAAAAAAAAAAAAAAAAAAAAAAAAAAAAAAAAAAAAAAAAAAAAAAAAAAAAAAAAAAAAAAAAAAAAAAAAAAAAAAAAAAAAAAAAAAAAAAAAAAAAAAAAAAAAAAAAAAAAAAAAAAAAAAAAAAAAAAAAAAAAAAAAAAAAAAAAAAAAAAAAAAAAAAAAAAAAAAAAAAAAAAAAAAAAAAAAAAAAAAAAAAAAAAAAAAAAAAAAAAAAAAAAAAAAAAAAAAAAAAAAAAAAAAAAAAAAAAAAAAAAAAAAAAAAAAAAAAAAAAAAAAAAAAAAAAAAAAAAAAAAAAAAAAAAAAAAAAAAAAAAAAAAAAAAAAAAAAAAAAAAAAAAAAAAAAAAAAAAAAAAAAAAAAAAAAAAAAAAAAAAAAAAAAAAAAAAAAAAAAAAAAAAAAAAAAAAAAAAAAAAAAAAAAAAAAAAAAAAAAAAAAAAAAAAAAAAAAAAAAAAAAAAAAAAAAAAAAAAAAAAAAAAAAAAAAAAAAAAAAAAAAAAAAAAAAAAAAAAAAAAAAAAAAAAAAAAAAAAAAAAAAAAAAAAAAAAAAAAAAAAAAAAAAAAAAAAAAAAAAAAAAAAAAAAAAAAAAAAAAAAAAAAAAAAAAAAAAAAAAAAAAAAAAAAAAAAAAAAAAAAAAAAAAAAAAAAAAAAAAAAAAAAAAAAAAAAAAAAAAAAAAAAAAAAAAAAAAAAAAAAAAAAAAAAAAAAAAAAAAAAAAAAAAAAAAAAAAAAAAAAAAAAAAAAAAAAAAAAAAAAAAAAAAAAAAAAAAAAAAAAAAAAAAAAAAAAAAAAAAAAAAAAAAAAAAAAAAAAAAAAAAAAAAAAAAAAAAAAAAAAAAAAAAAAAAAAAAAAAAAAAAAAAAAAAAAAAAAAAAAAAAAAAAAAAAAAAAAAAAAAAAAAAAAAAAAAAAAAAAAAAAAAAAAAAAAAAAAAAAAAAAAAAAAAAAAAAAAAAAAAAAAAAAAAAAAAAAAAAAAAAAAAAAAAAAAAAAAAAAAAAAAAAAAAAAAAAAAAAAAAAAAAAAAAAAAAAAAAAAAAAAAAAAAAAAAAAAAAAAAAAAAAAAAAAAAAAAAAAAAAAAAAAAAAAAAAAAAAAAAAAAAAAAAAAAAAAAAAAAAAAAAAAAAAAAAAAAAAAAAAAAAAAAAAAAAAAAAAAAAAAAAAAAAAAAAAAAAAAAAAAAAAAAAAAAAAAAAAAAAAAAAAAAAAAAAAAAAAAAAAAAAAAAAAAAAAAAAAAAAAAAAAAAAAAAAAAAAAAAAAAAAAAAAAAAAAAAAAAAAAAAAAAAAAAAAAAAAAAAAAAAAAAAAAAAAAAAAAAAAAAAAAAAAAAAAAAAAAAAAAAAIBx+H8B2oNDAgAAAABB/187wgoAAAAAAAAAAAAAAAAAAAAAAAAAAAAAAAAAAAAAAAAAAAAAAAAAAAAAAAAAAAAAAAAAAAAAAAAAAAAAAAAAAAAAAAAAAAAAAAAAAAAAAAAAAAAAAAAAAAAAAAAAAAAAAAAAAAAAAAAAAAAAAAAAAAAAAAAAAAAAAAAAAAAAAAAAAAAAAAAAAAAAAAAAAAAAAAAAAAAAAAAAAAAAAAAAAAAAAAAAAAAAAAAAAAAAAAAAAAAAAAAAAAAAAAAAAAAAAAAAAAAAAAAAAAAAAAAAAAAAAAAAAAAAAAAAAAAAAAAAAAAAAAAAAAAAAAAAAAAAAAAAAAAAAAAAAAAAAAAAAAAAAAAAAAAAAAAAAAAAAAAAAAAAAAAAAAAAAAAAAAAAAAAAAAAAAAAAAAAAAAAAAAAAAAAAAAAAAAAAAAAAAAAAAAAAAAAAAAAAAAAAAAAAAAAAAAAAAAAAAAAAAAAAAAAAAAAAAAAAAAAAAAAAAAAAAAAAAAAAAAAAAAAAAAAAAAAAAAAAAAAAAAAAAAAAAAAAAAAAAAAAAAAAAAAAAAAAAAAAAAAAAAAAAAAAAAAAAAAAAAAAAAAAAAAAAAAAAAAAAAAAAAAAAAAAAAAAAAAAAAAAAAAAAAAAAAAAAAAAAAAAAAAAAAAAAAAAAAAAAAAAAAAAAAAAAAAAAAAAAAAAAAAAAAAAAAAAAAAAAAAAAAAAAAAAAAAAAAAAAAAAAAAAAAAAAAAAAAAAAAAAAAAAAAAAAAAAAAAAAAAAAAAAAAAAAAAAAAAAAAAAAAAAAAAAAAAAAAAAAAAAAAAAAAAAAAAAAAAAAAAAAAAAAAAAAAAAAAAAAAAAAAAAAAAAAAAAAAAAAAAAAAAAAAAAAAAAAAAAAAAAAAAAAAAAAAAAAAAAAAAAAAAAAAAAAAAAAAAAAAAAAAAAAAAAAAAAAAAAAAAAAAAAAAAAAAAAAAAAAAAAAAAAAAAAAAAAAAAAAAAAAAAAAAAAAAAAAAAAAAAAAAAAAAAAAAAAAAAAAAAAAAAAAAAAAAAAAAAAAAAAAAAAAAAAAAAAAAAAAAAAAAAAAAAAAAAAAAAAAAAAAAAAAAAAAAAAAAAAAAAAAAAAAAAAAAAAAAAAAAAAAAAAAAAAAAAAAAAAAAAAAAAAAAAAAAAAAAAAAAAAAAAAAAAAAAAAAAAAAAAAAAAAAAAAAAAAAAAAAAAAAAAAAAAAAAAAAAAAAAAAAAAAAAAAAAAAAAAAAAAAAAAAAAAAAAAAAAAAAAAAAAAAAAAAAAAAAAAAAAAAAAAAAAAAAAAAAAAAAAAAAAAAAAAAAAAAAAAAAAAAAAAAAAAAAAAAAAAAAAAAAAAAAAAAAAAAAAAAAAAAAAAAAAAAAAAAAAAAAAAAAAAAAAAAAAAAAAAAAAAAAAAAAAAAAAAAAAAAAAAAAAAAAAAAAAAAAAAAAAAAAAAAAAAAAAAAAAAAAAAAAAAAAAAAAAAAAAAAAAAAAAAAAAAAAAAAAAAAAAAAAAAAAAAAAAAAAAAAAAAAAAAAAAAAAAAAAAAAAAAAAAAAAAAAAAAAAAAAAAAAAAAAAAAAAAAAAAAAAAAAAAAAAAAAAAAAAAAAAAAAAAAAAAAAAAAAAAAAAAAAAAAAAAAAAAAAAAAAAAAAAAAAAAAAAAAAAAAAAAAAAAAAAAAAAAAAAAAAAAAAAAAAAAAAAAAAAAAAAAAAAAAAAAAAAAAAAAAAAAAAAAAAAAAAAAAAAAAAAAAAAAAAAAAAAAAAAAAAAAAAAAAAAAAAAAAAAAAAAAAAAAAAAAAAAAAAAAAAAAAAAAAAAAAAAAAAAAAAAAAAAAAAAAAAAAAAAAAAAAAAAAAAAAAAAAAAAAAAAAAAAAAAAAAAAAAAAAAAAAAAAAAAAAAAAAAAAAAAAAAAAAAAAAAAAAAAAAAAAAAAAAAAAAAAAAAAAAAAAAAAAAAAAAAAAAAAAAAAAAAAAAAAAAAAAAAAAAAAAAAAAAAAAAAAAAAAAAAAAAAAAAAAAAAAAAAAAAAAAAAAAAAAAAAAAAAAAAAAAAAAAAAAAAAAAAAAAAAAAAAAAAAAAAAAAAAAAAAAAAAAAAAAAAAAAAAAAAAAAAAAAAAAAAAAAAAAAAAAAAAAAAAAAAAAAAAAAAAAAAAAAAAAAAAAAAAAAAAAAAAAAAAAAAAAAAAAAAAAAAAAAAAAAAAAAAAAAAAAAAAAAAAAAAAAAAAAAAAAAAAAAAAAAAAAAAAAAAAAAAAAAAAAAAAAAAAAAAAAAAAAAAAAAAAAAAAAAAAAAAAAAAAAAAAAAAAAAAAAAAAAAAAAAAAAAAAAAAAAAAAAAAAAAAAAAAAAAAAAAAAAAAAAAAAAAAAAAAAAAAAAAAAAAAAAAAAAAAAAAAAAAAAAAAAAAAAAAAAAAAAAAAAAAAAAAAAAAAAAAAAAAAAAAAAAAAAAAAAAAAAAAAAAAAAAAAAAAAAAAAAAAAAAAAAAAAAAAAAAAAAAAAAAAAAAAAAAAAAAAAAAAAAAAAAAAAAAAAAAAAAAAAAAAAAAAAAAAAAAAAAAAAAAAAAAAAAAAAAAAAAAAAAAAAAAAAAAAAAAAAAAAAAAAAAAAAAAAAAAAAAAAAAAAAAAAAAAAAAAAAAAAAAAAAAAAAAAAAAAAAAAAAAAAAAAAAAAAAAAAAAAAAAAAAAAAAAAAAAAAAAAAAAAAAAAAAAAAAAAAAAAAAAAAAAAAAAAAAAAAAAAAAAAAAAAAAAAAAAAAAAAAAAAAAAAAAAAAAAAAAAAAAAAAAAAAAAAAAAAAAAAAAAAAAAAAAAAAAAAAAAAAAAAAAAAAAAAAAAAAAAAAAAAAAAAAAAAAAAAAAAAAAAAAAAAAAAAAAAAAAAAAAAAAAAAAAAAAAAAAAAAAAAAAAAAAAAAAAAAAAAAAAAAAAAAAAAAAAAAAAAAAAAAAAAAAAAAAAAAAAAAAAAAAAAAAAAAAAAAAAAAAAAAAAAAAAAAAAAAAAAAAAAAAAAAAAAAAAAAAAAAAAAAAAAAAAAAAAAAAAAAAAAAAAAAAAAAAAAAAAAAAAAAAAAAAAAAAAAAAAAAAAAAAAAAAAAAAAAAAAAAAAAAAAAAAAAAAAAAAAAAAAAAAAAAAAAAAAAAAAAAAAAAAAAAAAAAAAAAAAAAAAAAAAAAAAAAAAAAAAAAAAAAAAAAAAAAAAAAAAAAAAAAAAAAAAAAAAAAAAAAAAAAAAAAAAAAAAAAAAAAAAAAAAAAAAAAAAAAAAAAAAAAAAAAAAAAAAAAAAAAAAAAAAAAAAAAAAAAAAAAAAAAAAAAAAAAAAAAAAAAAAAAAAAAAAAAAAAAAAAAAAAAAAAAAAAAAAAAAAAAAAAAAAAAAAAAAAAAAAAAAAAAAAAAAAAAAAAAAAAAAAAAAAAAAAAAAAAAAAAAAAAAAAAAAAAAAAAAAAAAAAAAAAAAAAAAAAAAAAAAAAAAAAAAAAAAAAAAAAAAAAAAAAAAAAAAAAAAAAAAAAAAAAAAAAAAAAAAAAAAAAAAAAAAAAAAAAAAAAAAAAAAAAAAAAAAAAAAAAAAAAAAAAAAAAAAAAAAAAAAAAAAAAAAAAAAAAAAAAAAAAAAAAAAAAAAAAAAAAAAAAAAAAAAAAAAAAAAAAAAAAAAAAAAAAAAAAAAAAAAAAAAAAAAAAAAAAAAAAAAAAAAAAAAAAAAAAAAAAAAAAAAAAAAAAAAAAAAAAAAAAAAAAAAAAAAAAAAAAAAAAAAAAAAAAAAAAAAAAAAAAAAAAAAAAAAAAAAAAAAAAAAAAAAAAAAU7WCdT/XOGA9AAAAAElFTkSuQmCC;" parent="1" vertex="1">
          <mxGeometry x="350" y="-30" width="140" height="98.91" as="geometry" />
        </mxCell>
        <mxCell id="s1kYgqIjggECkqIjnE60-9" value="Amazon S3" style="sketch=0;outlineConnect=0;fontColor=#232F3E;gradientColor=none;strokeColor=#ffffff;fillColor=#232F3E;dashed=0;verticalLabelPosition=middle;verticalAlign=bottom;align=center;html=1;whiteSpace=wrap;fontSize=10;fontStyle=1;spacing=3;shape=mxgraph.aws4.productIcon;prIcon=mxgraph.aws4.s3;" parent="1" vertex="1">
          <mxGeometry x="30" y="129" width="80" height="100" as="geometry" />
        </mxCell>
        <mxCell id="s1kYgqIjggECkqIjnE60-16" style="edgeStyle=orthogonalEdgeStyle;rounded=0;orthogonalLoop=1;jettySize=auto;html=1;" parent="1" source="s1kYgqIjggECkqIjnE60-10" target="s1kYgqIjggECkqIjnE60-9" edge="1">
          <mxGeometry relative="1" as="geometry">
            <Array as="points">
              <mxPoint x="70" y="329" />
              <mxPoint x="70" y="329" />
            </Array>
          </mxGeometry>
        </mxCell>
        <mxCell id="s1kYgqIjggECkqIjnE60-17" value="Push the SoW&amp;nbsp;&lt;div&gt;Document&lt;/div&gt;" style="edgeLabel;html=1;align=center;verticalAlign=middle;resizable=0;points=[];" parent="s1kYgqIjggECkqIjnE60-16" vertex="1" connectable="0">
          <mxGeometry x="0.415" y="3" relative="1" as="geometry">
            <mxPoint x="3" y="20" as="offset" />
          </mxGeometry>
        </mxCell>
        <mxCell id="s1kYgqIjggECkqIjnE60-19" style="edgeStyle=orthogonalEdgeStyle;rounded=0;orthogonalLoop=1;jettySize=auto;html=1;" parent="1" source="s1kYgqIjggECkqIjnE60-10" target="s1kYgqIjggECkqIjnE60-18" edge="1">
          <mxGeometry relative="1" as="geometry" />
        </mxCell>
        <mxCell id="s1kYgqIjggECkqIjnE60-20" value="Request Multi Agent To&lt;div&gt;Analyse the document&lt;/div&gt;" style="edgeLabel;html=1;align=center;verticalAlign=middle;resizable=0;points=[];" parent="s1kYgqIjggECkqIjnE60-19" vertex="1" connectable="0">
          <mxGeometry x="0.2562" y="-2" relative="1" as="geometry">
            <mxPoint as="offset" />
          </mxGeometry>
        </mxCell>
        <mxCell id="s1kYgqIjggECkqIjnE60-10" value="Amazon ECS" style="sketch=0;outlineConnect=0;fontColor=#232F3E;gradientColor=none;strokeColor=#ffffff;fillColor=#232F3E;dashed=0;verticalLabelPosition=middle;verticalAlign=bottom;align=center;html=1;whiteSpace=wrap;fontSize=10;fontStyle=1;spacing=3;shape=mxgraph.aws4.productIcon;prIcon=mxgraph.aws4.ecs;" parent="1" vertex="1">
          <mxGeometry x="30" y="401" width="80" height="100" as="geometry" />
        </mxCell>
        <mxCell id="s1kYgqIjggECkqIjnE60-15" style="edgeStyle=orthogonalEdgeStyle;rounded=0;orthogonalLoop=1;jettySize=auto;html=1;" parent="1" source="s1kYgqIjggECkqIjnE60-11" target="s1kYgqIjggECkqIjnE60-10" edge="1">
          <mxGeometry relative="1" as="geometry">
            <Array as="points">
              <mxPoint x="-90" y="451" />
              <mxPoint x="-90" y="451" />
            </Array>
          </mxGeometry>
        </mxCell>
        <mxCell id="s1kYgqIjggECkqIjnE60-11" value="Amazon Cloudfront" style="sketch=0;outlineConnect=0;fontColor=#232F3E;gradientColor=none;strokeColor=#ffffff;fillColor=#232F3E;dashed=0;verticalLabelPosition=middle;verticalAlign=bottom;align=center;html=1;whiteSpace=wrap;fontSize=10;fontStyle=1;spacing=3;shape=mxgraph.aws4.productIcon;prIcon=mxgraph.aws4.cloudfront;" parent="1" vertex="1">
          <mxGeometry x="-220" y="401" width="80" height="110" as="geometry" />
        </mxCell>
        <mxCell id="s1kYgqIjggECkqIjnE60-13" value="Amazon ECR" style="sketch=0;outlineConnect=0;fontColor=#232F3E;gradientColor=none;strokeColor=#ffffff;fillColor=#232F3E;dashed=0;verticalLabelPosition=middle;verticalAlign=bottom;align=center;html=1;whiteSpace=wrap;fontSize=10;fontStyle=1;spacing=3;shape=mxgraph.aws4.productIcon;prIcon=mxgraph.aws4.ecr;" parent="1" vertex="1">
          <mxGeometry x="30" y="528" width="80" height="100" as="geometry" />
        </mxCell>
        <mxCell id="s1kYgqIjggECkqIjnE60-14" value="" style="shape=image;verticalLabelPosition=bottom;labelBackgroundColor=default;verticalAlign=top;aspect=fixed;imageAspect=0;image=data:image/png,iVBORw0KGgoAAAANSUhEUgAAC2kAAAMrCAMAAABeBcu2AAAB3VBMVEUAAAAgIDAgIDAjIzAlJTAkJDAlJzAlJjAmJzAmJzAmJzAgKDCvQEC9QEK9QES9QEO+QEO8QEMmJzAlJzC3QEC9QEO9QEO9QEO/QEO9QEImKDAlJTC/QES/QEIjJjAmJjAnJzAmJjAlJjC7QEAmJjC9QEO/QEAhITEoKDAnJzC/QEIkKDAmJzAlKDAlJzAmJjAmJzAlKjAmJjAmKDAnJzAmKDD/QED/S0v/S0v/S0v/Skr/SEh8NDh9NTt9Njp9NTv/S0v/S0v/S0v/Skp9NTt4MDj/S0v/SEh9NTtwMED/Skp9NTt+Njq+QER+Njp9NTu7QEJ9NDt8Mzm6QEV7NDn/Skp+NTl8NDp9NTp9NTr/TEx6NTX/S0t9Njv/UFCAODh/NTt8NDwkJzB8NTslJTD/TEz/RUX/SkomJjB6MDr/TEwnJzB9Njr/SkomJjB8NTonJzAnJzD/SUn/SUnNQkS3QEPmR0jFQUSNOD3eRUe1P0KBNjz3SkqhOz/WREbvSEnNQkXiRkfBQUSoPECROT65P0KpPED7SkqBNjytPUGZOT7JQUSFNjzqR0iJNzz/SUmxPkKdOj+fOz/aREbzSUnSREWHODq9QEK/QED/TEzVQ0b/S0v/TEz/Skr/UFBHc0nNAAAAn3RSTlMAECBQYECPz//fryAQYI+vv1DvvyCf7/9vcJ8wf39Qf3CAn0Cf3xAfII+PQM9gkKCwMM+gb4AQcJ+/ryBAj6+/j//PYP8g30DfEH+fgM9/74DvUDBwgG+AYN9AMO/fECCPQHDPkFAwkFAwr5CwMF+Q369QcI+f/////////////////+//////7////////6D//+////9g3yCQ36CA3yBmZktGAAA/10lEQVR4AezdB3qbShiG0R8LpMHd4LjbKuk92f/ibr+kW8KNsXLOKr5neJkJAAAAAAAAAAAAAAAAAAAAAAAAAAAAAAAAAAAAAAAAAAAAAAAAAAAAAAAAAAAAAAAAAAAAAAAAAAAAAAAAAAAAAAAAAAAAAAAAAAAAAAAAAAAAAAAAAAAAAAAAAAAAAAAAAAAAAAAAAAAAAAAAAAAAAAAAAAAAAAAAAAAAAAAAAAAAAAAAAAAAAAAAAAAAAAAAAAAAAAAAAAAAAAAAAAAAAAAAAAAAAAAAAAAAAAAAAAAAAAAAAAAAAAAAAAAAAAAAAADoCQAAAAAAAAAAAAAAAAAAAAAAAAAAAAAAAAAAAAAAAAAAAAAAAAAAAAAAAAAAAAAAAAAAAAAAAAAAAAAAAAAAAAAAAAAAAAAAAAAAAAAAAAAAAAAAAAAAAAAAAAAAAAAAAAAAAAAAAAAAAAAAAAAAAAAAAAAAAAAAAAAAAAAAAAAAAAAAAAAAAAAAAAAAAAAAAAAAAAAAAAAAAAAAAAAAAAAAAAAAAAAAAAAAAAAAAAAAAAAAAAAAAAAAAAAAAAAAAAAAAAAAAAAAAAAAAAAAAAAAAAAAAAAAAAAAAAAAAAAAAAAAAAAAAAAAAAAAAAAAAAAAAAAAAAAAAAAAAAAAAAAAAAAAAAAAAAAAAAAAAAAAAAAAAAAAAAAAAAAAAAAAAAAAAAAAAAAAAAAAAAAAAAAAAAAAAAAAAAAAAAAAAAAAAAAAAAAAAAAAAAAAAAAAAAAAAAAAAAAAAAAAAAAAAAAAAAAAAAAAAAAAAAAAAAAAAAAAAAAAAAAAAAAAAAAAAAAAAAAAAAAAAAAAAAAAAAAAAAAAAAAAAAAAAAAAAAAAAAAAAAAAAAAAAAAAAAAAAAAAAAAAAAAAAAAAAAAAAAAAAAAAAAAAAAAAAAAAAAAAAAAAAAAAAAAAAAAAAAAAAAAoNkblX0ZVEQAAwJ0oqvEkderNciuA7Gzv7O7t7+0ebMfjAABU4yZ9ry0DyMrhk6Pj/zw5DAAgf1WbfqouA8jHydHxV04DAMhccZZ+qT4PIBMXx9+6DAAga1dNus40gKyGtqndHxvno3I2XyzadlJ3Jm27uRjPy1G1EfcBgGlaYrIVwPAOj3/0NK4FxXk5W7R1WqppN+d3fPEUAM/SUnUGUxt4fvyj5y8CfmFjNNusU09NOx6dxz0BMLTzn9qgHensxo+gqGabTbqxpp3f/nQbgHHq5Dy1gafHHf0I16qmbZNurx1Xsf4AFiso7qfR7kxiSMB2147oR7hGUW426e60a/+GGUBawcu4iVdpZa9jQMCb445+hF8oZm26c5OZsQ3ciKVdp9W9jQyAdkQ/wpKZncXYBrC0p6mHNrIC2hH9SIeiatO9asvoA8DSflWnPsrIB2hHOvoRXk2bdO/qZ1uxMgBLe5p6eRfZAe2IfoSqTQ+kHQWApX0PlXaGpTZoR/QjFO/b9IDqMgAs7VVcpZ4WkRXQjnT2gt9S0WUjtjZAXkv7LPXUBDCAnePlDgI729YGyGdp1ynln48Ah8+PlzvSj/x+3tepY2sD5LW0X6XeZgE8uCfHP9KPUE3SgOrzuAaApV2l3haRAdCO6Ed41aaBXXfnH4ClPUu9vYsMgXZEPyLQHkAzi18BsLTnqbc6gKHbEf0IVZ2yUG8FgKX9cx8e39IG7Yh+hGKcsjENAEv7pz6uydIG7Yh+xIG2Y20A9QhwD+1IZz9Ye+N0E/nX2gD+iGwjQ6Ad6ZwGrhx5aM+KALC0v/c+9fYpMgTakc7RYbDOqiZ1FCQAa/ZyzTyAodoR/QjTlKfmKgAs7e80j+Y1dtCO6EconqVsTQPA0v7WZuqrCGCQdkQ/wqtJytjruGdX8+XeBkA+S/v9AD9Evp0vdxXAt+2IfoRXdcpaW8S9+qhwBB7Z0i6a1E8ZtzZPyy0C+KYd0Y/wuU6Zm2xZ2oClfYtXIusYYmmDdkQ/wucmZa/esrQBS/vmt4+UmS9t0I7oRwztDKa2pQ1Y2v0PtevIfmmDdkQ/YmjnMbUtbcDS7lVqlxksbdCO6EcM7XzVhaUNWNpfXKWVPQtLGx6+HdGP8KpJd6qpO026Y5PC0gYs7S8+PPBHQUubP9m7r+7GjTMO4wOJoGbIxAVwrBwpRyzaQoemjtW2cW0ZMVfr3nvvvX3/qyzcPVsI6CWJeYHnl+JbcakjP8L+Z1ge2xH5fgRc7+fS4WCys9/1UjjqjseTwTB1djE6lPafAFDa0YEtJOkaDaUNsB3x9iMgtJN0b7IfmTmi8c5emlixRyhtAJR26R/iO2b1pQ2wHWE/gtRKJMN+15SwPzl0VqZPaQOgtMuldrJjVl/aANsR9iPo2bNL88oubzTpWIkxpQ2A0v5T1LFzuH2z+tIG2I6wH8HR2Scjk8icWbRzmNizSrqUNgBK+y+O7T2lXUNpQw+2I+xHuHYk7UdGKJqk9ow2KG0AlHbRBUnSN4bSXh3g35u/Yj+CyNkzSPbGC+r8Qyc9FUlpA6C0cxNn72wvMpT2CgEPPbz5K/YjaNvykuPILM7ESafalDYASjs3OZD/xKa0AbEHNn/FfgQTeWdX1NouorQBUNqe/UFq/8IJ/gJSWNoA2xH2Ixg5eWdX1dqPUNoAKO07GO8M9obD4aC/ExkBYWkDbEfYj2DLlnSua5bjWLwfobQBUNoePaUNsB1hP8J2xI3N0owO5fsRShtAqChtNMely1euXrs8ZTvCfkTk+uNPnJw8ft1o5mwp/vH1qickAwWlDQCUNprV2U9mv/rfU2xHzoz9yPWT2a+euGHU6lX9QNszSm0pSVdJaQMApY2GmJ5mfzi9yXaE/Yios3NPq03tkS0jjYyv8rV2R0lpAwCljYY4zf7q2tQ0zH82PexHZJ2dp/YzTTgOeWxWYuxsGWNKG4AClHZj4NnMc6VZrf3QphT7kRvPzTzP1/+RdjIJ897BlNIOFQBKGzzSbl5rn99chhdMczzz4uw2Lz1T90fayb5ZmdGBLWFMaQNQgNJuCNzMctLWZjvie7k5nf3K7A5erfkjbdc1KxR1bHEppQ1AAUq7IXA5u6PTZ6dsR0Rea25n5143Cm2FGdq5Q1vcmNIGoACl3Qx4I7uL06fYjszBfuTNV2Z38ZbRZxRqaOdSW1hKaYcMAKUNnmkXaG22I+xH3n5ndlev1/qR9r5ZuejAFhZR2gAUoLQbAe9mWenWZjvCfsS/2M/3nlEncragvvGFdQPJgNIGoACl3Qx4P7uX05tsR9iPlOvs3AdGn0lg92j7RoktKKG0AwWA0gZDbd/VKdsR9iNlOjv3nNHnwBaTBv+rgB1T2sEBQGk3FD7M5rkyZTvCfsT7oJo5PjLqbId3GtK3ZwtKKe3gAKC0mwpXs+KtzXaE/cgzH8/mOqnxeciWgiV5ElHa4QJAaYMzkfLWZjuSu68hF2j73jb6OFvIOVOhsS2oT2mHDAClDc5E+t5/dsp2pLzdhnS2/s9ij+XbkYD2IymlHTwAlDY4Eym58o/tSO78BVMjfmerOw8pb9hjU6kokc9HKG0AlaC0GwvTzCNobbYjnvua8EE1vk9qOx5xpmKf2mLGIZc2AFDa4EykvLXZjtRpP3L9s1lRH9T3k9hbWubkn4de2gBAaaMxvsgyeWuzHdG9HxFcoO17u7YfW+O0fKHWhV7aAEBpozE+fD8r4eqXbEfKuK9RnZ37yOjTUfFIO5fYQqLASxsAKG00x1dZKVemDdqOsB+54XW22vOQ8n7t6vh5nmsFXdoAQGmDK7Xlrc12RPV+xPtAyDqfh9wO8y5twfUjn4dd2gBAaYMzkfLWZjuSu6/mF2jrPw9pdmwRY0X3EaaBlzYAUNpokMtZec9O2Y4UtNuUzs49bxTak58yDOyDIpMASxsAKG1wJrK402fZjoj3I/o72/eRUSi1BZxTtSm/GG5pAwClDc5ECq78Yzviu6++H1TjOzG1PRD5taqPs/w67NIGAEobnImUtzbbEaX7keteZxf2tqnt59ZERtN8pB9WaQMApQ3ORDagtf/hb0fYj0gv0NZ/HtLEgjOGod4+8nm4pQ0AlDY4E1nc1ZtGj/9uVuO+BnR27jmjUV+ersGtyh8LsrQBgNIGZyJrfOXf7uYc7Ee+OZkJfGQ0GtgCWrq+XBd2aQMApY1m+TaTuDJlO6J3P+J9UI3AiVGpo+c27dwOpQ1AP0obnImUtzbbEV37kWdenMm8bVRK9RyIzEW2CEp7jmhtvTUYDtM0dW4j/UVnOBwOBoN+az2OKvmK1ta241tu/dPUXbR2S3zL9q1/RkYdwcsO4S1eq/7roLTRQO9nQk9O2Y7cy66SC7QFPjA6Hdj5Em2XEkaU9l2trbc7LpS/wliLbwV/Z8P572ri0k57IG/+AH+5cc7exm2kneGgFW+bOoq2W4Nh6r/H+Tvcj7dX/GV0Ntztf/bDar7TKG00zBuZ1OmzbEcE+xFdnS0/D6msXB814Tg4+7+fKO2oNXSBjIXW1vvDjcTOk6Sdvs7e9l6qs4W4tO2/Xs2i9XYnmfMGt9eXnttrrXaazP1OG6x3KW1Ke3nwYSZ3+hTbEaX7kTdfmcm9V+OxYGrC8Z0r4KKZZ22+jp2vvVZayQehc0WmoLiX2lz1pR33O86W4Tr92KjjJ15xG9W8Xtl3my+K284W4861usv7ZivxDmycW4/qUdrR4n4Wrc3XtvN11koz4Ertwq3NdiS3q+EDIQU+M5S2IiNbFWfKmCzqsXrUO7C5ykt72wufwpK0v62rsvtDZwXSQRzek8mBKSYq/TanS4jtqDVMbE7whSgt7Xhx51lsZQw4E6mptf3tCPsR/wJtsbfrnJxDoxqlHac2V3lpx+3ESrhzsZrVRGLlkk6rq7G049SeRdoyMn7sW1/1sU1pU9qciZQ7vWkC9K/N6t2nv7MVXqZNaVPaUc/ZcsYBZbYvqSa25YknqD5dpR31EsGvUl2zGHGaWIlzMaVNaSOcM5G+a1MTmn9uhmBXf2drOw9JaVPafvdUVNrbgvyS55jazPaqT0Fpx1tWRvDmymJf9oSd0l4CA85E6rle+yF/O8J+xPugGrlPKO0QUdpHibWVl7a/JlBQQZInqUvgWl0Vpb2fWil5a4/ayaL+1CltSnuhcDVT19qC7Qj7kWc+ni3QB/VOzseMSpR27KytvLT9B4z6H2zLX6i8P0Ms7WjLLkYvMmc22rKL42JKm9JGWGcivdZmO+LbDfQCbbm3652cjxqFKO1Ras9mrCM/w2rteCuxOa2tLS9t+Tstf5octcP9Q6e0KW18+H62UKfPTtmOyPcjCjo791G9k9MZfSjto8TKS1ve2RrbU7CPUdra8tKON6p/qUv5dutR2lUx4ExkuSv/2I7k7jch8Dtb7nujVlTPn3iU9kiQfuPqO1tLa3udrbW15aXdtlLyx9qxs8vgupT2glDa+CHLltnabEdyD4b4QTVyrxq9bBEXjS6U9o6kccdaOjvXi/R3tjxAKy7t0YZdvEcqG474+pR2JQw4E1mytdmO5B6uej9y/bPZ4n1gFEtsAV8bVSjttrVVl3bsNLSnXLRlV8t1gyvtH5PqX+lSv9/ORZT2QlDauJwtw+lNtiPefkT9Bdq+n4xiP9sCBkYRSjtKbdWlPUrt6qRdU5leYleuF1hp9+ySuO0KH2h70U9pr54BZyILuzplO/KnB8PpbM5D5g5sAanRg9IeOVt1aR8l+ttT/iBVQ/fJSzs6Z20Fuw3BekUQ/UKUNqWNr7IluTKtfDvCfuTGyWxJToxmHVtAYpSgtOWhLS/tUaq6PZe+DJZLWsGUdrRR/e9QcWKX70dKe9UMuFK7fGuzHcndH8wHQnKZdm5P0F4BorT3Eys11vBA29fT9EBbrhdIaY9c9S/0yK5En9JeMQPORJZvbbYjy9qP/J+982BSHEmicFYsPVShMx3SxjIuaIkbowmd2AOW9Y713nvvvTf//4K5MOd6RmShlwX7vl8wSJqOT6n3snQLtNmH3FD6Lnwm+wFNe557W9N2hbdhlAmUM96UkUvBtOsAe6ewvxEnNG0sQtiJ3Jb3nrmP2RFofgTg2Ruelb1m4vc7PkLT3rlo+8Z+0GsbpVUkg/GEzN6062AvuJc8jB9o2lCEsBOpWfnH7MiGvxp7NvuQCudsZA+gadfB25r2Hd6SUlAc5d6ckFmbthtCb6v9J5QfaNpIhLATiXFtQHYEz7lEDqphH3JD7g9l+whNuw7e1LTdJW/LiWA48SkQLhibNup2T+Q03NAjyS/QtIEIYScS49qA7Aie224VEPff0LPZh9yw8J3IJHlo2kNvatr10FtTOFEAeKEAiB/ctE88iDyTUxju3XcEmjZNmzyyxrs2PjtizjFsgXbvvPi07Dm3+05cktShaZ/xpqY9D96ekCUR0cYrKN60Ww8juA4ZbQhDR9OmaZNIXl8DuOcL++yIMefwns0+pF7m9mKoTdO+w5ua9iT3eAxUuw4+HUJmZtp17nEUyYR4rtG0adokkg/WEO6+7/CzI8b5ka8fegzCx38Y6SwkaWjadW5q2j+kJ5940cYTnJVpB4+kTCYtX9K0UQjhSm2Aa8OyI3iOwQfVcJn26eQ9+BcemnbwlqZ9kpB8XsCLth0F1rQBN7zrQzmxSuzQtEEIYScS4Nq47Aiec5DFfuxDduD2+OmZPTTtHZpPgxdtjAsBRBvPNRPTrs2H93W+p+82NG2aNnlvDeOZ++yzI4b5EUvP5jJtTbHpmiQLTbv2lqZ94pMiZHaijae0MO1g/kYR9veC07Rp2uxE4njiGfvsiBnHCM9mH7IDLt7AzKFpj/CmjRdtvGrbizZwhF/hv6DoH8szlhecpg1BCDuR9iv/8NmR9PMjb2zn2exDbijsv8pHQtNu+1ManGgDVBsg2niGDm3atXn5s/WGFDRtCELYiQS7Nj47gs+P4A+EZB9yQ4lfJrtjaNrB0LR/OGT77OeYlBAWRTGaTqdFUSyCVVRbb9rnvQVVMi89DU0bgRB2ItN17ePxfnBsv0A7ktfkIHC+M1NJEZp2a+gRRz6WfDGaVmXbTpqmmbRtVU2Lhe8O6lE946MJo1k5mWfyX7h5U86KHGx+etOuu//eafWv+9q2ZTUtQnxqQ6H6oZjOqv94vGI9fUjTRiCEncgdcs+TskPOjveFc/aezT7khgI+PbPGVTeni+wV1baUvZh2sDPtOo9y7Fk7d/L/yJpyFOXbJ9IBXEYmH5UTJzeknsyUvzhgTXvU5fdOy/9zZ11TLvV3tdg2O5IXszZz8n+YT2aF1zP4A5l2dXO6XMphtTVC2IlMdeXfrbeNAQDyIwrPBvOdHAgTvL8cyPbDShTs3rTbLfV2M0Fumuw686a5Pm5c5CrTroPem1aNkxvjtO65YQL6T9KBomykG3U78goqpGkfdbi1c/1v7PAOGHbzfDWz4HWEQzRtPdW2H5kI+X4dj6FrH4/3h2Prg2q4TPs6Lt9r1aZpd/aFMC1Ptw83n1TXx8hN/9nlfDpxnd2zsF+rHfVG0TrZhrpdKH8rwLQ7RDfyVSY3w+luatH580KxyqQL81kwGWrTtAk7kXvs2vbZEXh+5OmPHtPDPuSGSl+/soemfdRRbrsZ37zN+s4uF82W7lkG61ZkUE+znWzPfOm35BLOtOub3FvpRr3UDrVrfxPyWSPdmRTwoTZNm5DP10Y8fJ99dgSfH8Ev0OYybX0nckPhJCVo2uc7aPaqkS4Assv5ysn2NCPNTg7rkPaoEQUqD21gpn1+F569oV7lqqH2+fgHLF76v5IIaNqEfPDe2ognnrnTNDuC59jcs9mH3LDULyu2haY9nE4jR3x65n5rigHAPRX6qfIWvfF1oF5s76AI067jPTvinjYidQ9XvS6wO7Vp2oR8uTbjiUf3PzsCzI9YefaGh+SAaLZ0iIHYQ9PWCx84u6xXsUgvy11vPxRw2duwnYMCfOnnweBM/F+FiEs7HAx+vuE/MIu/2KDrTdMmXKlt6Nqm2RH7/Ij+oBr2IfWMECvU8NC0w0B64zz831Iv/HaMsD9Ub3zxk9YC4kunM3OiYuV3R2hw73GfSRw0bcJO5H669uXx/nFsvdiPfcgNNeC4axw0bYBnyx3wIa9i9DgxyY4MG9kNK+SQtQI4rmKsrZB9HZ/kuO8lNG1C7lrb8sSTouHieB85Z+zZ7ENeZwY4GQQDTVvvtj0eWVNkokc/esydwd6RleyMT4BDVr1px93deuR3QV5iU0KlxEHTJuxEGnPPfYrsyBgAID+i8Ww878ph4XK/LeErAUDTBtiPhqCyIPhY+xp878hwLjtknutfKmCmvYof3UcT5hJNvQDGdWjahJ1Ic+6+zyg7kn5+5PGHHjPnUzk0PvHbcymTRKFp5xPplRM76a8XyOZarY8wgFW7MjLtvBUxV+1hJjvALXx3HE2bpm0PO5FY17443lfOGR8IyT7kdQqv4MTetWnaercF+edKdswKOHo8r7dOsGr/3ca0wxxwR1GnFLkFKj5C0ybknnX6ro3PjqDyI/oF2lymrWcO6NyBoGmvEnovyxvbLzAlcKQdMsunoOnBl1A/eYUQ7Q64AHqHo2kTctc6CZ545j58dgTPsZ1nsw8ZP9KydW2att5t9bTG8ilNDipFFvERhmhWmE5kZSbaG5bGoq2oRTqaNk3bHnYigSv/Lo73mXN6z7bhYzlEFl5HwGdIaNp6+cHaSOHM/wkV6g4sne0XhBxv2iETQeY2AA/83HdlIDHQtAn5Zq0H69qA7AggP6I6qIbLtPF72+y7kTRtvGjrs8vLBGw/d5gNK0vz/5kN2rTzLIE/PyEziiZN8aZN0ybsROJd2z47gsqP3K/wbPYhgUvlioGkAE176BI652iVxGC9gtyApf2D8BnatOeyQyZeR2NVQsglBpq2EPLeOiGe+AWfHcHyUvwCbfYh45n5CILFYJumjRdtGaVRzJznvQ+1C71oW8hfDjbtMoU/Pyu7j3sXJAKathDy+jop7rkPnx2B8ircs9mH1JvFaRQDW9mmaQeX0KePVSrrcqr+z2EvkvipDdS0V9bHZ20YGpbDS4mApi2EfLBOjLvvw2dHgDwvp/E1yLO784ocLHXwkYwGTlDQtAEZbX12eWnv/JFD7fPpvOEs+z+8pjJ33E9MkuL6VX9TvGnTtAlXatu49sXxIfBS94Nq2IdEtCL1jIwm2zTtPEsozf+z9M+q16F2ndK6l/4n65X9W12hz45YPOMBb9o0bcJOpIlr3zo+DF7FLvbT85wYYxN+TT9GQtOeCIAAmPJ2puh1qN0sc0Uz0HConTucaQ9k9zR+S4LtQ+7Qpk3TJuxEAnjmPnx2BMTzAM9mH1KxAUBJOHMkUGjaKwHQ2k95Fd/5S1HSjvQX3kBCG5hpX0qiKDKxfcq/gps2TZuwEwngiV/x2REQLyE9W89DcuC0fmcU5QVBQdMeSkIj7blgaHovLNZtoZVOvISWKNMOGfZ2Km4roJxZ4k2bpk3YicSv18ZnR0D5kTfiPZvLtI1Ve0MApbZp2iFL6OFYCYoZYCtHXQb78X3pO/APlGkPpB9yvw0XpC+qfiuRNG09hJ1IvGtfHh8OzwMOhGQfEqzaG4aXbnHSMzTtgSAIqmiBfX5kJHHMl8H2wovzHchBph2whotfreh6vww07Q2EfL5WAHbti+ND4iXIAm0u09bXIvUU1ZH0CE17KAiOUOP17jTxnciofuSlpJbdX8VI7sT8/NENjXnXNtK0adqEfPDeOl3ueRKeHQHwN4Vnsw+J3autJx8NLkhP0LQxcjuCGVB3ZrjzDNsRZrOiPj7yFcS0iyQOzwr4q61XYZq2HsJOpO3Kv8vjw+LyFZRnsw+JV+0N4dItWjOhadvnNWrfhZlAcTlQDuu2sEqk1z2/UFRJDJOrRPJSdW/LR2jahOBXauu5+7fxofF7l4Nq2IcE4Ea+L4a6/X80bfu8xnngJu3uVPr2XHQ/MgiOf7J3Ly5yXNnhx8+Vumfu7eLHD26RAGrorm6aqE1Nt+ehiWIWMO2FgGHBwWAIazNBsRaLxXZkHhk9RpF2Y3tjrdexs5t3/tjsLGycdSTP7ZmqU6eqvt+/YGyNNJ+uOefU/XpBMzPx6vmxlV/j3K/5gw3SJrKwE5nQ3552jdoPbEP7rTelNx37hGzc/0Pax4a2DweinAs1vCcycT9yYOxbck9D2qXUWPSJ7RsYSrp7VWkjbaLbG/M97Ji1Hz1O8C77kCqtok/IwP0/pB0zO0dpFkaP5QRJL3k/Mohihb+4qCDtoPAXr/lPdBNfgx+RNpG9nciEzh52i9pPTEv7jqTHsLbW/T+kraTbQ59QJvqFRp7Erka6z+/H9b4gfGaDuIVPzBm4qrh3ZWkjbaIPNi3o7O+YHzF7TJsJEoX7f0g7s7OSt5YGKnwzf1pL0SzJfuPapR2dhbd++tzCWHyoVNpIm9iJxNrMj/yl9K0yeIXilQZJkPa+qHSjhtVMxfMje6Kfvv0GtUt7ofB5IqHCxEXLNkobaRM7kVj7Cce0DbU88gk1uiOJtO/ZmdE4lkaapbulxY1qBejMwj5k+kpkaeJOuzMgbaRN7ERq9fQZ8yPsQ9bRKnilwmIo24e0g6g0TP5S9HMmnoJasN/duqUdTGwD+GhjzzbdwkibyNBOJCf/Hj1mH9JS7th7w9hG2gs7wyPH0lC5/mSvfkWtopkZ+W571caYtgxrGotH2kQGdiKx9hP2IW21PPR2sY20S1Ep6k9pp1fqr/LZvGa4X7e079l4u/5dGwvAZTuljbSJnUis/YB9SHsjJIqFnXSxIe0oKk2aeN6ZXkxiUbtL8dNe3dJ2UnMzK7sJ9V48RNrfRvTGpl397JT5EfYha+g4eM3ygROk3bbLI5n1GeZ2N651jHpmZGqjsPKLnKgkbaRN9M6mZZ09/DnzI3X0oSTEFZLKiosh0ja06BeaMH96ZQ8GtZcGpD2zsYnoXduPKiLtbyM62Whk/+Qf8yNvi2Bt3XYHSPvixmYmF+6J2B4fcd2Xtq9Z2qUNaUcjr0QtkDbSthcntbF2+vwI+5BYOywypP39RTPTGUGabK3BRKTtbEg7N3LPZoa0kXZrYycSaz/hmDbW/l2LDGkbGIk4tD4GXfZgULt5ae9J9SFtpE303qaVnT1jfoR9yBpaHgevWz5E2k3rcWl6H/I8161BbX2dzYys3668EbiNkDbSJnYiL+rpKfMjlfW6/E+0smNtpF1YOeW8J82W1z9pg7RnRqQ9a9s/AUjbYMROJOe1n9g9pk3lkRFrI+1SNBrZf9n5Ookubc7pS1tt6RVpI239iJ1IrP2AfUjDLbUfbOcZ0m7u9EhQ+EIUBrUH0uaWzUu7NCLtAmkjbWInEmtXMT/CPiQPti/YjUTazsg7U4I0nOv8SuSweWnfNCLtAdJG2sROpKlX2ZwyP3LV3pUXRMtV7jWbOqT93ayMaS+k6e53fSVy1by0pe6QNtImdiJ7efKP+ZH3hV7Ssjj0eoUB0m7iUfINhQlejT+yKG3uho609b/bkDbSJvpo00hY+9Fj9iFb0HKtiO1Rps82pH3YhvcvFl1fiQyNS3sPaSNtpE3sRHbL2n9vRNpvCn1vyyL3Wk2RtvY8hEs3WINNmr2doU9QfWnnUk9IG2kT/XDTTLzK5lP2IdvScjXyOoUMaetKe9iKXcOl6s0K/QLSRtpIm7rbSUM7kbzK5jMT8yN3JCkqj4L2Y22krdCs+YfFHB+ZeqSNtJE2dbgPNs3Eyb/POabNOZKE49pIu85GOte0FY6P7Etb+9jrS1v/fx/SRtrESW2sbWF+hH1IHm2HCdLWk/ZhO456HKotkOp3y+tKW99LSBtpEzuRvbU28yN/Jfbi0fYUaWtJ21XxZRihkbQy94lH2kgbaVPHu73pTr94eMr8iN4+JI+2FSZIkDYLkSLrjp75c9PokTbSRtrETiQn/1TnR9iH5NF2yJC2irQLrZseCj/xS2lbw53oPdJG2ki7toidSKz92T+wD8mj7RcVJ0hbQ9rrlgB2pUA03dxwJ3jvkTbSRtp1RuxEYu0vGpX2j8RsPNoukLbUX558esS+tGfSlq4NdnJ/HtJG2ki75oidSKz9nH1IHm2/uCnSNnE9z4mBJt34ie+uXS/mu9Gnh7SRNtKmTvTOpns9/WVL5ke+bA7ar4vleLQ9Rdq1580f+Uv3xb7Y7dpwMJvnwaeEtJE20iZ2Ijn5pzA/wjFtHm1PkXbNjf2F7bVG2nsGgT0eFDvz3eDTQ9pIG2lTJ/vpprGw9nP2ITv1aDsqUBtp6wE2b420g1jJja+nAxtpI22kTexEYm078yMc07ZfuQ5K1EbaCkf+wsxCN/zFRQuPsGfzUYj+OyFtpI20id7bdLWHp8yPtHcfkqntKdKus5nvUg0+wx4U81Hw6SFtpI20iZ3IznT2kPkR/X1Icquj6CuoQNo1NvJd6mYjxE64JYK0kTbSJjrZ6MfJP9X5Ef19SJpUsSJZIu36ypH25Y29k/4UG2kjbaRN9NqmX9ZmfuQtUYjKKz/ZjhnSrq1D36VKUena9VmCsZE20kbadiJ2IrH2c/Yhu9tk5K9UcEi7riLS3ip3fSePXj+kjbSRNrETab+nz5gf+d+9K1rRcnXor9AIadeVb236RhsX8+ATQtpIG2nbi9iJ5OTfFxzT7nYHV5kiKZB2PS2RdlrXilH0CSFtpI20jUbsRGLt5+xDdjy3Cv6yjZF2U6+IRNpuMNdXNtJG2kib2InE2sbmRzimbb9ypDCqjbTTG/p2pf+H5orcVxLSRtpIm+gnm370s1PmR9iHbKrlkb9UryDtOpog7e/LTatjNtJG2kib6ERhJ5JX2ViZH7kj1Cprl0i7hlZI2/bTbKSNtJE2sRPJyT+F+RH2IbH2LtKuoQJpv6ThTvR6IW2kjbSJk9pYW6Ev2IfsScvcb12BtKtvhrQVHmcjbaSNtIls7ERi7efsQ/al7e+QRIe0NaSNtN00+jpC2kgbaRPd3vSqs2e9nR/5UKjh3FphKRJpI22rzkbaSBtpEzuRPehXpz2dH3lbqPGWwW9XhrRrAAfSVnM20kbaSJvog02zcV77OfuQPerYb9UCaaeHtO07G2kjbaRN7ERibTvzIxzTZlo7Q9rbh7STGwZvMaSNtJE2sROJtRXmR9iHZIJkgbS3D2kntvzEN9gx0kbaSJvYiezyq2xOezU/8rqQldyo9vMjSBtpJ3Qr+uYKpSBtpI20iZ1ITv6p9Mdf9eqYNh3XKymkjbQTcp806eyBCNJG2kib+tI/bhoOa3/NPiTUfkkRaaeHtFsxoR3zUgRpI22kTexEYm29vmEfEmq/pBJpp4e0U7vVGLNHKyeCtJE20qZe9cam6XiVzVfsQ0LtSuyJtJF2Qju+kfJ16UQEaSNtpE09651Nn3t62v35kfeFrHXkU3NIOz2knZLLvXrxW2UjbaSNtKlvnWwaj5N/37AP2a/coU+sQNpVhrRluauM7MP16kDOQ9pIG2kTJ7WxdgfnR956U8hcy+jTypF2lc16L+1l8GqF0XqVyXlIG2kjbWInEms32tfsQ/as0ifmkHZ1Ie1lUDP2gZPzkDbSRtpE70HtXzT+Kpt/qk3ad4QstvZpFUi7spC2qxnaMYzWxSSTPwxpI22kTexE0tmvG6b2g34d0yYXfVL7SLvCVj2Xdu5rKuTz2eogk/SQNtJG2sROJOe1NXv02NQ+JFlBX0Tayl9FDK2paPq8Xwyj3wq7TBA20kbaSJvYiaRmrf2kZ8e0KfdJjZF2dU2Ufotgs1uVDmIXkwMn24e0kTbSJnYisbad+RH2IVmKLJB2dQ31vwo7Las52jf/ziA20kbaSJsofSeSnj4zNT/CPiQPtedIWxebe9KO9Lchv72MjbSRNtImYifS/sm/hPkR9iGZ1A5IW1faQdqWwpB2zIvSyeVC2kgbaRN9tCF9a2vMj/xIqPXnRxzSrq7+Snt8lWfZFSsbaSNtpE3sRGJtI/Mj7ENyU7tE2tUV/cVJJwv+cuVFJlcMaSNtpE10e/OH0cPTLsyPvC7U/p3IAmlX1/1tfonA3ZFw7OTqIW2kjbSJTtiJ/G5nD9s/P2L9mDZFn9BdpF1deboJLKfzFva8lGpC2kgbaRN9sCELJ/8ePWYfsk+96hPaR9q6/8dL6V5Tv20x/XE20kbaSJuIk9ptsfaTPh3TpsInFARpq/4gHXBKO93ZSBtpI20idiJbZe0H7EP2qHESepC27pcx45H22qlcgUHaSBtpEzuR9Jtnzc6PsA/JoLZD2qqvY5/3/fDIbinpIW2kjbSJ2Ils1cm/J+xD9qhDn9BNpK06RrHf5XckJXQsCiFtpI20iZ1IasjaD9iHZCWywg09pM2raw59euFAFELaSBtpEzuRpGDthPkR9iF5d809pM1Bba19yNwJ0kbaCSFtIts7kVhbYX7kXaFuHB8ZIO3qGvmLG3f081xCa6kppI20kTbRO5vvj1fZ/LxV8yPvC3VhgBZp66tzIN0qGBvRRtpIG2kTO5Gkc/IvYX6EfUikPUPaul/HXelUYxPQRtpIG2kT/XRDRqz9pCfHtGniE0LayuzMpVMVqqMjSBtpI20i+zuRWPsB+5D9aKgsbaTtVN4VZKrcpxWk1pA20kbaRCnjI3T2rBXzI3eEkDbSvtzxkZvSoVwqtDOkjbTTQ9pE9e1E0tNTtfkRjmkzp4209c0x6NunOf3/aIe0kTbSph52siEzJ/8e1LAPSUgbaRd9W4mc+aQWBm98I22kjbSJk9pYW39+hH3IziqIK38KlX17S+TIJ5UhbaSdHtImYiey/db+/CrQ/lD603Se1MT+O0WQtpmxBde7a9oLazMtSBtpI21iJ5JX2dRr7U+vIO23pT+96pOat+F5I29jV+iwX4PazuQjbZkgbaSNtImdSGr25N9nj9mHrPBV0/vtPcBWIm3tb5h53xYiF6JcgbSRNtImdiKpYWt/zjHtCt/LEcRi0Sc0RtraX0ns2cuRfCnKrZE20kbaxE4kNW3tT9mHTGjl02rvb/ZvIm31/+llv5Zug2g3QtpIG2lTP/vJhrbt7J+tzY+8Ln1q7NMat/Y3+4K01d9dc7dfewwL0e4QaSNtpE397MTSTiSvsvmcY9oXt/RpDdr/vBFpqw0uxH69i/2eKOc80kbaSJt62gcbMnTy71P2IS8u+qTutlVBOdKutrJX4yO5yauGQ6SNtJE2cVKbDFj7sy/Zh7ywQ5/UntjLp7SPtKvNxT6Nj9w3+XejQNpIG2kTO5FkwdpfVLUPyUFt71o6pj1D2g085o1OulE0eQJzhLSRNtKm3nZ7c9mojlfZPK9oH5Izf/6eWOtG6teNtPW/YwbSjdI/zGkWkTbSRtrETiRt39mvdedH2Ic8b+LbOqgdfEpjpN3EEm0u3cjkh9ChR9pIG2kTO5FUw3lthfmRt96UF8bxkdjO4REvSNv+qznN5my+twZpI22kTexEkhVrP2cfMmXnK6GylcMjOdJu5rrioj+fQ8eiXEDaSBtpEzuRpGDtOuZH7kjvGrVzfGSZ+FUj7Wbu/EXXG2nfNPO2KaSNtJE2sRNJCT19pj0/knBMm5VIY3Sa+qQGOj9m532StuRN7gki7RtIG2m3V9r7QtS5nUhO/j1nHzLhCWVCRQv3If0YaVffrDcPtZ1FaQekjbTbK+1crh7RTzdkytqffckx7fSTYW35F3LlkwqCtBX8aeyh9iSOBplUkkFprzzSRtpIm9iJJEvW/oJ9yIRB7XbtRC6DT2qBtBsbH4mu0WXZ3Z1hN6WdI22k3WJp7wlRBb2xIVuvsnnOPmQVg9o+b92Uth8o/ZjN+yXtwqf0StPD1RU82o7mbo8sPdJG2i2WdhCiCnpnQ9V09rDu+RH2Ibf60V227kvOlH7Mhn5J20WfUmng/mNYDF3NNzDvmdyHRNpI26S0oxBV0MnGWJz8S5wf+ZH0s9wntitGStXGniDtBt+dkhuZLMqLsVyyQ2tvnl96pI202yxt74SIk9pdtPZz9iHT/3m0f35kpfr1vuoT6pm0S59UYWayKCyuu7qWGO6KYjeQNtJut7RvChE7kTatrTA/8qH0tNKnFjMj65CJZWrSvtkvaUvuU4rO0ndHXgxr+cPfF72GHmkjbfPSVpi2IuKkdrX95pnC/EjCMW3GR/yoVV/unqhJ+17PpF36pEbGlmXDYpC1evA0IG2k3XJpF2IxYieSfnVa0/wI+5DnzXyb5kemPrWBnrSLnklbok/qY1FuGf0FbXX+b2Xr1+G3PNJG2i2X9l0h6uZOJOe1P/uSY9ovzfkWzY9MfHKZ3vbfvG/SnqV+v1hclo2jVJ+N07Cn1DIibaRtWNqF3UVpYieSFKz9BfuQVYyP+F0nSRnARq5oytA3abto8l7N2Ke1qPJD6Nze31OknR7S1v0Ti0LETmQXrZ0wP/K69LjSpzc3sA2Z1kBR2t6ZlLaBkaNXRLPg07onid03tPg59Ugbabde2n4sROxEWn6VzWnl8yPsQ54XfXrTlkA7qP70uNc3abtocLR/Wvn3xsjONYWlR9pI27S0h56VSOr3TiQn/75I2IdkJzKhohXQ9gPVwfC7BqRt9HtmbO8G3qLaKf1c/5sfaSNte9Jeao71EX20IXvWfs4+ZMIDSp2DEgrWyFRHf2PvpO1i8hatue+PUlKbmPkw8YlH2kjbtrSdT8oJETuRnbN2wvzIu8JDbUVqK0B7ofzTozQgbaPfMyEztjAYqv7TXxgZjEHaNYS004uMj2hGtzdUX2fPqp4feV+Eh9rGB0gOgt+mTPmnx6J30nZRn9r6h9bv+5Qye9BG2khbXdqHmuMjRCe17kTS09MK5kfYh0z46WpmLfLj6Ldpof3TI7q+SVtW3hK1p/UchV+bsMMtj7SRtn1pv6r6C0CiDzYG4+TfVwnHtHmorXC8rfZnepn6T49Z76QtuSFqf1zTp7CJBTt87JE20m6BtGfqz0GIk9pkztpfsw9Z0UNtv5uJXsvcb9daqqvwSUXXO2mXvnpqK1g0q2FMPzhr0Eba6SFt5Tf4ZkLETmR3rf3NC6V9R8hFv12hFK0mW39tWQOefKV30pYjn1wYW4H2opYH9yNTM9pIOz2krX/zPReituxE0i+2f5XNVxzTTv/5amNY2+34bRtIhTmfWNk7abtoY4324xoHiwqf1tQYtJF2ekhb+x1oEyHq7k4kJ/++Zh8y4U3Wlm5KrKLftiCVdujTCq5v0pa/NjHbP61zV9Y1e/vSfeKRNtJui7RH6VvJROxEdtfa37APmTwlkYCnTOptmPvtG0ulrX1i895JW/IKPpnp/s4jq+0/sdQ/Io+0kbYpaRc+sV0hYieyw9b+in3IhKnb1MJAaszd8Jdo0dhHkGnvpL2MfotiIZW33K15V3biE4sTqbpb0SNtpN0eaS+97mMJojc21Ly1E+ZH3pb0WIpUtLabXu4Lypr7/zI1KG2F+ZH08qzZO+shq/OPv9CfHEHa9Ye007uvS22idzZq0dNfplP7CfuQ6U/vdKyd4Oz0Bk2OSLzSN2lLrrBHW51FB/XuCk/1T+4g7dpD2umtNT5124/YieTk34M/kPbfCKXPj2hZe3jDX7K19o98hVlky9Jexua+WW5FjV1Z59MbZfo35JF2zSHt9Eqbh2KJk9qkbe1Hj1+8D0ku+EsWFhUK0xWXV0ZwTY/VTDMD0jb9m5AwbGpbNpPLlOt/jnBT75E20m6dtCX6LVpkQsROZNutnTA/8rpQwhOJhPKBVNJwJ/rLl9X1oza9MM36JG1Z+63Lh0042x9r/K1YZPqTU0i7rpD29t89WFs1Uh8focRX2TzgmHb6glt6cXHd1cLs9AobH0BGAycvbXy9W9KWwwoGjhSc7YPSLPo003c20kbaJqTttn9Ck8lLu3ZdzEXsRNLZw/T5EfYht3/1QIIxL80MN5hflRhrO5bMd66P3f/5uVHMd6OPBqWtf/Q5LMbK00WZ1ietMM20Pmsi7RpC2nor0uft7lwfvuDfyp08eu/k+yM62RiNk39POKa9/ah2OqEGWxvq2mAn+PS0X4dQ+MsVd/PR/HeN8hD87xvbl7bK0NFukSlStNDUw2Jc32eI1QppI22r0i4v/29l/oJ/K+8JETuRbbX2A/YhE25JXL6Yz66PE5F9fTaKvopCZuDUeEqFfWlrDR3t7gwlPXeFJ74L5b8Uu9v+dscN8pj4H4K0kbZVaUvuq+yuELET2VZrP3r8kn1IOvCVtTvaKYZj9xJhj68Pds6HKc6zDe00faQ375q05fhKn8qKoUtR9jSP/tIFp//nnxfjZBIVefq3OdJG2nalXfoqy8VqxE4kPX2WMD/CPuSVz0en/2LwfIpi9tvmvy3PQ/BVFw8MvD8zrdA5acvRlT+UvfyXIO58vj34KxWzZoaq4ujCjxHXrp8PpCZ3XIPOkDbSNvpQOzohau1OJCf/zudH3npTKO0Bpf0mBuYjUnOdk7YcVjN0lM9ns2Lw+2az+Wg3WPjuKP0V2s1f+Luda+NBsfUvdUINOkPaSNvsQ+1SiNiJbK21Hz1mH7JL1F5JvQVfYYPuSdsdesMd13g1PL0Q8t8XQvSXaoK0kbZtaUuuv9RC7ESSSWufz4/cEUqiNtCWUn/Np1XSlmXoMrTFBW+hhSBtpG1c2ktfYftyUUQ/2VCj/ex7rP2AY9qdofbKwiRyermmtKH2WuGjlk4hQ9pIW0HadhbIo1wU0Qk7kXZfZfPoX4Q6Qe2YAG1bS5FOT9pQ+6g7fyUOFHSGtJG2pV8A3RSi9u5EcvLvX/9EqAvUjgei0cRXV6kmbah9pDB+qtSxIG2kbV/acqC/1EI81CaT1v5/Qgk/6MwXMtFp7Sur0JI2a5FHCk/qlPpEQWdIG2lXdKuJd9cQD7Wx9h/J90YHwbeh3ayFjtzvprTFHZmDtsL7U5UKDmkjbQVp2/oF0J4QteShNp09++7syL8JJQwDWO/ISXpmpBV1pM3U0bHCL8WVClm9OkPaSNvkqLYTIs6PtKVfnTI7ovCEUrmipW+qv6khbah9rKE//W0EpI20jUtbllFzqYXo3zf24rz2Xwi1fy8ylG0dXh90VtpSBvs3aVpI7QMFnSFtpG3psUT6/1uikzc2ZM3a/1+o/cPaedbajx53a5c2U0fhoEOLwitB2ki7TdKWlebbB4h+8OcbMmXt9AN/tDzyRotFi5/y7ylKW7+1N1DuOnSTZ1WfzpA20jZN7ShEraM2r7I53WobklahdzdHFKjt6pU23zPHUlOT2OiMNtJG2i2Rtqz6+u4agtp09h+thzaPteNxy2fXy05LW5Z5dyf4D4L+GAzSRtrtk7asouLaO9HJf26sRK/9QLaLVoEJ7Yp/fMxqlDbLtGvXoUH0kKnqDGkjbVufSueSGNFtI3e16bZQyx9rh0H7V/7yrktbloddfKCtf/4ydwo6Q9pI2+y/lUFSI/qBhcfa9MZHQhbHAdKLx64DiIx1SZtfhaxdl57YH2vrDGkjbWOfSp0kR/TDpqe16b3/Emr5CMki68ZsxLgWafOrkLzs0inDUCroDGkjbdP/Vt6TLSL64WsbarA/Y0K77dbOy668n6WoQdr8KiQORCm31t9HQNpI25y0FT6V3pUtI2ZIeLDd2PPsPxWqwNo4uxJpzSuXNt8yuoNFZdC/GI+0kbYZaad3rP3uGqIfv/Oa9nYkvffBj4Vabu2FgrP1HtWEiqXNt4yqsxWmtT/JFHSGtJG2+c2WKJfpv9m7g91WcSiM4/YuJju8rISAzSBZRsJVGlhO/QzeWF1OFClSnmgEzzoh7ajtje4tScKJId/vDZIY+PvUqAB+/W/TtqMHN7Rt+1pvLV6DvCEtH+A9SIKG5I9S2jStHa/4rA6iC0VSZyhtlHb494AndjmAl723bttgxn1jb+2udnazx3GRsfoiXtCSKWchKlaC4DWfYaUdNCXD7+yQDqLHK/o6Q2mjtANt7ZQB3ELnN2tXN69o7mv6uqm3a+s7BmPj2izIxKVi1Aha+58HKW2C7ZlU89pExCtOVmcobZR2AK1Nvd4Azd3PuXeI7qF5/fo+v0Zfk5eTIMlsqfg8j65LgtIOCh/n3FG8emL3pSLSzkZpo7TDKu3htMH/roEwo/sw6W7/hq/afnp9zOt7ng8BNXZsxzLl0/giFueLCUo7NEUpFjcV52pmA3ux4pR1htJGaZOqLnpo/MUIALwcq/twvqRp3x52dt3XtfUh1TWo0oyW2bnmEzpOI8c4EkNQ2vQrRgSwQkId2EtFXGcobZQ2NR3F526nOQO4S3av3Za+u4nbuqlrt7Yb3wV8NASK4TfO4eRKsYnhyeBpjTnv5Hmhflax6ajSG1SpKBUPbmBP9N6vGoANd/5qK9j4CjUAZ+N7GuELIfotuRqA3UHyLCZ2nQO6e+83x/DeNU3bTrqsd8e0th7HQiamSqPbTSrldO+tlY7Mj58u4VgwPLnmjyEi18swf//MXL63XDKAh1Ho55/ulabUuChCBV3nvbfWuW1dN318vwVY1Yesbup665y1G7+fwdAaiqSU1w63TZ5Wk49IlZaROfkmhInKNMGD4xNXWSQu2IdpHnhAiAkcgwEIgEqy6PSpEYson+C9EuDlmN8ba9fuWOC75qA9GPW9xWNPN/WBc/2s2nq/7+Zc1VAlWWQWFxBRqatZ5cayUirRWidKVUs8NX6/Lxm4QYtN//SdzKZz+OZy9nM7ANwrAbqef2c/uF/U/9u679b2g+/tu95jn/2ApdJZLs2QgBImx6gXqn7FRFKIk/UhTJRnaVLxKW46/7SHiK/ZXAIAAADwpVI6zbI8j+QXeZ6XWaoTtURnwOmi+TSDT1MpnX67APrFr5Pq5LP9xx4cCAAAAAAA+b82gqqqqqqqqqqqqqqqqqqqqqqqqqqqqqqqqqqqqqqqqqqqqqqqqqqqqqqqqqqqqqqqqqqqqqqqqqqqqqqqqqqqqqqqqqqqqqqqqqqqqqqqqqqqqqqqqqqqqqqqqqqqqqqqqqqqqqqqqqqqqqqqqqqqqqqqqqqqqqqqqqqqqqqqqqqqqqqqqqqqqqqqqqqqqqqqqqqqqqqqqqqqqqqqqqqqqqqqqqqqqqqqqqqqqqqqqqqqqqqqqqqqqqqqqqqqqqqqqqqqqqqqqqqqqqqqqqqqqqqqqqqqqqqqqqqqqqqqqqqqqqqqqqqqqqqqqqqqqqqqqqqqqqqqqqqqqqqqqqqqqqqqqqqqqqqqqqqqqqqqqqqqqqqqqqqqqqqqqqqqqqqqqqqqqqqqqqqqqqqqqqqqqqqqqqqqqqqqqqqqqqqqqqqqqqqqqqqqqqqqqkp7cCAAAAAAIMjfeoMJKgAAAAAAAAAAAAAAAAAAAAAAAAAAAAAAAAAAAAAAAAAAAAAAAAAAAAAAAAAAAAAAAAAAAAAAAAAAAAAAAAAAAAAAAAAAAAAAAAAAAAAAAAAAAAAAAAAAAAAAAAAAAAAAAAAAAAAAAAAAAAAAAAAAAAAAAAAAAAAAAAAAAAAAAAAAAAAAAAAAAAAAAAAAAAAAAAAAAAAAAAAAAAAAAAAAAAAAAAAAAAAAAAAAAAAAAAAAAAAAAAAAAAAAAAAAAAAAAAAAAAAAAAAAAAAAAAAAAAAAAAAAAAAAAAAAAAAAAAAAAAAAAAAAAAAAAAAAAAAAAAAAAAAAAAAAAAAAAAAAAAAAAAAAAAAAAAAAAAAAAAAAAAAAAAAAAAAAAAAAAAAAAAAAAAAAAAAAAAAAAAAAAAAAAAAAAAAAAAAAAAAAAAAAAAAAAAAAAAAAAAAAAAAAAAAAAAAAAAAAAAAAAAAAAAAAAAAAAIBDm1TkWOhbLWYAAAAASUVORK5CYII=;" parent="1" vertex="1">
          <mxGeometry x="-19" y="759.58" width="178" height="49.42" as="geometry" />
        </mxCell>
        <mxCell id="s1kYgqIjggECkqIjnE60-23" style="edgeStyle=orthogonalEdgeStyle;rounded=0;orthogonalLoop=1;jettySize=auto;html=1;" parent="1" source="s1kYgqIjggECkqIjnE60-18" target="s1kYgqIjggECkqIjnE60-3" edge="1">
          <mxGeometry relative="1" as="geometry" />
        </mxCell>
        <mxCell id="s1kYgqIjggECkqIjnE60-24" style="edgeStyle=orthogonalEdgeStyle;rounded=0;orthogonalLoop=1;jettySize=auto;html=1;" parent="1" source="s1kYgqIjggECkqIjnE60-18" target="s1kYgqIjggECkqIjnE60-4" edge="1">
          <mxGeometry relative="1" as="geometry" />
        </mxCell>
        <mxCell id="s1kYgqIjggECkqIjnE60-25" style="edgeStyle=orthogonalEdgeStyle;rounded=0;orthogonalLoop=1;jettySize=auto;html=1;" parent="1" source="s1kYgqIjggECkqIjnE60-18" target="s1kYgqIjggECkqIjnE60-6" edge="1">
          <mxGeometry relative="1" as="geometry" />
        </mxCell>
        <mxCell id="s1kYgqIjggECkqIjnE60-26" style="edgeStyle=orthogonalEdgeStyle;rounded=0;orthogonalLoop=1;jettySize=auto;html=1;" parent="1" source="s1kYgqIjggECkqIjnE60-18" target="s1kYgqIjggECkqIjnE60-5" edge="1">
          <mxGeometry relative="1" as="geometry">
            <Array as="points">
              <mxPoint x="690" y="453" />
            </Array>
          </mxGeometry>
        </mxCell>
        <mxCell id="s1kYgqIjggECkqIjnE60-18" value="Supervisor" style="sketch=0;points=[[0,0,0],[0.25,0,0],[0.5,0,0],[0.75,0,0],[1,0,0],[0,1,0],[0.25,1,0],[0.5,1,0],[0.75,1,0],[1,1,0],[0,0.25,0],[0,0.5,0],[0,0.75,0],[1,0.25,0],[1,0.5,0],[1,0.75,0]];outlineConnect=0;fontColor=#232F3E;fillColor=#01A88D;strokeColor=#ffffff;dashed=0;verticalLabelPosition=bottom;verticalAlign=top;align=center;html=1;fontSize=12;fontStyle=0;aspect=fixed;shape=mxgraph.aws4.resourceIcon;resIcon=mxgraph.aws4.bedrock;" parent="1" vertex="1">
          <mxGeometry x="500" y="414" width="78" height="78" as="geometry" />
        </mxCell>
        <mxCell id="s1kYgqIjggECkqIjnE60-22" style="edgeStyle=orthogonalEdgeStyle;rounded=0;orthogonalLoop=1;jettySize=auto;html=1;entryX=0.5;entryY=1;entryDx=0;entryDy=0;entryPerimeter=0;" parent="1" source="s1kYgqIjggECkqIjnE60-18" target="s1kYgqIjggECkqIjnE60-1" edge="1">
          <mxGeometry relative="1" as="geometry" />
        </mxCell>
        <mxCell id="Rb3-9KN84XsQcw-WzDa4-9" value="Return the description&lt;div&gt;&amp;nbsp;of the images&lt;div&gt;within the document&lt;/div&gt;&lt;/div&gt;" style="edgeLabel;html=1;align=center;verticalAlign=middle;resizable=0;points=[];" vertex="1" connectable="0" parent="s1kYgqIjggECkqIjnE60-22">
          <mxGeometry x="-0.0139" y="1" relative="1" as="geometry">
            <mxPoint y="1" as="offset" />
          </mxGeometry>
        </mxCell>
        <mxCell id="s1kYgqIjggECkqIjnE60-28" value="" style="sketch=0;points=[[0,0,0],[0.25,0,0],[0.5,0,0],[0.75,0,0],[1,0,0],[0,1,0],[0.25,1,0],[0.5,1,0],[0.75,1,0],[1,1,0],[0,0.25,0],[0,0.5,0],[0,0.75,0],[1,0.25,0],[1,0.5,0],[1,0.75,0]];outlineConnect=0;fontColor=#232F3E;fillColor=#ED7100;strokeColor=#ffffff;dashed=0;verticalLabelPosition=bottom;verticalAlign=top;align=center;html=1;fontSize=12;fontStyle=0;aspect=fixed;shape=mxgraph.aws4.resourceIcon;resIcon=mxgraph.aws4.lambda;" parent="1" vertex="1">
          <mxGeometry x="960" y="414" width="78" height="78" as="geometry" />
        </mxCell>
        <mxCell id="s1kYgqIjggECkqIjnE60-29" style="edgeStyle=orthogonalEdgeStyle;rounded=0;orthogonalLoop=1;jettySize=auto;html=1;entryX=0.5;entryY=0;entryDx=0;entryDy=0;entryPerimeter=0;" parent="1" source="s1kYgqIjggECkqIjnE60-4" target="s1kYgqIjggECkqIjnE60-28" edge="1">
          <mxGeometry relative="1" as="geometry" />
        </mxCell>
        <mxCell id="s1kYgqIjggECkqIjnE60-34" value="Call Lambda&lt;div&gt;&amp;nbsp;Function Tool&lt;/div&gt;" style="edgeLabel;html=1;align=center;verticalAlign=middle;resizable=0;points=[];" parent="s1kYgqIjggECkqIjnE60-29" vertex="1" connectable="0">
          <mxGeometry x="-0.3855" y="-2" relative="1" as="geometry">
            <mxPoint as="offset" />
          </mxGeometry>
        </mxCell>
        <mxCell id="s1kYgqIjggECkqIjnE60-31" style="edgeStyle=orthogonalEdgeStyle;rounded=0;orthogonalLoop=1;jettySize=auto;html=1;entryX=0.5;entryY=1;entryDx=0;entryDy=0;entryPerimeter=0;" parent="1" source="s1kYgqIjggECkqIjnE60-5" target="s1kYgqIjggECkqIjnE60-28" edge="1">
          <mxGeometry relative="1" as="geometry" />
        </mxCell>
        <mxCell id="s1kYgqIjggECkqIjnE60-36" value="Call Lambda&lt;div&gt;&amp;nbsp;Function Tool&lt;/div&gt;" style="edgeLabel;html=1;align=center;verticalAlign=middle;resizable=0;points=[];" parent="s1kYgqIjggECkqIjnE60-31" vertex="1" connectable="0">
          <mxGeometry x="-0.2969" y="1" relative="1" as="geometry">
            <mxPoint x="-39" y="2" as="offset" />
          </mxGeometry>
        </mxCell>
        <mxCell id="s1kYgqIjggECkqIjnE60-38" style="edgeStyle=orthogonalEdgeStyle;rounded=0;orthogonalLoop=1;jettySize=auto;html=1;startArrow=classic;startFill=1;" parent="1" source="s1kYgqIjggECkqIjnE60-37" target="s1kYgqIjggECkqIjnE60-28" edge="1">
          <mxGeometry relative="1" as="geometry" />
        </mxCell>
        <mxCell id="s1kYgqIjggECkqIjnE60-39" value="Retrieve&lt;div&gt;Document&lt;/div&gt;&lt;div&gt;Content&lt;/div&gt;" style="edgeLabel;html=1;align=center;verticalAlign=middle;resizable=0;points=[];" parent="s1kYgqIjggECkqIjnE60-38" vertex="1" connectable="0">
          <mxGeometry x="0.0588" y="5" relative="1" as="geometry">
            <mxPoint as="offset" />
          </mxGeometry>
        </mxCell>
        <mxCell id="s1kYgqIjggECkqIjnE60-37" value="Amazon S3" style="sketch=0;outlineConnect=0;fontColor=#232F3E;gradientColor=none;strokeColor=#ffffff;fillColor=#232F3E;dashed=0;verticalLabelPosition=middle;verticalAlign=bottom;align=center;html=1;whiteSpace=wrap;fontSize=10;fontStyle=1;spacing=3;shape=mxgraph.aws4.productIcon;prIcon=mxgraph.aws4.s3;" parent="1" vertex="1">
          <mxGeometry x="1150" y="403" width="80" height="100" as="geometry" />
        </mxCell>
        <mxCell id="Rb3-9KN84XsQcw-WzDa4-6" value="" style="group" vertex="1" connectable="0" parent="1">
          <mxGeometry x="465" y="810" width="430" height="200" as="geometry" />
        </mxCell>
        <mxCell id="yiZmarmWkRWH_-EzoF3m-1" value="&lt;div style=&quot;text-align: left&quot;&gt;&lt;font color=&quot;#353740&quot; face=&quot;Söhne, helvetica, sans-serif&quot;&gt;&lt;span style=&quot;font-size: 16px&quot;&gt;&lt;b&gt;Knowledge Base As a Service&lt;/b&gt;&lt;/span&gt;&lt;/font&gt;&lt;/div&gt;" style="whiteSpace=wrap;html=1;fillColor=none;dashed=1;verticalAlign=top;" parent="Rb3-9KN84XsQcw-WzDa4-6" vertex="1">
          <mxGeometry width="430" height="200" as="geometry" />
        </mxCell>
        <mxCell id="yiZmarmWkRWH_-EzoF3m-2" value="Amazon S3 - &lt;br&gt;source &lt;br&gt;documents" style="points=[[0,0,0],[0.25,0,0],[0.5,0,0],[0.75,0,0],[1,0,0],[0,1,0],[0.25,1,0],[0.5,1,0],[0.75,1,0],[1,1,0],[0,0.25,0],[0,0.5,0],[0,0.75,0],[1,0.25,0],[1,0.5,0],[1,0.75,0]];outlineConnect=0;fontColor=#232F3E;gradientColor=#60A337;gradientDirection=north;fillColor=#277116;strokeColor=#ffffff;dashed=0;verticalLabelPosition=bottom;verticalAlign=top;align=center;html=1;fontSize=12;fontStyle=0;aspect=fixed;shape=mxgraph.aws4.resourceIcon;resIcon=mxgraph.aws4.s3;" parent="Rb3-9KN84XsQcw-WzDa4-6" vertex="1">
          <mxGeometry x="30" y="55" width="78" height="78" as="geometry" />
        </mxCell>
        <mxCell id="yiZmarmWkRWH_-EzoF3m-3" style="edgeStyle=orthogonalEdgeStyle;rounded=0;orthogonalLoop=1;jettySize=auto;html=1;entryX=1;entryY=0.5;entryDx=0;entryDy=0;entryPerimeter=0;fontSize=12;exitX=0;exitY=0.5;exitDx=0;exitDy=0;" parent="Rb3-9KN84XsQcw-WzDa4-6" source="yiZmarmWkRWH_-EzoF3m-4" target="yiZmarmWkRWH_-EzoF3m-2" edge="1">
          <mxGeometry x="130" y="851" as="geometry">
            <mxPoint x="160" y="94" as="sourcePoint" />
          </mxGeometry>
        </mxCell>
        <mxCell id="Rb3-9KN84XsQcw-WzDa4-5" style="edgeStyle=orthogonalEdgeStyle;rounded=0;orthogonalLoop=1;jettySize=auto;html=1;" edge="1" parent="Rb3-9KN84XsQcw-WzDa4-6" source="yiZmarmWkRWH_-EzoF3m-4" target="Rb3-9KN84XsQcw-WzDa4-3">
          <mxGeometry relative="1" as="geometry" />
        </mxCell>
        <mxCell id="yiZmarmWkRWH_-EzoF3m-4" value="Amazon&#xa;Bedrock Knowledge&#xa;Base" style="shape=image;verticalLabelPosition=bottom;labelBackgroundColor=none;verticalAlign=top;aspect=fixed;imageAspect=0;image=data:image/png,iVBORw0KGgoAAAANSUhEUgAAASIAAAEbCAYAAAB+y4nTAAAgAElEQVR4nO3dzU+bZ94v8G+rOB7VGuMucCsZJqZBRKrRxLhSIqKcxmRDFmnw9CiZzaR4qpzF0ZGKkz9gcLOf4kbPLtFAaRfTVGog6QI22M1EQUSqTSKMFATF5WVjSyeOEegBo5lnQW6HUsDX/eL7zd+PhOoZ3dg3AX99Xb/r7Y03/vn3/4CISGf//vONyuM3DbwPIiIADCIiMgEGEREZjkFERIZjEBGR4RhERGQ4BhERGY5BRESGYxARkeEYRERkOAYRERmOQUREhmMQEZHhGEREZDgGEREZjkFERIZjEBGR4RhERGS4I0bfABHVp+3t7cpjBhERGaJcLlces2tGRIZji8iEzjU2AQB+2Sght14y+G6IasPhcFQeM4hMpK8thHh7Jxoczsr/97RYwNBiFqOr8wwlspUjR17Hzxs818x4YW8zBjrCOOlpPPQ6hhLZye5zzRhEBvK73Bjo6EKP77js72UokdUxiAzmcTjR1xZC7EToV90wpRhKZEUMIgNFfK0Y6AjjmMtdk+dnKJFVMIgMEPR4MdARxjlvk26vyVAiM2MQ6cjjcKK/vRN9bSFD74OhRGbDINLJfsPxZsBQIjNgENWY6HD8YZ4VC/Ac/R3+8NbvNbyz32IokVEYRDWiZjhesrSxhlg6iZHVeQA7taVoSwCRplaGEtkKg0hjWgzHl8pbSMz9hMTzNIrlzX2vYSiRnTCINKTFcPz91QXEMklZb3iGElkdg0gDWgzHPysWEMukkMovq74XhhJZDYNIBS2G40vlLcRnHiMxl9bwznboGUqfPhnH0GK2pq9B9sUgUkiL4fhbcxnEZx4fWAfSkh6h9PGj+5XCOpEcDCKZtBiOf1hYQSydwnQxr+GdiatVKP2yXkLLD3c0ez6qH7uDiPsRHUKr4fj4zGPDuzDTxTximTximaSmoVSrNXN68Lvc8Dh+Z9iHA73GINqHVqvjb2YnDx2ON0qtQsnM/C43enytiPhaDxxgeFosIJVfRiq/jNHVBZ3vsL6xa7aHUcPxZqA0lN789osa3pU6YW8zBk91y/59vixvIvE8jS/nzPdBYhesEe1Dy9XxZn5jipITSmb8ebX6fb4sbyKWTuGrHEcHtcYa0S5mWR1vNlL3rVj+b/wt0Gn07cgSbQlgoCOsyWLjBocTg6e7EfY24XomxdZRjdR1EJl1dTwpN9ARrsmHSm9LAMG3veiauMswqoG6PNcs7G1GpvuqZp+aZA7xGrdsT3oakTx/BR7+zWiuroLI73Lj3tkeTHRdVjUniMwn4mvVpQt50tOIgY5wzV+n3tRF10zL1fEex+/wWVuHxndIavhdbgye7tbt9XpbAvhlo4T4zKRur2l3tg8irYfj4+3WKtzWg3j7GVkfMM+KBaTyKyiW/xvFrU14jjoR9HhxScbE1b62kCnniFmVbYPITKvjqXaCHi8+8b8vdO3DwgriM5MH/j49Difi7WeEWrwNDidiJ0JsFamwvb1deWy7IDL76njSlmgL9dZcBrFM8tBriuVNxDJJpPLLGDp9AW7H0UOv/1ugk60iFcrlcuWxrYrVfW0hLH50TVUI3ZrLwP/gNkPIIkRavMO52aohtNvI6jwij0aFro00tQo/Lx3MFkGkxXD8w8IKQuPfIJZJ8hPOIiK+1qq/76WNNUSnxmQ/dyq/jJvZ6t2usLdZ9nPTDofDUfmydNfM43BioCOM3paA4ufYu1k9WYdICMRnHit+/sTzNGJtHxzaRVOzM0O9O3LkdfxYukWkNoRuZicRHBtmCFlU8O3D54KVyluqtl8pljerDlRwQqw2LBtEfpdbcQjdX13Aez/cQXxmkt0wG9NinyGR5wh6vKpfp95ZNoiU9M2XNtZwPvkdIo9GLbdFB/1WtdnxxS31HzKp/ErVazxH2SpSy7I1Ir+MCYocjrenN/CG0bdAGrFsEIkazs0iluZImB1NF/P4sPHg4XstWiphDfanoupsHUQ8YaK+fdjYBI/DqepDSKT+w5n36lm2RiSCrSB7m35RqHqNmgmHfpe76vqzpY01xc9Pr9k6iMjeRFq7Ax1hxfsHxdvPVL2GrSFtMIjIslL5ZZTKW4des7PV6wXZzx1tCQgtpmUQaYNBRJYm0irq8R3HvbM9wi2jaEsA/zhVfX+jpY01w8+rswsGEVma6BKOHt9xZLqvotd/8CTYsLcZya4rQiEEAEOLM0LXUXW2HjUj+8utl3BrLiO0h9CxVzs5JkJhTL8oVLpVwbe9CHoaZW2et7SxhsRzzkvTCoOILC8+81jWoZANDifOeZtUbZoXnRrjqKyG2DUjyyuWNxVt9aHUrbkMi9QaYxCRLaTyy/j0yXjNX0fuJmskhl0zkwp6vGg4ZB+cl+UtTVaX24k0giVabJZrODera8urnjCITCoRCh+6juphYQXhibs63pE1DC1mMf2igJH/1SNcMxJxI5PioukaYteMbGe6mEdwbBi35jKqn+thYQXnk98xhGqMLSKyJelEjsTcT4i3n0HE11r1VI7d7q8uYGgxy0XTOmEQka3l1kuVuk7E14rvz1469Prdh2mSftg1o7oh0rqZLuYZQgZgEBGR4RhERGQ4BhERGY5BRESG46gZERlie3u78phBRESGKJfLlcfsmhGR4dgikmnn5M9Jo2+DyPIcDkflMYNIplR+mXvREGngyJHX8cOuGREZjkFERIZjEBGR4RhERGQ4BhERGY5BRESGYxARkeEYRERkOAYRERmOQUREhmMQEZHhuNaMVOsPdBp9C2RxDCJSrb+dQUTqWLJr5ne50eNrrXpdj+84PA6nDnekLb/LjWNvuY2+DSLdWCqIPA4nBjrC+PniNZz0NFa9vq8thMWPrqHXH9Dh7rTR1xZCpvsqjrkYRFQ/LNM162sLId7eiQaZLZwGhxODp7sROxHC9UzKtHsJ+V1uDJ66gHPeJqNvhUh3pg+isLcZg6e6VbcQTnoaMdF1GaOrC7husiOFlYYsaW/6RcHoW6hLpg2iWrUQenzH0eM7js9nJvHlXBrF8qamzy+Hmp9xaDFbgzuqb6XyFqaLeaNvoy6Zrka0uw5Uy25Kf3unofUjqRak5Gd8WFhhENVAzGQt5XpiqhaR3l0UI+pHalt6t+YyiGWSGt9VfXtYWEF8ZtK09cN6YIog0qIOtLSxBo/DCbfjqOzv1at+pCZolzbWEJ0aM+Wb5c1vvzD6FsjiDA0iLepApfIWEnM/IT4zCb/LjXj7GXzif1/Rc9WqfqRFKyg+89jQehZRLRkSRB6HE/3tnehrC6l6nuHcLGLpZOUNmlsvITo1hqHFLOLtnfiwUdkbv7+9E7ETIcTSKXyVU1eLsWsriEhLugeRFnWgh4UVxNKpA0c4UvllhCeWEW0JIN5+Bn946/eyX0Nt/YitICJxugWRVnWgWDqJkdV5oeuHFrMYWZnfad20faBb/YitICJ5ah5EWteB5CqWNxGfmXzVXatt/YitICJlahZEtaoDKVXr+hFbQUTK1SSI9KgDKaV1/Sg+8xixtg/YCiKS6enTp5XHmgaREXUgpbSqH90726Po9dkKIiWCHi8aHEfhOeqE39WA6Rc7H9Q/FlYMvjP53nnnncpjTYJIWpbR26J8uYSaOpBSWtWP5GIriOTo9QcQaWpF2Nt0aC/jabGAkZV5jK4uWGLN3Lvvvlt5rEkQqQ0hrepASmlVP6qGrSAS5XE40dcWQuxESLjEcdLTiJOeRvS3d+LH/Ao+z1pn2YrqIPK73IpDqFZ1IKW0qB8dhK0gEqVFieOctwkT3sv4ajGL65mU6f/uVAdR2Nss+3v0qgMppUX9SMJWEMkx0BFWPdK8W29LAGFvM/706L5pPvD3o3obEL+M1C6Vt3AzOwn/g9umDSGJVD8Kjg9jODer6DluzWUQHBtmCJGQwVPdmoaQ5JjLjeT5y4oaDXrRbT+i4dws/A9u61qM1oJUPzqf/A4PBUcmljbWcD75HWIZ4+peZC2Jji5VddZqGhxO3Dt7CUGPt2avoYYuQfTxo/uITo1Z+k25Uz+6K9Q6YiuI5Ij4WvFZW0fNX0ea/2bGk210CSIrB9BeufWXVa+x089LteV3uTF4ulu31zvpaUQi1KXb64kyxcZoangcTr7xybLi7WdkrUC4v7qAkdX5Xy2+DnubEPG14o8CR2wBwCf+9zG0mDVVq92yQbR7Ldt7P9zhXsNkOX6XW3gS7f3VhQP31E7llxGfmUTE14qh0xeERnn7A52mCiLTbZ4vQjo4URphGDx1weA7IpIv1vaB0HU3MilEHo1W/bAdWZ2H/8FtPCtWPxLpnLfJVIVrSwVR2NuMxYvXMNAR/lVz9py3ydRDk0T76fEdr3rNrbkMEnNp4ecsljcRnriLUnmr6rWRpuqvrxdLdM1E9vkZPNWNlh/u6HhXJOkPdBp9C5bjd7mrzpxe2lhTdGJLsbyJ6NQYvj976dDrenytpplOY+ogkrOn0TGXG7G2kKxPD9JGfzuDqBbiM48Vf+/I6jyeFQuHFrBPCha39WDartneOpCI/vZOU86RIFJiZEXd6gORQzjNUtIwXRAdVAcS0eBwmnKOBJFcz4oF1dNSpgWK1mZhmq6ZVntbi0w4JDI7vebGyVkrWkuGB5HZ9rYmqidmmX9naBCZeW9rIiNpUUi2Ur3UkCCy0t7WREZocDgR9HhVfcBGmlqrXmOWUoauQWT0GWdEVhI7EUJ0akzR93oczqoTJndqqnXUNZM212cdyJ7e/PYLo2/BcjwOJ/7/x//v0Gs+8b+PxPO0olbR4OkLVUseZupN6BJE1WZ4VsM6ENlNsbyJ+6sLuFSl1ZI8fxktD+7I+vCNtgSElo9w0augpY01fPzoPsITdw0PIY/Dif5AJ/4msJxh8eI100wUI/MSaZE0OJxY/Oia8ALV/kAn/nGq+v5GpfKW6gmTWjJlEJltb+uIrxWZ7qvCSxmOudyY6LqMe2d7TDNPg8xnaDGLpY21qtc1OJxId/8Fg6e69w0kj8OJXn8AixevCf+NJuZ+MlWJw/B5RHuZqQ6ktrje4zuOsLcJiedpfJ5lcZ1+K5ZOCpcuelsC6G0J4Jf10q+KzHL/Ppc21kw32GOaIDJTHUg63E6LxZwNryZsRlsC+OuTcVP1y8l4I6vzQrWi3Y4JrNw/TCwtf0V/LWxvb1ceGx5EZjv3K+JrxUBHWNUvej9Sd210dQHXD9hpj+pTdGoMqfNXhLd6VeNmdtIU5Q4AKJfLlceG1YhK5S3cyKTgf3DbFCHkd7mR7LqC789e0jyEduvxHd+pN3EPH3plZ/+gcaHNzNQYzs2arksmMSSIbs1l4H9w2xR7B0mjYT9fvKZqoqUcUneNo2skmS7mEZ64K1S8VmI4N6t4cmStOByOypeuQfSwsIL3frhjmoMHw95mWaNhe0mje/dXFxR9P0fXaLfpYh7BsWHhgzxFffpk3HQhBABHjhx5/aXHC5qtDuR3uTHQ0SU06esge09VCHubMXT6Av7w1u9lPxdH10gi7Tkdawsh3n5G6ESOgxx28ofZ6NIiMlMI9Qc6kem+qjiEpOOk956qkMovw//gNm5mJxX19dldo90Sc2l4vv8vfPpkXFZ3rVTewv3VhX3/Rs3M8FEzvahd8S+62DY+M4mhxSwSHV2yhmQlHF2j3YYWsxhazMLvciPsbUbE1wrP0V+vIStubWK6mMf0i4JpRsTkqosgireLLc04iNwmbm69hMijUUR8rUiEulR117omvjPF3CoyVm69VAklOzLlEg+tjawoKyYf1A0Tft3VeQTHhnFTYd3nl/USQ4jqQl0E0XQxj1tzGeHrd691U1vbKpY3EZ+ZxHs/3JE9GhLLpFS9NpFV1EUQATtnRIkUke+vLiA4Pqz5xK/cegnhibv4+NF9oeLjcG7WNAV+olqrmyAqljcPPTVTbTdMlEh3rVTeMs16ICI91E0QATsjEHu7R1p2w0RV667FZx6bYsInkV7qKogAIJZ+XXepVTdM1H7dtWfFgimWvhDpqS6G73ebLuZxMzuJVH7FNDWYkdV5pPLLiJ0IIZXXdno/kRXUXRABMOUKZKm7ZkX1sJPA6OoCp1LUUF0GEWlLiw3kzK6/vRNfzqVxnVMqaqLuakRESvW1hRBTeSQW7Y9BRCTDFx1h4RM1SByDiEime2cvWepceStgEBHJdMzlxuDpC0bfhq0wiIgU6PEdZ71IQwwiIoVYL9IOg4hIBdaLtMF5RII8DifXfx3gzW+/MPoWNOd3uTHd/UnVPaOletGfHo3qdGf2xBZRFUGPF5nuqyxO1pncekn45AvWi9TTJYjunb2EPgv+ovoDnUh3/wUnPY3o8R1HxNdq9C3pRjrvTc0Wu1Y3sjovvKEe60Xq6BJEDQ4nBjrCljmhQmoF7V26MHi6uy7qARFfq6rz3uwklkniWbEgdC3rRcqprhHJ2URMOqHix/wK/vpkzJQnVPQHOg98AzY4nLauB/hdbgyeuqDbibdWEZ64i9xH/0dxvcjjcOKkpxFhbzP8Ljf8rgYAOztBFLc2kVsv4cfCsinfD3pRHUTTL8Q+LXY7523Czxev4cu5ND6fmTRFETjo8WLwdDdOehoPvU7qoln12Jb9eBxO9LWF2AI6QLG8icijUUx0Xa56rVQvSsylEfY2o68tdOAZensD/2mxgKHFLL5azJriPVFr29vblcdvvPHPv/9H7ROmzl/Bh43KPkVfvtr+4ksDNwM7rBW0n5flTbQ8uGOLP5aIrxUDHWHF570B9hw124+cY6l+zK8oblm+LG8i8TyNL+fStvgbO8j6pf9beaxJEHkcTqTOX8Efq7QmDvPLegl/fTKu62Zloq2g/YyuLli6i6ZlN6xegghQ96Er1y/rJfzp0X3b7oO0O4g0KVYXy5sIjn+NG5mUouOWgdf1o2TXFfhVfDqL2j0iJtezYgGfW3QTM2k07OeL11gLUiDyr1HFf+NyHXO5kTx/GdGWgC6vpzeHw1H50qRFtJvH4US8/Qw+a+tQ9Ty1qh+paQUBwM3spGV3UtSiG7afemoRATvHl4vUi7T06ZNx253y+u8/36g81nz4Xjq2R8mBgrv1tYWw+NE1TecfqW0Fhca/sWQI+V1uJLuu4PuzlzQPoXqUyi8rPr1XqX+c6rbE1BelNG8R7RX2NmPo9AVF579L1NaP6rUVpNdoWL21iCR61ouAnSJ218R3tqkZ1bRFtFcqvwz/g9uG1Y/qtRWkdlJiqbyFG5mU7p/8VjKyonwKh8hpv3tJE4PtSLdFr4m5NIYWs6rqR3LmH9VrK0iL0bDh3Cxi6eTOySKcW7Qvj8MpK+QfFlaQeJ7+zfyzoMeLaEsA0ZZA1QmTwM57IOxtNs1RWFrRdfW9VD9KzP2EodMXFDdr+9pCiLYEDpx/JHde0G7PigVEp8Yt1/zVohv2rFhALJOy3R95LcROhNAgsJyjVN5C5NHogf+m08U8Ypm8rPdEf6DTdr8jQ1bfSyecnk9+p6iJCuy/fu2gNWKibmYnERz/2nIhpFU3LDj+te3+wGul1199SL1U3kJwfFjo31R6TwznZqtee87bZLsFtobuRyTVj2JtIcTbzwg1TfeS6kdPiwXF3TCrtoK07oaRmKDHKzT6GJ64K3v9WCydRNDTWHVycNjbZLm/18OYYj+ixFwa/ge3hbdc2I+aWpDVWkFaTEp8VizgfPI7RKfGGEIyRZr2Xzu223BuVtHf1E75ovohjr02m+Romh0ataofibJqK0jtpMRSeQvxmcdIGLi2z+pEukXxmceKnz+VX8azYuHQVpHSD16zMk0QSaS+shbzjw5ixRExdsPMw3P08CL1s2JB9ZYeI6vzqtZuWo3pgkiiRf1oLyu2gjgaZj7VWutaBL3I9jp2GsY3bRBJtJh/BFizFWSVbli/ibaTza2XMLo6b2irT4sNzuqt1Wr6IALU1Y+s2AqyWjfMbBuq/bLeWdPtM5Y21g4tGWixe4QeO1CYiSlGzUTJnX90ay5jqRExjoZp45jLXdP9o3PrLw9//bfUh4hIQdwu3TLAYkEkSeWXMbQ4U/U6K23nykmJ2jrmciPSVJtTV4pbhwf8MZdb9YTDg7aXtStLBpGdaLFFx3BuFv4Htzkkv0etujciQa+muxptCVT9W7i/uqD4+c2IQWQQdsOsS6SlrfQcPI/gCnu7tXotUay2G6uMhtH+cuulqhMOgZ1z8HITJeEapcfhRPL8FaHFtFYqO4hgi0hH7IbZh8i/f4PDiXT3X4R2GQ17m5Hpvio0Y/phYcV2Z6CxRaQDTkq0H2lum8jM/4GOcOWss+kXefz4agvloMeLk55GRFsCsrrn0akxxfdtVgyiGquHbphRW8Xu3mrUCLF0Et+fvSR07TGXW5PdFYdzs7ZrDQEMopqx2qREkm9kdR7DuVl84n9fl9d7Viwglk7q8lp6YxBpjN2w+hKdGhPaP0itUnkL0alx234oMYg0VA/dMPqt8MRd1ScdH6ZU3kJ44q5lVggowSDSALth9a1Y3kR44i6GTl/AJY1nRC9trCHyr1FbhxDAIFKF3TCSFMubiDwaRaKjS/Upx5KHhRVE/jVq2w+n7e3tymMGkULshtF+pF0i4u1nFBex6+XDqVwuVx4ziGRiN4yqya2XEJ0aQ3zmMaItAUR8rVXrR0sba0jllzGyMm+7WdMiGESC2A0juXLrJcRndjbk87vc8LsaXv13pxVd3NrEdLHw6r/2rgHtx+FwVB4ziARFWwKqtuhgN6y+5dZLtpyIqMaRI6/jh2vNBCXm0ooOg+TaMKLqGEQyyFnjwy06iMQxiGRI5ZerHgnMnRKJ5GONSKZYOomIr3Xf4404GkakDFtEMhXLm785xZPdMCJ12CJSIDGXRrQlAL+rgaNhRBpgECkUnRpHbv0lW0BEGmAQKVSPE9DMROSEDi3OFyN9MIjIUnr9AeGtVXtbAog0tWJkZR5f5WY5imliDCKyBKWLjBscTvS2BNDbEsDo6gKuZ5Kc4WxCHDUjU/M4nLh3tkfVySeSHt9x/HzxGqItAY3ujrTCICLTCnq8SJ6/ovnxy/841Y3BU92aPiepw64ZmZLf5Uby/GWhwwaV6H3VKvrrk/GaPD/JwxYRmY7UHatVCEl6WwJsGZkEg4hMZ/D0BaETT7XQ+2rjMjIWu2ZkKhFfq+ya0NLGGnLrLyv/O+jx7rsW8CCDp7uRerDMyakGYhBZXF9bCF8tZm3zJpJzGupwbhaJ5+l9J5dGfK2InQjhw8bq840aHE7E288glrHn4YVWwK6ZRYW9zch0X8VARxjx9jNG344moi0BoSH6UnkLofFvEJ0aO3CG+8jqPMITd3EjkxJ67d6W9+GpcU2KDsYgshiPw4mBjjAmui5X6iiftXUg6PEafGfq9bWFql5TKm/B/+C28BKbxFwanwqMjDU4nJxfZCAGkYVEfK1Y/Ojavm/YwdPWHv3xOJxCBerwxF3Z3dChxSxuzWWqXhdpYtHaKAwiC/C73Eh2XcH3Zy8dOKR90tOImECLwqzC3uaq1wznZhUvNo7PPEapvHXoNSL1JKoNBpHJ9Qc6kem+KrTIs7+9U2hVuhkF367eGhpazCp+/mJ5U+i8MJFAJO3ZOojunb0kVHcwI6kY3d/eKTyxr8HhxEBHV43vrDZEalxqV8+PrNTfwYVWYesganhV2M10X7XMJ91+xWg5enzHLdkq8hw9PGwfFlZUv4ZIbSmo00RK+jVbB5HkpKcRE12Xce9sj6nfpIcVo0U8LKzgvR/ucJuLA0y/qF5fqhaIVBuWDaKRlQXZ3yNtA9Ef6DTVnBGRYvRhSuUtfPpkHOGJu7YNIS12Wwy+Xb37Z9d/P7OzbBBNF/OKm+v97TsF4F6/8fNG5BSj9yOdJKumkGsG1eo/x1xu1R8eIt0uBpExLBtEABD51yieFQuKvveYy43B091Idl0xZDKgkmL0bksba7Y6wqi4Vf1nUDvhsFfg+0W6b6SNp0+fVr4sHUTF8iaC41/j0yfjVeeIHOSctwnp7r9g8FS3Lt01tcVoALiZnYT/wW1b7cGcyldv3fa1hRT/jsLe5qr/3ksba7YIdat45513Kl+WDiLJ0GIW/ge3hWbPHqS3JaCqUCxCq2J0fGZS4zsz3nQxj6WNtUOvOeZyy1oUK/E4nEL7DnF4X1/vvvtu5csWQQTstI5imSTe++GO4tqRNNy/ePGapsP9LEaLEQkCuZuZeRxOJM9fEVpMa/U6m5XZJogkufUSwhN38fGj+1U/YQ9yzOXWbLifxWhxibmfhK7rbQkg2XWl6u+m17/TyhXpAj8rFnhWnYFsux/RyOo8RlbnEW/vRKztA1kbZUl6fMfR4zuOz2cm8eVcWlb9IOxtxuCpbsUnTyxtrCE6NWarOlA1ufUSbs1l8FlbR9Vrz3mb8PPFaxhdXUAqv/yrInOkqRURX6usf/uY4HYhVBu2DSJJfGYSQ4tZJDq6cEnhaRD97Z2ItgQQn5nEV7nDWyZSMVpkhOYgN7OTtqwDiYjPPEa0JSD8wSF9WKhx/1WYkXFs1zXbT269hMijUZxPflfT4X6pK6A0hOxcjBYl1fr0UipvITo1ptvr0f7qIogkqfwyguNf40Ympelwv1SMHjzdzWK0BoYWs8I7K6pRKm8p2t+ItGf7rtl+EnNpDC1mEW8/I1SP2M/uc9XVdMOGc7OIpZN8M+yRmEsj+LYXn/jfr8nzSy0hFqjNoa5aRLtJXYDQ+DeqhvuVhpDdZkbXQnRqTGibV7mWNtYQnrgrtD8R6aNug0gyXcyrHu6Xywozoz0OJ3r9AfQYfObX0GIWofFvNPvd3F9dQHBsmC0hk6nLrtl+RlbnkcovI3YipHi4v5qHhRVEp8ZMWwfyOJzo8bUi0iT/bLFami7m4X9we2fksv0M/vDW72U/x8PCCuIzk6YO/3r2xhv//Pt/jL4Js/G73KqG+/cqlbcQyyRNOdYUJRkAAAI7SURBVClRi/B589svNL6rw0Ve3W/Y23xoKD0rFnbmk60ssAVkQv/+843KY7aI9iEN94e9zUh0hPFHlbv2RR6NmuqT2KwtH1HSZFVg52fZu89QcWuTwWMxbBEJiLWFEG8/o6q79uVcGp/PTBpWmK5V+CxtrMH/4LZmz0f1gy0imbQY7u9rC1VmZ385l9b4DvenR8tnaHGmJs9L9YUtIpmCHi8SobCqM7CeFgu4nknVpLumZ7drODfLWcmk2O4WEYNIoYivFYlQl6IRHMno6gKuZ5KqR9H0DJ9SeQsjq/MYWsyaqu5F1sMg0ojH4VQ93P+yvInE87Ts1f1GhM/IyjwnAZJmGEQa02K4/5f1Eq5nUoe+0Rk+ZCcMohrRYrj/x/wKrmdSleFnhg/ZFYOoxrQY7v9qMQvP0d8xfMi2GEQ68Dicqob7a4nhQ2bAeUQ6kFb3Dy1mVQ/3a4HhQ2bGIKoxaXW/FsP9cjF8yCoYRDrRY3U/wPAha2IQ6ahY3tRkM/+9GD5kdQwiA2ixup/hQ1a3vb1decwgMpC0mb/ocD/Dh+ykXC5XHjOITOCw1f0MH6oHnEdkMn6XGxFfKzxHnZh+UWD4kG1t/e/PKo/ZIjKZ3HoJCZ32KyIy0pEjr+On7k/xICLjMYiIyHAMIiIyHIOIiAzHICIiwzGIiMhwDCIiMhyDiIgMxyAiIsMxiIjIcAwiIjIcg4iIDMcgIiLDMYiIyHAMIiIyHIOIiAzHICIiwzGIiMhwDCIiMtz/AMwCsl0kPAM/AAAAAElFTkSuQmCC;fontSize=12;" parent="Rb3-9KN84XsQcw-WzDa4-6" vertex="1">
          <mxGeometry x="180" y="54.879999999999995" width="80.06" height="78.12" as="geometry" />
        </mxCell>
        <mxCell id="Rb3-9KN84XsQcw-WzDa4-1" value="" style="group" vertex="1" connectable="0" parent="Rb3-9KN84XsQcw-WzDa4-6">
          <mxGeometry x="310" y="39.000143821716506" width="98.63" height="94.9998561782835" as="geometry" />
        </mxCell>
        <mxCell id="Rb3-9KN84XsQcw-WzDa4-2" value="" style="group" vertex="1" connectable="0" parent="Rb3-9KN84XsQcw-WzDa4-1">
          <mxGeometry x="14.879999999999995" width="83.75" height="94.9998561782835" as="geometry" />
        </mxCell>
        <mxCell id="Rb3-9KN84XsQcw-WzDa4-3" value="Amazonn&#xa;OpeanSearch&#xa;Serverless" style="shape=image;verticalLabelPosition=bottom;labelBackgroundColor=#ffffff;verticalAlign=top;aspect=fixed;imageAspect=0;image=data:image/png,iVBORw0KGgoAAAANSUhEUgAAAFAAAABQCAIAAAABc2X6AAAAAXNSR0IArs4c6QAAAERlWElmTU0AKgAAAAgAAYdpAAQAAAABAAAAGgAAAAAAA6ABAAMAAAABAAEAAKACAAQAAAABAAAAUKADAAQAAAABAAAAUAAAAAAx4ExPAAAIJElEQVR4Ae1bB3BUVRQ9oZfQQpMivUoZQHo1NKkmlCDCiIyKveDAiKAowqiAosyoI87AUGRQEJEaBSlJQOmEGqSHQCgCIfQunrM/hmWX3f3Z3Z9Mlj2z8/P+//f9/86799137/0Q8kXEXTxMyPEwkRXXIOFA13hQw0ENB9gMBE06wBTqRCeoYacpCbALQQ0HmEKd6ORyupJ5F3qPRuXH3b3uyFYsGOdOwIt7WWnS7tmSjEcBLwhnpYaN4U6KfPCwhy188HUfr2alhn0cunfdg4S9m7fs0yvr17CZufKjP88eJu3RXXsUSJ/W7KFhY7h+8ef+J+xH80tXix8b/jdpj9blUcCP9Jwf5X8NG+/wi/k5D9f3K/7XsO9jsvQJVmnYzKBdWYGZvl7LZDbhLCFpPzuZTdj+3e7bFk2NWcL+3WzyhSr1q9QQhUuiYDHkzocr5/U7k4iDG3HqIGDZFz6zhD3uJR4FDH2GlUfrgajaFDly3qfg0DCdVmmMZn1x+Rw2LcCO3/Hvnftk/HJilrDxMldmZiZ3zZUHTzyP+p0RkgN3biNxOw5txNkkKfbWdek5tDgerYfqzVC4FNoPQaOeWPkdju7wC817D8kY4Xv9MtgimciRKF1NStu+DBvm4eqF+x5xOQWnD+HQJsRMk57bDEKJCujzEWKmY9sSuJro+x5h7iQzCBcqjgETpcDzJ7DoM5w7pqFRz+Ufk0p5PY9tDack49Bm2fPhLWA1q3k/tOyP8BdQoAjWzTbHxoSU5YRz50XEKLE6vkdsr1/W6m3QFc2ixMQBHV/GkW2Im4WzR7F+rgy+x3Ct6pTjSIhxkPXy1HLC4UNQuqp0u/BT3LgCapv8eYWgqqnS1BO4eR2hxVC2Nio3SvPesTOwdTEOrMfKKej8un503aTtO/xP2H69layEuh1w5xYWfmJjW8Jm22FIPYnVU2W39ti6BNyuWjyNRj3k3goUxdpZ2PUHytRAvU5oO0hT5jusjaXbPIuQEMRHg+uTXjqSth2GY7sxe7gjW4MJDX7NNCyeIDfetDdqt9PltT/g5jXtZOVq+87Xyn/jwZ2GJnrrBjb+rIE27I5SVcR8kc223Yz9wAasmqL79Fh5CuDaRTlqok4HHX2EhRqmThCCxHg5Kqq3aR8NddX3uHHV85h3rcSxXchfWNNE7I3TsWoT2YuPsJAwI0eCWytRob7W5+mDSNqpUzPY9IukarbSke6Kbo9enTbiIywkXKSUxsbwmCBh4qCNvFomkLRLS5duL38hSXOjIhiE+QgLCRvhMSNHgrsRwQVsHozJLpyWOPdwgqGY2raQWy1vYSHh3Pk1qJu2FUvfk95WyxyM1Z7X6HtNffLYnmmu94OlLCR8NVWv5HZK2Ld1bg4FbX2v2D3n0jlzPV1LWUjY3ghTTmgIZWu6HojTHbrooo/g9k1cOqt7hWzGfOmMk1wGL1hI2EgSytfViA5v1rFaM+1PJlGztRIMenVyZvhdppb6pZ4y2dulmIWEWbsgmN8S9NXM/hiKMGw0A9ZAmkdJcPcqHSvUA1fyqQNp2tYlb2EhYSqH+wpzYP6IuJk6thyAsjZd6cQVQtD1bc3OyX3KH4j6XXQ0wg+1fICFhJkzxC/T0No9pyP5b12EnLnQ+0OFnK7AdLLncFRvofgserKkOEHVm6vBuMV3WEiYg2NpipEws/y6HTXU2JnSEo2TJcHuwxzDJm45FBv8DWq0UmrF5JlJFW2706tpNCNGKnPyEf5PD436lpEkchNm9tPtHXR8BeeTkbwX0V/ibCJa9EetNvpxmyEro6ZVoqL0T3C1L5ukWJKheNeh4HWGWRfPqPQTNRZLJqpI4DX8T9hhKHtjpcnGEdLq0knKCqn2hFg06SW7ZQRmBGHsxdCKCcPOFfh7ncq0tG2ypTFzUhaMBXfjTq8pu458Hyu+xZ7VDu8xe2o5YQ4kbgYYQjC57fUBNszF5l9VuFozVcovVkbRourSqVI1LdkASyKd30CpykqtFnwszsTyr1XiZMWny1t6ICfOC2QG4bt3Ef2VCjqsSNOY63XGxvnY/5fCL9qtTPd/MPuji2rQDbVay54J7tvFK6i4ZYDVPHIOf1FlzYJhmjLagn2NJU3O9Z/MIGy8nSSTE9B2sBxPh5dUeT65H+eSlBUYa5i2zSjFqOyx4hG/VPEGq9M9hmmLMmoAfBQ9P82h21Bt6dTzb5NVHjGPzCPMMR1PwJx3tXTrhKNiA0WazsEmFcj1uWM5Lv4jFjRm7mosfZAbaz0G9v+JaxdUDGQ0xgh00fi0FCXttts/mUrYGAljCf7ok1ijKlRSa5gbEnddqpo6Vwpp92Fpy0JZ/pNvqmBCPdNdGd9fWBibO0qVemba/cbip1GKQM0gCwgbw2Kti19bzCAhRp8pnhqBOu1l8NyW2JdguDpnBPqOUSTXaiBip5t5mJVFvAe+n7u0mQ9RDn1ZGJs3WjEMP9lFjUurgVCGZr/0c8nWaOnQw+WptZGWy9fabmSIPDOHH99TDYQ+r/94fWc1YOxYXCAmkZWE3Q/ReTq4gZEzLTmsHJ6ZoICcCTO/zhAn9rl/2L27WbaG7w0hIy36cPonfohkfM4kxACDEyMVM/OkbEaYlBifzx+Dht0UuuUNlWNnNGLsYYFJmKy4M/FDFH9eIGMaNu9grZD0gp5zF7NOy+FLn/OD0gXSG84yxpV0gfSGR0lXAl5cDwn+l3gvZi07dTFr0tmJk9uxBgm7nZ4AuBnUcAAo0S2FoIbdTk8A3AxqOACU6JZCUMNupycAbv4HB52BENc/zEgAAAAASUVORK5CYII=;" vertex="1" parent="Rb3-9KN84XsQcw-WzDa4-2">
          <mxGeometry y="14.999856178283494" width="80" height="80" as="geometry" />
        </mxCell>
        <mxCell id="Rb3-9KN84XsQcw-WzDa4-4" value="" style="outlineConnect=0;fontColor=#232F3E;gradientColor=none;fillColor=#C7131F;strokeColor=none;dashed=0;verticalLabelPosition=bottom;verticalAlign=top;align=center;html=1;fontSize=12;fontStyle=0;aspect=fixed;pointerEvents=1;shape=mxgraph.aws4.data_encryption_key;" vertex="1" parent="Rb3-9KN84XsQcw-WzDa4-2">
          <mxGeometry x="61.75" width="22" height="27.68" as="geometry" />
        </mxCell>
        <mxCell id="Rb3-9KN84XsQcw-WzDa4-7" style="edgeStyle=orthogonalEdgeStyle;rounded=0;orthogonalLoop=1;jettySize=auto;html=1;entryX=0.5;entryY=1;entryDx=0;entryDy=0;entryPerimeter=0;" edge="1" parent="1" source="yiZmarmWkRWH_-EzoF3m-1" target="s1kYgqIjggECkqIjnE60-21">
          <mxGeometry relative="1" as="geometry" />
        </mxCell>
        <mxCell id="Rb3-9KN84XsQcw-WzDa4-8" value="Amazon Cognito" style="sketch=0;outlineConnect=0;fontColor=#232F3E;gradientColor=none;strokeColor=#ffffff;fillColor=#232F3E;dashed=0;verticalLabelPosition=middle;verticalAlign=bottom;align=center;html=1;whiteSpace=wrap;fontSize=10;fontStyle=1;spacing=3;shape=mxgraph.aws4.productIcon;prIcon=mxgraph.aws4.cognito;" vertex="1" parent="1">
          <mxGeometry x="30" y="649" width="80" height="110" as="geometry" />
        </mxCell>
        <mxCell id="Rb3-9KN84XsQcw-WzDa4-10" value="Amazon Nova Pro" style="shape=image;verticalLabelPosition=bottom;labelBackgroundColor=default;verticalAlign=top;aspect=fixed;imageAspect=0;image=https://registry.npmmirror.com/@lobehub/icons-static-png/latest/files/dark/nova-color.png;" vertex="1" parent="1">
          <mxGeometry x="589" y="-13.54" width="69" height="69" as="geometry" />
        </mxCell>
      </root>
    </mxGraphModel>
  </diagram>
</mxfile>
